<svg xmlns="http://www.w3.org/2000/svg" xmlns:xlink="http://www.w3.org/1999/xlink" viewBox="0 0 684.41 121.08"><defs><style>.cls-1{fill:url(#linear-gradient);}.cls-2{fill:url(#linear-gradient-2);}.cls-3{fill:url(#linear-gradient-3);}.cls-4{fill:url(#linear-gradient-4);}.cls-5{fill:url(#linear-gradient-5);}.cls-6{fill:url(#linear-gradient-6);}.cls-7{fill:url(#linear-gradient-7);}.cls-8{fill:url(#linear-gradient-8);}.cls-9{fill:url(#linear-gradient-9);}.cls-10{fill:url(#linear-gradient-10);}.cls-11{fill:url(#linear-gradient-12);}.cls-12{fill:url(#linear-gradient-14);}.cls-13{fill:url(#linear-gradient-16);}.cls-14{fill:url(#linear-gradient-18);}.cls-15{fill:url(#linear-gradient-20);}.cls-16{fill:url(#linear-gradient-22);}.cls-17{fill:url(#linear-gradient-23);}.cls-18{fill:url(#linear-gradient-24);}.cls-19{fill:url(#linear-gradient-25);}.cls-20{fill:url(#linear-gradient-26);}.cls-21{fill:url(#linear-gradient-27);}.cls-22{fill:url(#linear-gradient-28);}.cls-23{fill:#eeedee;}</style><linearGradient id="linear-gradient" x1="20.91" y1="133.16" x2="128.9" y2="137.66" gradientTransform="translate(136.98 235.44) rotate(180)" gradientUnits="userSpaceOnUse"><stop offset="0" stop-color="#f68b1f"></stop><stop offset="0.37" stop-color="#f47221"></stop><stop offset="0.74" stop-color="#f25f23"></stop><stop offset="1" stop-color="#f15824"></stop></linearGradient><linearGradient id="linear-gradient-2" x1="17.61" y1="212.25" x2="125.61" y2="216.75" xlink:href="#linear-gradient"></linearGradient><linearGradient id="linear-gradient-3" x1="19.32" y1="171.29" x2="127.31" y2="175.79" xlink:href="#linear-gradient"></linearGradient><linearGradient id="linear-gradient-4" x1="19.25" y1="172.88" x2="127.25" y2="177.38" xlink:href="#linear-gradient"></linearGradient><linearGradient id="linear-gradient-5" x1="19.19" y1="174.51" x2="127.18" y2="179.01" xlink:href="#linear-gradient"></linearGradient><linearGradient id="linear-gradient-6" x1="18.67" y1="186.88" x2="126.66" y2="191.38" xlink:href="#linear-gradient"></linearGradient><linearGradient id="linear-gradient-7" x1="18.8" y1="183.78" x2="126.79" y2="188.28" xlink:href="#linear-gradient"></linearGradient><linearGradient id="linear-gradient-8" x1="19.69" y1="162.48" x2="127.68" y2="166.98" xlink:href="#linear-gradient"></linearGradient><linearGradient id="linear-gradient-9" x1="19.82" y1="159.38" x2="127.81" y2="163.88" xlink:href="#linear-gradient"></linearGradient><linearGradient id="linear-gradient-10" x1="19.83" y1="158.94" x2="127.83" y2="163.44" xlink:href="#linear-gradient"></linearGradient><linearGradient id="linear-gradient-12" x1="19.25" y1="173" x2="127.24" y2="177.5" xlink:href="#linear-gradient"></linearGradient><linearGradient id="linear-gradient-14" x1="19.67" y1="162.91" x2="127.66" y2="167.41" xlink:href="#linear-gradient"></linearGradient><linearGradient id="linear-gradient-16" x1="18.82" y1="183.35" x2="126.81" y2="187.85" xlink:href="#linear-gradient"></linearGradient><linearGradient id="linear-gradient-18" x1="18.65" y1="187.31" x2="126.65" y2="191.81" xlink:href="#linear-gradient"></linearGradient><linearGradient id="linear-gradient-20" x1="19.37" y1="170.09" x2="127.36" y2="174.59" xlink:href="#linear-gradient"></linearGradient><linearGradient id="linear-gradient-22" x1="19.17" y1="174.84" x2="127.17" y2="179.34" xlink:href="#linear-gradient"></linearGradient><linearGradient id="linear-gradient-23" x1="19.17" y1="174.84" x2="127.17" y2="179.34" xlink:href="#linear-gradient"></linearGradient><linearGradient id="linear-gradient-24" x1="19.81" y1="159.44" x2="127.81" y2="163.94" xlink:href="#linear-gradient"></linearGradient><linearGradient id="linear-gradient-25" x1="20.12" y1="152.09" x2="128.11" y2="156.59" xlink:href="#linear-gradient"></linearGradient><linearGradient id="linear-gradient-26" x1="19.2" y1="174.12" x2="127.2" y2="178.62" xlink:href="#linear-gradient"></linearGradient><linearGradient id="linear-gradient-27" x1="18.7" y1="186.19" x2="126.69" y2="190.69" xlink:href="#linear-gradient"></linearGradient><linearGradient id="linear-gradient-28" x1="18.38" y1="193.73" x2="126.38" y2="198.23" xlink:href="#linear-gradient"></linearGradient></defs><title>logo-institucionalAsset 5</title><g id="Layer_2" data-name="Layer 2"><g id="Layer_1-2" data-name="Layer 1"><path class="cls-1" d="M63.94,103.66A43.14,43.14,0,0,1,26,81.09H13.15L10,83.73a2,2,0,0,0-.44,2.54L15,95.66a2,2,0,0,0,2.42.89l9.47-3.39,5.27,5.26-3.31,9.47a2,2,0,0,0,.89,2.4l9.41,5.44a2,2,0,0,0,2.54-.44l6.49-7.68,7.19,1.93,1.79,9.89a2,2,0,0,0,2,1.65H70a2,2,0,0,0,2-1.65l1.79-9.89L81,107.61l6.49,7.68a2,2,0,0,0,2.54.44l9.42-5.44a2,2,0,0,0,.88-2.41l-3.37-9.47,5.24-5.25,9.46,3.39a2,2,0,0,0,2.42-.89l5.42-9.4a2,2,0,0,0-.44-2.53l-3.1-2.64H101.87A43.14,43.14,0,0,1,63.94,103.66Z"></path><path class="cls-2" d="M13.19,39.91H26a43.15,43.15,0,0,1,75.81,0h14.07l3-2.55a2,2,0,0,0,.44-2.54L114,25.42a2,2,0,0,0-2.42-.88l-9.45,3.4-5.15-5.25,3.41-9.48a2,2,0,0,0-.88-2.42L90,5.35a2,2,0,0,0-2.54.44L81,13.47l-7.19-1.93L72,1.65a2,2,0,0,0-2-1.65H59.19a2,2,0,0,0-2,1.65l-1.79,9.89-7.19,1.93L41.75,5.79a2,2,0,0,0-2.54-.44l-9.42,5.44a2,2,0,0,0-.88,2.42l3.4,9.46-5.26,5.27-9.47-3.4a2,2,0,0,0-2.42.88l-5.42,9.4a2,2,0,0,0,.44,2.54Z"></path><rect class="cls-3" x="4.38" y="58.28" width="42.14" height="4.06"></rect><rect class="cls-4" x="46.52" y="58.28" width="34.47" height="4.06"></rect><rect class="cls-5" x="80.99" y="58.28" width="43.7" height="4.06"></rect><path class="cls-6" d="M90.92,49.89h21.16V45.83H90.69v3.62C90.76,49.6,90.84,49.74,90.92,49.89Z"></path><rect class="cls-7" x="16.78" y="45.83" width="20.03" height="4.06"></rect><rect class="cls-8" x="91.45" y="70.29" width="20.63" height="4.06"></rect><path class="cls-9" d="M37.51,74.35V72a.36.36,0,0,1-.07-.1c-.09-.27-.17-.53-.24-.8s-.25-.54-.39-.8H17.66v4.06Z"></path><circle class="cls-10" cx="16.61" cy="72.32" r="3.04"></circle><path class="cls-10" d="M16.61,67.7A4.62,4.62,0,1,1,12,72.32,4.62,4.62,0,0,1,16.61,67.7Zm0,6.08a1.47,1.47,0,1,0-1.46-1.46A1.46,1.46,0,0,0,16.61,73.78Z"></path><circle class="cls-11" cx="64.09" cy="60.21" r="7.82"></circle><path class="cls-11" d="M64.09,49A11.24,11.24,0,1,1,52.85,60.21,11.25,11.25,0,0,1,64.09,49Zm0,15.63a4.4,4.4,0,1,0-4.39-4.39A4.4,4.4,0,0,0,64.09,64.6Z"></path><circle class="cls-12" cx="112.27" cy="72.32" r="3.04"></circle><path class="cls-12" d="M112.27,67.7a4.62,4.62,0,1,1-4.62,4.62A4.63,4.63,0,0,1,112.27,67.7Zm0,6.08a1.47,1.47,0,1,0-1.47-1.46A1.46,1.46,0,0,0,112.27,73.78Z"></path><circle class="cls-13" cx="16.61" cy="47.86" r="3.04"></circle><path class="cls-13" d="M16.61,43.24A4.62,4.62,0,1,1,12,47.86,4.62,4.62,0,0,1,16.61,43.24Zm0,6.08a1.47,1.47,0,1,0-1.46-1.46A1.46,1.46,0,0,0,16.61,49.32Z"></path><circle class="cls-14" cx="111.82" cy="47.86" r="3.04"></circle><path class="cls-14" d="M111.82,43.24a4.62,4.62,0,1,1-4.62,4.62A4.62,4.62,0,0,1,111.82,43.24Zm0,6.08a1.47,1.47,0,1,0-1.47-1.46A1.46,1.46,0,0,0,111.82,49.32Z"></path><circle class="cls-15" cx="4.62" cy="60.65" r="3.04"></circle><path class="cls-15" d="M4.62,56A4.62,4.62,0,1,1,0,60.65,4.62,4.62,0,0,1,4.62,56Zm0,6.08a1.47,1.47,0,1,0-1.47-1.46A1.46,1.46,0,0,0,4.62,62.11Z"></path><circle class="cls-16" cx="125.15" cy="60.91" r="3.04"></circle><path class="cls-17" d="M125.15,56.29a4.62,4.62,0,1,1-4.62,4.62A4.63,4.63,0,0,1,125.15,56.29Zm0,6.08a1.47,1.47,0,1,0-1.47-1.46A1.47,1.47,0,0,0,125.15,62.37Z"></path><path class="cls-18" d="M35.42,70.72a24.43,24.43,0,0,0,1.46,2.43L35,74.46a27.17,27.17,0,0,1-1.6-2.66Z"></path><path class="cls-19" d="M91.21,70.28,95.54,72a34.08,34.08,0,0,1-62.26,1.79l4.22-2a29.42,29.42,0,0,0,53.71-1.53Z"></path><path class="cls-20" d="M96.59,59.05c0,.37,0,.75,0,1.13,0,.55,0,1.1,0,1.65l-2.33-.12c0-.51,0-1,0-1.53,0-.35,0-.7,0-1Z"></path><path class="cls-21" d="M93.78,47c.24.5.47,1,.69,1.55l-2.16.88c-.2-.49-.41-1-.63-1.43Z"></path><path class="cls-22" d="M64,27.8A33.83,33.83,0,0,1,94.88,47.39l-4.24,1.93A29.43,29.43,0,0,0,37.12,50l-4.29-1.82A33.68,33.68,0,0,1,64,27.8Z"></path><path class="cls-23" d="M398.48,27.1a6.83,6.83,0,0,1-6.91-6.92,6.82,6.82,0,0,1,2-5,6.92,6.92,0,0,1,9.83,0,6.86,6.86,0,0,1,2,5,6.83,6.83,0,0,1-6.92,6.92Z"></path><polygon class="cls-23" points="313.13 16.02 301.17 26.95 293.49 22.84 301.76 9.94 313.13 16.02"></polygon><path class="cls-23" d="M361.68,61.91l18.45,27.53H367L355.07,71.73,343.22,89.44H330.1l18.46-27.53-19.2-28.69h13.12L355.07,52.1l12.69-18.88h13.12Z"></path><rect class="cls-23" x="392.99" y="33.11" width="10.99" height="56.32"></rect><path class="cls-23" d="M499,36.85a24.4,24.4,0,0,1,8,8.69,23.91,23.91,0,0,1,3,11.79V89.44H499V57.33A13,13,0,0,0,498,52.1a13.86,13.86,0,0,0-7.25-7.25,13,13,0,0,0-5.23-1.07,13.36,13.36,0,0,0-5.28,1.07,13.79,13.79,0,0,0-7.31,7.25,13,13,0,0,0-1.06,5.23V89.44h-11V57.33a13,13,0,0,0-1.07-5.23,13.86,13.86,0,0,0-7.25-7.25,13,13,0,0,0-5.23-1.07A13.36,13.36,0,0,0,442,44.85a13.79,13.79,0,0,0-7.31,7.25,13,13,0,0,0-1.06,5.23V89.44h-11V32.79h11v4.06a26,26,0,0,1,6.45-3,24.61,24.61,0,0,1,20.75,3A23.71,23.71,0,0,1,466.38,42a24.47,24.47,0,0,1,5.44-5.12,26,26,0,0,1,6.45-3,24.61,24.61,0,0,1,20.75,3Z"></path><path class="cls-23" d="M234.38,36.85a24.4,24.4,0,0,1,8,8.69,23.91,23.91,0,0,1,3,11.79V89.44h-11V57.33a13,13,0,0,0-1.07-5.23,13.86,13.86,0,0,0-7.25-7.25,13,13,0,0,0-5.23-1.07,13.36,13.36,0,0,0-5.28,1.07,13.79,13.79,0,0,0-7.31,7.25,13,13,0,0,0-1.06,5.23V89.44h-11V57.33a13,13,0,0,0-1.07-5.23,13.86,13.86,0,0,0-7.25-7.25,13,13,0,0,0-5.23-1.07,13.36,13.36,0,0,0-5.28,1.07,13.73,13.73,0,0,0-7.3,7.25A12.85,12.85,0,0,0,169,57.33V89.44H158V32.79h11v4.06a26,26,0,0,1,6.45-3,24.61,24.61,0,0,1,20.75,3A23.71,23.71,0,0,1,201.74,42a24.47,24.47,0,0,1,5.44-5.12,26,26,0,0,1,6.45-3,24.61,24.61,0,0,1,20.75,3Z"></path><path class="cls-23" d="M633.91,72a11.82,11.82,0,0,1,1.54,3,9.33,9.33,0,0,1,.49,3.47,9.93,9.93,0,0,1-1.05,4.27,11.49,11.49,0,0,1-6.37,5.71,11.85,11.85,0,0,1-4.55.73,12.52,12.52,0,0,1-6.06-1.75,10.64,10.64,0,0,1-4.1-4.27l6-4.2a4,4,0,0,0,1.54,2.13,5.2,5.2,0,0,0,6-.14,3.31,3.31,0,0,0,1.37-2.69,2.32,2.32,0,0,0-.07-.7v-.14a.56.56,0,0,1-.07-.25.49.49,0,0,0-.07-.24,4.08,4.08,0,0,0-1.82-2,2.37,2.37,0,0,0-.63-.28l.07-.08c-.66-.37-1.38-.73-2.17-1.08s-1.6-.72-2.42-1.12-1.62-.82-2.42-1.26a13.75,13.75,0,0,1-2.24-1.58v-.07l-.21-.21a10.29,10.29,0,0,1-2.31-3.26,8.67,8.67,0,0,1-.77-3.95,9.39,9.39,0,0,1,1-3.93A10.37,10.37,0,0,1,617,55.05a11.36,11.36,0,0,1,7.88-2.8,12.23,12.23,0,0,1,5.43,1.47,10.23,10.23,0,0,1,3.81,3.57l-5.88,4.07A3.6,3.6,0,0,0,626.87,60a4.13,4.13,0,0,0-2.13-.56,4.29,4.29,0,0,0-2.77.77,2.47,2.47,0,0,0-1.16,2,1.37,1.37,0,0,0,.07.49,2.57,2.57,0,0,0,.7,1.33A4.57,4.57,0,0,0,623,65c.88.51,1.9,1,3,1.57s2.3,1.14,3.47,1.79A10.75,10.75,0,0,1,632,70l.35.35A14,14,0,0,1,633.91,72Z"></path><path class="cls-23" d="M668.22,55.08A14.65,14.65,0,0,1,671.93,59l-3.71,3.23-1.4,1.26a8.39,8.39,0,0,0-2.85-2.8,7.29,7.29,0,0,0-3.81-1,7.13,7.13,0,0,0-3.13.7,8.27,8.27,0,0,0-2.56,1.89,9.16,9.16,0,0,0-1.73,2.8,9.39,9.39,0,0,0-.64,3.44v20.8h-6.59V52.39h6.59v2.69a13.92,13.92,0,0,1,3.78-2,13.29,13.29,0,0,1,8.57,0A14,14,0,0,1,668.22,55.08Z"></path><path class="cls-23" d="M677.71,39.28h6.7v50h-6.7Z"></path><path class="cls-23" d="M316.31,33.47v54.6h-10l-1.83-6.27a19.17,19.17,0,0,1-7.83,5.7A25.42,25.42,0,0,1,287,89.44a29.49,29.49,0,0,1-20.72-8.33A29,29,0,0,1,260,72a28,28,0,0,1,0-22.34,29.27,29.27,0,0,1,27-17.44A25.61,25.61,0,0,1,296.39,34a22.13,22.13,0,0,1,8.07,5.53l1.83-6ZM287,79.63a15.69,15.69,0,0,0,6.72-1.48,17.12,17.12,0,0,0,5.5-4.05,19.41,19.41,0,0,0,3.67-6,20.53,20.53,0,0,0,0-14.59,19.46,19.46,0,0,0-3.67-6,17.09,17.09,0,0,0-5.5-4,16,16,0,0,0-13.45,0,17.09,17.09,0,0,0-5.5,4,19.25,19.25,0,0,0-3.66,6,20.39,20.39,0,0,0,0,14.59,19.2,19.2,0,0,0,3.66,6,17.12,17.12,0,0,0,5.5,4.05A15.7,15.7,0,0,0,287,79.63Z"></path><path class="cls-23" d="M578.66,33.47v54.6h-10L566.8,81.8A19.14,19.14,0,0,1,559,87.5a25.51,25.51,0,0,1-9.66,1.94,29.49,29.49,0,0,1-20.72-8.33A28.76,28.76,0,0,1,522.31,72a27.94,27.94,0,0,1,0-22.34,29,29,0,0,1,6.29-9.12,29.68,29.68,0,0,1,9.29-6.1,29.37,29.37,0,0,1,11.43-2.22A25.57,25.57,0,0,1,558.73,34a22,22,0,0,1,8.07,5.53l1.84-6ZM549.32,79.63A15.69,15.69,0,0,0,556,78.15a17,17,0,0,0,5.5-4.05,19.22,19.22,0,0,0,3.67-6,20.39,20.39,0,0,0,0-14.59,19.27,19.27,0,0,0-3.67-6,17,17,0,0,0-5.5-4,16,16,0,0,0-13.44,0,17,17,0,0,0-5.5,4,19.27,19.27,0,0,0-3.67,6,20.39,20.39,0,0,0,0,14.59,19.22,19.22,0,0,0,3.67,6,17,17,0,0,0,5.5,4.05A15.69,15.69,0,0,0,549.32,79.63Z"></path></g></g></svg>