<svg xmlns="http://www.w3.org/2000/svg" viewBox="0 0 593.07 93.15"><title>logoRecurso 1</title><g id="Capa_2" data-name="Capa 2"><g id="Capa_1-2" data-name="Capa 1"><path d="M60.26,12Q50.11,3.83,31,3.83H0V93H20.18V64.74H34.66A46.08,46.08,0,0,0,51.57,62a29.06,29.06,0,0,0,11-7.2,28.06,28.06,0,0,0,6-10,33.55,33.55,0,0,0,1.88-11Q70.42,20.18,60.26,12ZM49.48,38.34A13.79,13.79,0,0,1,47,42.76a12.91,12.91,0,0,1-4.8,3.51,18.44,18.44,0,0,1-7.65,1.4H20.18V20.79H34.66a18.93,18.93,0,0,1,8.42,1.57,11.84,11.84,0,0,1,4.66,3.87,13.53,13.53,0,0,1,2,4.55,18,18,0,0,1,.48,3.57A12.88,12.88,0,0,1,49.48,38.34Z"/><path d="M177.17,93,153.31,60.57a28.51,28.51,0,0,0,8.2-5.88,27.45,27.45,0,0,0,6.13-9.93,33.27,33.27,0,0,0,1.87-10.9,27.22,27.22,0,0,0-4.66-15.92A29.89,29.89,0,0,0,151.28,7.53q-8.91-3.69-21.85-3.7h-31V93h20.18V64.62H132L153.65,93ZM118.58,20.79h14.47a18.9,18.9,0,0,1,8.42,1.57,11.77,11.77,0,0,1,4.66,3.87,13.53,13.53,0,0,1,2,4.55,17.68,17.68,0,0,1,.49,3.69,14,14,0,0,1-1.39,5.63,12.7,12.7,0,0,1-4.81,5.33q-3.41,2.24-9.53,2.24H118.58Z"/><path d="M205.75,3.83h20.18V93H205.75Z"/><path d="M320,24.42a82.73,82.73,0,0,0-11.9-4.6A39.6,39.6,0,0,0,296.71,18q-6.54,0-10.3,2.3a7.57,7.57,0,0,0-3.76,6.9,7.31,7.31,0,0,0,2.86,5.63,27.76,27.76,0,0,0,7.37,4.42c3,1.29,6.15,2.47,9.4,3.51a71.92,71.92,0,0,1,11.55,4.91A26,26,0,0,1,323,53.78q3.63,5.14,3.62,13.62a21.65,21.65,0,0,1-4,12.6,28.43,28.43,0,0,1-11.83,9.38Q303,93,291.56,93a73,73,0,0,1-17.88-2.3,61.06,61.06,0,0,1-17.19-7.26l8.9-13.69a51.31,51.31,0,0,0,12.11,5.57,40.53,40.53,0,0,0,12.25,2.18,30.3,30.3,0,0,0,7.31-.91,14,14,0,0,0,6.12-3.08,7.73,7.73,0,0,0,2.44-6.06,7,7,0,0,0-2-4.84,20.57,20.57,0,0,0-5.43-4,47.63,47.63,0,0,0-7.45-3.14Q286,53.85,281,51.78a51.48,51.48,0,0,1-9.39-5,24.05,24.05,0,0,1-7.1-7.39,20.31,20.31,0,0,1-2.71-10.83,23,23,0,0,1,4-13.45,27.17,27.17,0,0,1,11.21-9,43.58,43.58,0,0,1,16.7-3.69q12.38,0,20.11,2.54A75.43,75.43,0,0,1,327.61,11Z"/><polygon points="461.67 0.4 408.31 64.31 408.31 64.31 356.59 0 356.45 0 356.1 92.75 375.58 92.82 375.74 52.94 407.74 91.74 408.02 91.74 441.58 50.55 441.41 93.08 461.6 93.15 461.95 0.4 461.67 0.4"/><polygon points="539.92 83.46 563.79 42.02 555.44 27.52 531.57 68.96 539.92 83.46"/><polygon points="487.07 92.85 533.79 92.85 510.43 52.3 487.07 92.85"/><polygon points="593.07 92.85 569.56 52.04 546.05 92.85 593.07 92.85"/><polygon points="549.67 17.5 540.07 0.85 516.2 42.29 525.79 58.94 549.67 17.5"/></g></g></svg>