<svg xmlns="http://www.w3.org/2000/svg" viewBox="0 0 574.4 115.99"><defs><style>.cls-1{fill:#fff;}</style></defs><title>Recurso 1</title><g id="Capa_2" data-name="Capa 2"><g id="Capa_1-2" data-name="Capa 1"><path class="cls-1" d="M39.18,21.11a9.47,9.47,0,0,0-13.32,1.2L2.2,50.69a9.45,9.45,0,0,0,0,12.12L25.86,91.2a9.46,9.46,0,0,0,14.59-12l-.07-.08L21.77,56.75,40.38,34.43A9.45,9.45,0,0,0,39.18,21.11Z"/><path class="cls-1" d="M87,.17A9.55,9.55,0,0,0,75.88,7.6L57,102.21a9.44,9.44,0,0,0,7.39,11.12h0a9,9,0,0,0,1.86.18,9.44,9.44,0,0,0,9.26-7.61L94.44,11.29A9.43,9.43,0,0,0,87.05.18Z"/><path class="cls-1" d="M149.19,50.69,125.54,22.31a9.46,9.46,0,1,0-14.59,12l.06.08,18.61,22.32L111,79.08a9.46,9.46,0,0,0,14.46,12.2l.07-.08,23.65-28.39A9.43,9.43,0,0,0,149.19,50.69Z"/><path class="cls-1" d="M218.13,88.37,203,60.85h-4.26V88.37H181V15.48h29.8a32.79,32.79,0,0,1,14.7,3,20.72,20.72,0,0,1,9.08,8.25,23,23,0,0,1,3,11.68,21.64,21.64,0,0,1-4.11,13q-4.09,5.72-12.09,8.1l16.82,28.87ZM198.71,48.29h11c3.26,0,5.7-.79,7.33-2.39a9,9,0,0,0,2.43-6.75A8.74,8.74,0,0,0,217,32.61q-2.44-2.38-7.33-2.39h-11Z"/><path class="cls-1" d="M303,63.66H262.78q.41,5.4,3.47,8.25a10.6,10.6,0,0,0,7.53,2.86q6.64,0,9.24-5.61h18.9a25.84,25.84,0,0,1-5.24,10.28,26.3,26.3,0,0,1-9.5,7.17,30.55,30.55,0,0,1-12.77,2.59,31.16,31.16,0,0,1-15.17-3.63,25.89,25.89,0,0,1-10.38-10.39,32.08,32.08,0,0,1-3.74-15.78,32.39,32.39,0,0,1,3.69-15.78,25.58,25.58,0,0,1,10.33-10.39,33.68,33.68,0,0,1,30.22-.1A25.36,25.36,0,0,1,299.59,43.2a30.64,30.64,0,0,1,3.68,15.26A44.82,44.82,0,0,1,303,63.66ZM285.1,53.79A9.16,9.16,0,0,0,282,46.52a11.49,11.49,0,0,0-7.79-2.7,11.25,11.25,0,0,0-7.53,2.6,11.52,11.52,0,0,0-3.79,7.37Z"/><path class="cls-1" d="M337.54,32.09a22,22,0,0,1,10.7-2.49,24,24,0,0,1,13,3.63,25.14,25.14,0,0,1,9.19,10.39,34.61,34.61,0,0,1,3.38,15.68A35,35,0,0,1,370.4,75a25.34,25.34,0,0,1-9.19,10.48,23.69,23.69,0,0,1-13,3.69,22.1,22.1,0,0,1-10.65-2.49,19.6,19.6,0,0,1-7.22-6.44V116H312.62V30.43h17.75v8.2A19.31,19.31,0,0,1,337.54,32.09ZM352,48.86a12.18,12.18,0,0,0-9.09-3.79,12,12,0,0,0-9,3.84q-3.69,3.84-3.69,10.49T334,69.89a12.42,12.42,0,0,0,18,0q3.75-3.9,3.74-10.54T352,48.86Z"/><path class="cls-1" d="M400.88,11.53V88.37H383.13V11.53Z"/><path class="cls-1" d="M413.6,43.62a25.21,25.21,0,0,1,9.19-10.39,24,24,0,0,1,13-3.63,22.31,22.31,0,0,1,10.75,2.49,18.33,18.33,0,0,1,7.11,6.54v-8.2h17.76V88.37H453.63v-8.2a19.14,19.14,0,0,1-7.21,6.54,22.33,22.33,0,0,1-10.75,2.49,23.56,23.56,0,0,1-12.88-3.69A25.41,25.41,0,0,1,413.6,75a35,35,0,0,1-3.37-15.73A34.61,34.61,0,0,1,413.6,43.62ZM450,48.91a12.49,12.49,0,0,0-18,0q-3.69,3.8-3.69,10.44T432,69.84a12.38,12.38,0,0,0,18,0q3.68-3.84,3.68-10.49T450,48.91Z"/><path class="cls-1" d="M543.45,30.43,507.1,115.89H488L501.29,86.4l-23.57-56h19.83L511,66.67l13.29-36.24Z"/><path class="cls-1" d="M556.28,86.45a8.91,8.91,0,0,1-3-6.8,9.19,9.19,0,0,1,3-7,11.66,11.66,0,0,1,15.16,0,9.21,9.21,0,0,1,3,7,8.93,8.93,0,0,1-3,6.8,11.82,11.82,0,0,1-15.16,0Zm17-73.57-2.07,49.74H556.12L554,12.88Z"/></g></g></svg>