<?xml version="1.0" encoding="utf-8"?>
<!-- Generator: Adobe Illustrator 24.0.0, SVG Export Plug-In . SVG Version: 6.00 Build 0)  -->
<svg version="1.1" id="Capa_1" xmlns="http://www.w3.org/2000/svg" xmlns:xlink="http://www.w3.org/1999/xlink" x="0px" y="0px"
	 viewBox="0 0 256 197" style="enable-background:new 0 0 256 197;" xml:space="preserve">
<style type="text/css">
	.st0{fill:none;stroke:#000000;stroke-width:10;stroke-linecap:round;stroke-linejoin:round;}
	.st1{fill:#FFFFFF;stroke:#000000;stroke-width:10;stroke-linecap:round;stroke-linejoin:round;}
</style>
<path class="st0" d="M22.6,17.1h210.8c5.3,0,9.6,3.5,9.6,7.8v140.2c0,4.3-4.3,7.8-9.6,7.8H22.6c-5.3,0-9.6-3.5-9.6-7.8V24.9
	C13,20.6,17.3,17.1,22.6,17.1z"/>
<line class="st0" x1="44.1" y1="55.5" x2="144.8" y2="55.5"/>
<line class="st0" x1="44.1" y1="82.4" x2="144.8" y2="82.4"/>
<line class="st0" x1="44.1" y1="109.4" x2="144.8" y2="109.4"/>
<path class="st1" d="M213,184.9l-18.6-8.2l-18.6,8.2V149c0-0.9,1-1.6,2.3-1.6h32.6c1.3,0,2.3,0.7,2.3,1.6V184.9z"/>
<path class="st1" d="M172,153.1c-2.8-2.8-0.9-8.7-2.4-12.1s-6.9-6.4-6.9-10.2s5.4-6.7,6.9-10.2s-0.4-9.3,2.4-12.1s8.7-0.9,12.1-2.4
	c3.4-1.4,6.4-6.9,10.2-6.9s6.7,5.4,10.2,6.9c3.6,1.5,9.3-0.4,12.1,2.4s0.9,8.7,2.4,12.1s6.9,6.4,6.9,10.2s-5.4,6.7-6.9,10.2
	c-1.5,3.6,0.4,9.3-2.4,12.1s-8.7,0.9-12.1,2.4c-3.4,1.4-6.4,6.9-10.2,6.9s-6.7-5.4-10.2-6.9C180.5,154,174.8,155.9,172,153.1z"/>
</svg>
