<svg xmlns="http://www.w3.org/2000/svg" version="1.1" xmlns:xlink="http://www.w3.org/1999/xlink" xmlns:svgjs="http://svgjs.dev/svgjs" viewBox="0 0 800 800"><defs><linearGradient gradientTransform="rotate(270)" x1="50%" y1="0%" x2="50%" y2="100%" id="sssquiggly-grad"><stop stop-color="hsl(206, 75%, 49%)" stop-opacity="1" offset="0%"></stop><stop stop-color="hsl(331, 90%, 56%)" stop-opacity="1" offset="100%"></stop></linearGradient></defs><g stroke-width="2" stroke="#00c874" fill="none" stroke-linecap="round" transform="matrix(1,0,0,1,-5,-1326.5970764160156)"><path d="M10,10C19.02777777777778,11.666666666666666,33.19444444444444,24.25,53.333333333333336,18C73.47222222222223,11.75,84.44444444444446,-21.458333333333332,106.66666666666667,-20C128.88888888888889,-18.541666666666668,137.77777777777777,22.708333333333332,160,25C182.22222222222223,27.291666666666668,191.11111111111111,-10.875,213.33333333333334,-9C235.55555555555557,-7.125,244.44444444444446,31.916666666666668,266.6666666666667,34C288.8888888888889,36.083333333333336,297.77777777777777,2.25,320,1C342.22222222222223,-0.25,351.11111111111114,27.583333333333332,373.33333333333337,28C395.5555555555556,28.416666666666668,404.44444444444446,-0.125,426.6666666666667,3C448.8888888888889,6.125,457.77777777777777,41.75,480,43C502.22222222222223,44.25,511.11111111111114,7.541666666666666,533.3333333333334,9C555.5555555555557,10.458333333333334,564.4444444444446,51.666666666666664,586.6666666666667,50C608.8888888888889,48.333333333333336,617.7777777777778,0.375,640,1C662.2222222222222,1.625,671.1111111111111,49.458333333333336,693.3333333333334,53C715.5555555555557,56.541666666666664,724.4444444444446,19.875,746.6666666666667,18C768.8888888888889,16.125,788.8888888888889,38.583333333333336,800,44"></path><path d="M10,10C19.02777777777778,11.666666666666666,33.19444444444444,24.25,53.333333333333336,18C73.47222222222223,11.75,84.44444444444446,-21.458333333333332,106.66666666666667,-20C128.88888888888889,-18.541666666666668,137.77777777777777,22.708333333333332,160,25C182.22222222222223,27.291666666666668,191.11111111111111,-10.875,213.33333333333334,-9C235.55555555555557,-7.125,244.44444444444446,31.916666666666668,266.6666666666667,34C288.8888888888889,36.083333333333336,297.77777777777777,2.25,320,1C342.22222222222223,-0.25,351.11111111111114,27.583333333333332,373.33333333333337,28C395.5555555555556,28.416666666666668,404.44444444444446,-0.125,426.6666666666667,3C448.8888888888889,6.125,457.77777777777777,41.75,480,43C502.22222222222223,44.25,511.11111111111114,7.541666666666666,533.3333333333334,9C555.5555555555557,10.458333333333334,564.4444444444446,51.666666666666664,586.6666666666667,50C608.8888888888889,48.333333333333336,617.7777777777778,0.375,640,1C662.2222222222222,1.625,671.1111111111111,49.458333333333336,693.3333333333334,53C715.5555555555557,56.541666666666664,724.4444444444446,19.875,746.6666666666667,18C768.8888888888889,16.125,788.8888888888889,38.583333333333336,800,44" transform="matrix(1,0,0,1,0,3420)"></path><path d="M10,10C19.02777777777778,11.666666666666666,33.19444444444444,24.25,53.333333333333336,18C73.47222222222223,11.75,84.44444444444446,-21.458333333333332,106.66666666666667,-20C128.88888888888889,-18.541666666666668,137.77777777777777,22.708333333333332,160,25C182.22222222222223,27.291666666666668,191.11111111111111,-10.875,213.33333333333334,-9C235.55555555555557,-7.125,244.44444444444446,31.916666666666668,266.6666666666667,34C288.8888888888889,36.083333333333336,297.77777777777777,2.25,320,1C342.22222222222223,-0.25,351.11111111111114,27.583333333333332,373.33333333333337,28C395.5555555555556,28.416666666666668,404.44444444444446,-0.125,426.6666666666667,3C448.8888888888889,6.125,457.77777777777777,41.75,480,43C502.22222222222223,44.25,511.11111111111114,7.541666666666666,533.3333333333334,9C555.5555555555557,10.458333333333334,564.4444444444446,51.666666666666664,586.6666666666667,50C608.8888888888889,48.333333333333336,617.7777777777778,0.375,640,1C662.2222222222222,1.625,671.1111111111111,49.458333333333336,693.3333333333334,53C715.5555555555557,56.541666666666664,724.4444444444446,19.875,746.6666666666667,18C768.8888888888889,16.125,788.8888888888889,38.583333333333336,800,44" transform="matrix(1,0,0,1,0,3375)"></path><path d="M10,10C19.02777777777778,11.666666666666666,33.19444444444444,24.25,53.333333333333336,18C73.47222222222223,11.75,84.44444444444446,-21.458333333333332,106.66666666666667,-20C128.88888888888889,-18.541666666666668,137.77777777777777,22.708333333333332,160,25C182.22222222222223,27.291666666666668,191.11111111111111,-10.875,213.33333333333334,-9C235.55555555555557,-7.125,244.44444444444446,31.916666666666668,266.6666666666667,34C288.8888888888889,36.083333333333336,297.77777777777777,2.25,320,1C342.22222222222223,-0.25,351.11111111111114,27.583333333333332,373.33333333333337,28C395.5555555555556,28.416666666666668,404.44444444444446,-0.125,426.6666666666667,3C448.8888888888889,6.125,457.77777777777777,41.75,480,43C502.22222222222223,44.25,511.11111111111114,7.541666666666666,533.3333333333334,9C555.5555555555557,10.458333333333334,564.4444444444446,51.666666666666664,586.6666666666667,50C608.8888888888889,48.333333333333336,617.7777777777778,0.375,640,1C662.2222222222222,1.625,671.1111111111111,49.458333333333336,693.3333333333334,53C715.5555555555557,56.541666666666664,724.4444444444446,19.875,746.6666666666667,18C768.8888888888889,16.125,788.8888888888889,38.583333333333336,800,44" transform="matrix(1,0,0,1,0,3330)"></path><path d="M10,10C19.02777777777778,11.666666666666666,33.19444444444444,24.25,53.333333333333336,18C73.47222222222223,11.75,84.44444444444446,-21.458333333333332,106.66666666666667,-20C128.88888888888889,-18.541666666666668,137.77777777777777,22.708333333333332,160,25C182.22222222222223,27.291666666666668,191.11111111111111,-10.875,213.33333333333334,-9C235.55555555555557,-7.125,244.44444444444446,31.916666666666668,266.6666666666667,34C288.8888888888889,36.083333333333336,297.77777777777777,2.25,320,1C342.22222222222223,-0.25,351.11111111111114,27.583333333333332,373.33333333333337,28C395.5555555555556,28.416666666666668,404.44444444444446,-0.125,426.6666666666667,3C448.8888888888889,6.125,457.77777777777777,41.75,480,43C502.22222222222223,44.25,511.11111111111114,7.541666666666666,533.3333333333334,9C555.5555555555557,10.458333333333334,564.4444444444446,51.666666666666664,586.6666666666667,50C608.8888888888889,48.333333333333336,617.7777777777778,0.375,640,1C662.2222222222222,1.625,671.1111111111111,49.458333333333336,693.3333333333334,53C715.5555555555557,56.541666666666664,724.4444444444446,19.875,746.6666666666667,18C768.8888888888889,16.125,788.8888888888889,38.583333333333336,800,44" transform="matrix(1,0,0,1,0,3285)"></path><path d="M10,10C19.02777777777778,11.666666666666666,33.19444444444444,24.25,53.333333333333336,18C73.47222222222223,11.75,84.44444444444446,-21.458333333333332,106.66666666666667,-20C128.88888888888889,-18.541666666666668,137.77777777777777,22.708333333333332,160,25C182.22222222222223,27.291666666666668,191.11111111111111,-10.875,213.33333333333334,-9C235.55555555555557,-7.125,244.44444444444446,31.916666666666668,266.6666666666667,34C288.8888888888889,36.083333333333336,297.77777777777777,2.25,320,1C342.22222222222223,-0.25,351.11111111111114,27.583333333333332,373.33333333333337,28C395.5555555555556,28.416666666666668,404.44444444444446,-0.125,426.6666666666667,3C448.8888888888889,6.125,457.77777777777777,41.75,480,43C502.22222222222223,44.25,511.11111111111114,7.541666666666666,533.3333333333334,9C555.5555555555557,10.458333333333334,564.4444444444446,51.666666666666664,586.6666666666667,50C608.8888888888889,48.333333333333336,617.7777777777778,0.375,640,1C662.2222222222222,1.625,671.1111111111111,49.458333333333336,693.3333333333334,53C715.5555555555557,56.541666666666664,724.4444444444446,19.875,746.6666666666667,18C768.8888888888889,16.125,788.8888888888889,38.583333333333336,800,44" transform="matrix(1,0,0,1,0,3240)"></path><path d="M10,10C19.02777777777778,11.666666666666666,33.19444444444444,24.25,53.333333333333336,18C73.47222222222223,11.75,84.44444444444446,-21.458333333333332,106.66666666666667,-20C128.88888888888889,-18.541666666666668,137.77777777777777,22.708333333333332,160,25C182.22222222222223,27.291666666666668,191.11111111111111,-10.875,213.33333333333334,-9C235.55555555555557,-7.125,244.44444444444446,31.916666666666668,266.6666666666667,34C288.8888888888889,36.083333333333336,297.77777777777777,2.25,320,1C342.22222222222223,-0.25,351.11111111111114,27.583333333333332,373.33333333333337,28C395.5555555555556,28.416666666666668,404.44444444444446,-0.125,426.6666666666667,3C448.8888888888889,6.125,457.77777777777777,41.75,480,43C502.22222222222223,44.25,511.11111111111114,7.541666666666666,533.3333333333334,9C555.5555555555557,10.458333333333334,564.4444444444446,51.666666666666664,586.6666666666667,50C608.8888888888889,48.333333333333336,617.7777777777778,0.375,640,1C662.2222222222222,1.625,671.1111111111111,49.458333333333336,693.3333333333334,53C715.5555555555557,56.541666666666664,724.4444444444446,19.875,746.6666666666667,18C768.8888888888889,16.125,788.8888888888889,38.583333333333336,800,44" transform="matrix(1,0,0,1,0,3195)"></path><path d="M10,10C19.02777777777778,11.666666666666666,33.19444444444444,24.25,53.333333333333336,18C73.47222222222223,11.75,84.44444444444446,-21.458333333333332,106.66666666666667,-20C128.88888888888889,-18.541666666666668,137.77777777777777,22.708333333333332,160,25C182.22222222222223,27.291666666666668,191.11111111111111,-10.875,213.33333333333334,-9C235.55555555555557,-7.125,244.44444444444446,31.916666666666668,266.6666666666667,34C288.8888888888889,36.083333333333336,297.77777777777777,2.25,320,1C342.22222222222223,-0.25,351.11111111111114,27.583333333333332,373.33333333333337,28C395.5555555555556,28.416666666666668,404.44444444444446,-0.125,426.6666666666667,3C448.8888888888889,6.125,457.77777777777777,41.75,480,43C502.22222222222223,44.25,511.11111111111114,7.541666666666666,533.3333333333334,9C555.5555555555557,10.458333333333334,564.4444444444446,51.666666666666664,586.6666666666667,50C608.8888888888889,48.333333333333336,617.7777777777778,0.375,640,1C662.2222222222222,1.625,671.1111111111111,49.458333333333336,693.3333333333334,53C715.5555555555557,56.541666666666664,724.4444444444446,19.875,746.6666666666667,18C768.8888888888889,16.125,788.8888888888889,38.583333333333336,800,44" transform="matrix(1,0,0,1,0,3150)"></path><path d="M10,10C19.02777777777778,11.666666666666666,33.19444444444444,24.25,53.333333333333336,18C73.47222222222223,11.75,84.44444444444446,-21.458333333333332,106.66666666666667,-20C128.88888888888889,-18.541666666666668,137.77777777777777,22.708333333333332,160,25C182.22222222222223,27.291666666666668,191.11111111111111,-10.875,213.33333333333334,-9C235.55555555555557,-7.125,244.44444444444446,31.916666666666668,266.6666666666667,34C288.8888888888889,36.083333333333336,297.77777777777777,2.25,320,1C342.22222222222223,-0.25,351.11111111111114,27.583333333333332,373.33333333333337,28C395.5555555555556,28.416666666666668,404.44444444444446,-0.125,426.6666666666667,3C448.8888888888889,6.125,457.77777777777777,41.75,480,43C502.22222222222223,44.25,511.11111111111114,7.541666666666666,533.3333333333334,9C555.5555555555557,10.458333333333334,564.4444444444446,51.666666666666664,586.6666666666667,50C608.8888888888889,48.333333333333336,617.7777777777778,0.375,640,1C662.2222222222222,1.625,671.1111111111111,49.458333333333336,693.3333333333334,53C715.5555555555557,56.541666666666664,724.4444444444446,19.875,746.6666666666667,18C768.8888888888889,16.125,788.8888888888889,38.583333333333336,800,44" transform="matrix(1,0,0,1,0,3105)"></path><path d="M10,10C19.02777777777778,11.666666666666666,33.19444444444444,24.25,53.333333333333336,18C73.47222222222223,11.75,84.44444444444446,-21.458333333333332,106.66666666666667,-20C128.88888888888889,-18.541666666666668,137.77777777777777,22.708333333333332,160,25C182.22222222222223,27.291666666666668,191.11111111111111,-10.875,213.33333333333334,-9C235.55555555555557,-7.125,244.44444444444446,31.916666666666668,266.6666666666667,34C288.8888888888889,36.083333333333336,297.77777777777777,2.25,320,1C342.22222222222223,-0.25,351.11111111111114,27.583333333333332,373.33333333333337,28C395.5555555555556,28.416666666666668,404.44444444444446,-0.125,426.6666666666667,3C448.8888888888889,6.125,457.77777777777777,41.75,480,43C502.22222222222223,44.25,511.11111111111114,7.541666666666666,533.3333333333334,9C555.5555555555557,10.458333333333334,564.4444444444446,51.666666666666664,586.6666666666667,50C608.8888888888889,48.333333333333336,617.7777777777778,0.375,640,1C662.2222222222222,1.625,671.1111111111111,49.458333333333336,693.3333333333334,53C715.5555555555557,56.541666666666664,724.4444444444446,19.875,746.6666666666667,18C768.8888888888889,16.125,788.8888888888889,38.583333333333336,800,44" transform="matrix(1,0,0,1,0,3060)"></path><path d="M10,10C19.02777777777778,11.666666666666666,33.19444444444444,24.25,53.333333333333336,18C73.47222222222223,11.75,84.44444444444446,-21.458333333333332,106.66666666666667,-20C128.88888888888889,-18.541666666666668,137.77777777777777,22.708333333333332,160,25C182.22222222222223,27.291666666666668,191.11111111111111,-10.875,213.33333333333334,-9C235.55555555555557,-7.125,244.44444444444446,31.916666666666668,266.6666666666667,34C288.8888888888889,36.083333333333336,297.77777777777777,2.25,320,1C342.22222222222223,-0.25,351.11111111111114,27.583333333333332,373.33333333333337,28C395.5555555555556,28.416666666666668,404.44444444444446,-0.125,426.6666666666667,3C448.8888888888889,6.125,457.77777777777777,41.75,480,43C502.22222222222223,44.25,511.11111111111114,7.541666666666666,533.3333333333334,9C555.5555555555557,10.458333333333334,564.4444444444446,51.666666666666664,586.6666666666667,50C608.8888888888889,48.333333333333336,617.7777777777778,0.375,640,1C662.2222222222222,1.625,671.1111111111111,49.458333333333336,693.3333333333334,53C715.5555555555557,56.541666666666664,724.4444444444446,19.875,746.6666666666667,18C768.8888888888889,16.125,788.8888888888889,38.583333333333336,800,44" transform="matrix(1,0,0,1,0,3015)"></path><path d="M10,10C19.02777777777778,11.666666666666666,33.19444444444444,24.25,53.333333333333336,18C73.47222222222223,11.75,84.44444444444446,-21.458333333333332,106.66666666666667,-20C128.88888888888889,-18.541666666666668,137.77777777777777,22.708333333333332,160,25C182.22222222222223,27.291666666666668,191.11111111111111,-10.875,213.33333333333334,-9C235.55555555555557,-7.125,244.44444444444446,31.916666666666668,266.6666666666667,34C288.8888888888889,36.083333333333336,297.77777777777777,2.25,320,1C342.22222222222223,-0.25,351.11111111111114,27.583333333333332,373.33333333333337,28C395.5555555555556,28.416666666666668,404.44444444444446,-0.125,426.6666666666667,3C448.8888888888889,6.125,457.77777777777777,41.75,480,43C502.22222222222223,44.25,511.11111111111114,7.541666666666666,533.3333333333334,9C555.5555555555557,10.458333333333334,564.4444444444446,51.666666666666664,586.6666666666667,50C608.8888888888889,48.333333333333336,617.7777777777778,0.375,640,1C662.2222222222222,1.625,671.1111111111111,49.458333333333336,693.3333333333334,53C715.5555555555557,56.541666666666664,724.4444444444446,19.875,746.6666666666667,18C768.8888888888889,16.125,788.8888888888889,38.583333333333336,800,44" transform="matrix(1,0,0,1,0,2970)"></path><path d="M10,10C19.02777777777778,11.666666666666666,33.19444444444444,24.25,53.333333333333336,18C73.47222222222223,11.75,84.44444444444446,-21.458333333333332,106.66666666666667,-20C128.88888888888889,-18.541666666666668,137.77777777777777,22.708333333333332,160,25C182.22222222222223,27.291666666666668,191.11111111111111,-10.875,213.33333333333334,-9C235.55555555555557,-7.125,244.44444444444446,31.916666666666668,266.6666666666667,34C288.8888888888889,36.083333333333336,297.77777777777777,2.25,320,1C342.22222222222223,-0.25,351.11111111111114,27.583333333333332,373.33333333333337,28C395.5555555555556,28.416666666666668,404.44444444444446,-0.125,426.6666666666667,3C448.8888888888889,6.125,457.77777777777777,41.75,480,43C502.22222222222223,44.25,511.11111111111114,7.541666666666666,533.3333333333334,9C555.5555555555557,10.458333333333334,564.4444444444446,51.666666666666664,586.6666666666667,50C608.8888888888889,48.333333333333336,617.7777777777778,0.375,640,1C662.2222222222222,1.625,671.1111111111111,49.458333333333336,693.3333333333334,53C715.5555555555557,56.541666666666664,724.4444444444446,19.875,746.6666666666667,18C768.8888888888889,16.125,788.8888888888889,38.583333333333336,800,44" transform="matrix(1,0,0,1,0,2925)"></path><path d="M10,10C19.02777777777778,11.666666666666666,33.19444444444444,24.25,53.333333333333336,18C73.47222222222223,11.75,84.44444444444446,-21.458333333333332,106.66666666666667,-20C128.88888888888889,-18.541666666666668,137.77777777777777,22.708333333333332,160,25C182.22222222222223,27.291666666666668,191.11111111111111,-10.875,213.33333333333334,-9C235.55555555555557,-7.125,244.44444444444446,31.916666666666668,266.6666666666667,34C288.8888888888889,36.083333333333336,297.77777777777777,2.25,320,1C342.22222222222223,-0.25,351.11111111111114,27.583333333333332,373.33333333333337,28C395.5555555555556,28.416666666666668,404.44444444444446,-0.125,426.6666666666667,3C448.8888888888889,6.125,457.77777777777777,41.75,480,43C502.22222222222223,44.25,511.11111111111114,7.541666666666666,533.3333333333334,9C555.5555555555557,10.458333333333334,564.4444444444446,51.666666666666664,586.6666666666667,50C608.8888888888889,48.333333333333336,617.7777777777778,0.375,640,1C662.2222222222222,1.625,671.1111111111111,49.458333333333336,693.3333333333334,53C715.5555555555557,56.541666666666664,724.4444444444446,19.875,746.6666666666667,18C768.8888888888889,16.125,788.8888888888889,38.583333333333336,800,44" transform="matrix(1,0,0,1,0,2880)"></path><path d="M10,10C19.02777777777778,11.666666666666666,33.19444444444444,24.25,53.333333333333336,18C73.47222222222223,11.75,84.44444444444446,-21.458333333333332,106.66666666666667,-20C128.88888888888889,-18.541666666666668,137.77777777777777,22.708333333333332,160,25C182.22222222222223,27.291666666666668,191.11111111111111,-10.875,213.33333333333334,-9C235.55555555555557,-7.125,244.44444444444446,31.916666666666668,266.6666666666667,34C288.8888888888889,36.083333333333336,297.77777777777777,2.25,320,1C342.22222222222223,-0.25,351.11111111111114,27.583333333333332,373.33333333333337,28C395.5555555555556,28.416666666666668,404.44444444444446,-0.125,426.6666666666667,3C448.8888888888889,6.125,457.77777777777777,41.75,480,43C502.22222222222223,44.25,511.11111111111114,7.541666666666666,533.3333333333334,9C555.5555555555557,10.458333333333334,564.4444444444446,51.666666666666664,586.6666666666667,50C608.8888888888889,48.333333333333336,617.7777777777778,0.375,640,1C662.2222222222222,1.625,671.1111111111111,49.458333333333336,693.3333333333334,53C715.5555555555557,56.541666666666664,724.4444444444446,19.875,746.6666666666667,18C768.8888888888889,16.125,788.8888888888889,38.583333333333336,800,44" transform="matrix(1,0,0,1,0,2835)"></path><path d="M10,10C19.02777777777778,11.666666666666666,33.19444444444444,24.25,53.333333333333336,18C73.47222222222223,11.75,84.44444444444446,-21.458333333333332,106.66666666666667,-20C128.88888888888889,-18.541666666666668,137.77777777777777,22.708333333333332,160,25C182.22222222222223,27.291666666666668,191.11111111111111,-10.875,213.33333333333334,-9C235.55555555555557,-7.125,244.44444444444446,31.916666666666668,266.6666666666667,34C288.8888888888889,36.083333333333336,297.77777777777777,2.25,320,1C342.22222222222223,-0.25,351.11111111111114,27.583333333333332,373.33333333333337,28C395.5555555555556,28.416666666666668,404.44444444444446,-0.125,426.6666666666667,3C448.8888888888889,6.125,457.77777777777777,41.75,480,43C502.22222222222223,44.25,511.11111111111114,7.541666666666666,533.3333333333334,9C555.5555555555557,10.458333333333334,564.4444444444446,51.666666666666664,586.6666666666667,50C608.8888888888889,48.333333333333336,617.7777777777778,0.375,640,1C662.2222222222222,1.625,671.1111111111111,49.458333333333336,693.3333333333334,53C715.5555555555557,56.541666666666664,724.4444444444446,19.875,746.6666666666667,18C768.8888888888889,16.125,788.8888888888889,38.583333333333336,800,44" transform="matrix(1,0,0,1,0,2790)"></path><path d="M10,10C19.02777777777778,11.666666666666666,33.19444444444444,24.25,53.333333333333336,18C73.47222222222223,11.75,84.44444444444446,-21.458333333333332,106.66666666666667,-20C128.88888888888889,-18.541666666666668,137.77777777777777,22.708333333333332,160,25C182.22222222222223,27.291666666666668,191.11111111111111,-10.875,213.33333333333334,-9C235.55555555555557,-7.125,244.44444444444446,31.916666666666668,266.6666666666667,34C288.8888888888889,36.083333333333336,297.77777777777777,2.25,320,1C342.22222222222223,-0.25,351.11111111111114,27.583333333333332,373.33333333333337,28C395.5555555555556,28.416666666666668,404.44444444444446,-0.125,426.6666666666667,3C448.8888888888889,6.125,457.77777777777777,41.75,480,43C502.22222222222223,44.25,511.11111111111114,7.541666666666666,533.3333333333334,9C555.5555555555557,10.458333333333334,564.4444444444446,51.666666666666664,586.6666666666667,50C608.8888888888889,48.333333333333336,617.7777777777778,0.375,640,1C662.2222222222222,1.625,671.1111111111111,49.458333333333336,693.3333333333334,53C715.5555555555557,56.541666666666664,724.4444444444446,19.875,746.6666666666667,18C768.8888888888889,16.125,788.8888888888889,38.583333333333336,800,44" transform="matrix(1,0,0,1,0,2745)"></path><path d="M10,10C19.02777777777778,11.666666666666666,33.19444444444444,24.25,53.333333333333336,18C73.47222222222223,11.75,84.44444444444446,-21.458333333333332,106.66666666666667,-20C128.88888888888889,-18.541666666666668,137.77777777777777,22.708333333333332,160,25C182.22222222222223,27.291666666666668,191.11111111111111,-10.875,213.33333333333334,-9C235.55555555555557,-7.125,244.44444444444446,31.916666666666668,266.6666666666667,34C288.8888888888889,36.083333333333336,297.77777777777777,2.25,320,1C342.22222222222223,-0.25,351.11111111111114,27.583333333333332,373.33333333333337,28C395.5555555555556,28.416666666666668,404.44444444444446,-0.125,426.6666666666667,3C448.8888888888889,6.125,457.77777777777777,41.75,480,43C502.22222222222223,44.25,511.11111111111114,7.541666666666666,533.3333333333334,9C555.5555555555557,10.458333333333334,564.4444444444446,51.666666666666664,586.6666666666667,50C608.8888888888889,48.333333333333336,617.7777777777778,0.375,640,1C662.2222222222222,1.625,671.1111111111111,49.458333333333336,693.3333333333334,53C715.5555555555557,56.541666666666664,724.4444444444446,19.875,746.6666666666667,18C768.8888888888889,16.125,788.8888888888889,38.583333333333336,800,44" transform="matrix(1,0,0,1,0,2700)"></path><path d="M10,10C19.02777777777778,11.666666666666666,33.19444444444444,24.25,53.333333333333336,18C73.47222222222223,11.75,84.44444444444446,-21.458333333333332,106.66666666666667,-20C128.88888888888889,-18.541666666666668,137.77777777777777,22.708333333333332,160,25C182.22222222222223,27.291666666666668,191.11111111111111,-10.875,213.33333333333334,-9C235.55555555555557,-7.125,244.44444444444446,31.916666666666668,266.6666666666667,34C288.8888888888889,36.083333333333336,297.77777777777777,2.25,320,1C342.22222222222223,-0.25,351.11111111111114,27.583333333333332,373.33333333333337,28C395.5555555555556,28.416666666666668,404.44444444444446,-0.125,426.6666666666667,3C448.8888888888889,6.125,457.77777777777777,41.75,480,43C502.22222222222223,44.25,511.11111111111114,7.541666666666666,533.3333333333334,9C555.5555555555557,10.458333333333334,564.4444444444446,51.666666666666664,586.6666666666667,50C608.8888888888889,48.333333333333336,617.7777777777778,0.375,640,1C662.2222222222222,1.625,671.1111111111111,49.458333333333336,693.3333333333334,53C715.5555555555557,56.541666666666664,724.4444444444446,19.875,746.6666666666667,18C768.8888888888889,16.125,788.8888888888889,38.583333333333336,800,44" transform="matrix(1,0,0,1,0,2655)"></path><path d="M10,10C19.02777777777778,11.666666666666666,33.19444444444444,24.25,53.333333333333336,18C73.47222222222223,11.75,84.44444444444446,-21.458333333333332,106.66666666666667,-20C128.88888888888889,-18.541666666666668,137.77777777777777,22.708333333333332,160,25C182.22222222222223,27.291666666666668,191.11111111111111,-10.875,213.33333333333334,-9C235.55555555555557,-7.125,244.44444444444446,31.916666666666668,266.6666666666667,34C288.8888888888889,36.083333333333336,297.77777777777777,2.25,320,1C342.22222222222223,-0.25,351.11111111111114,27.583333333333332,373.33333333333337,28C395.5555555555556,28.416666666666668,404.44444444444446,-0.125,426.6666666666667,3C448.8888888888889,6.125,457.77777777777777,41.75,480,43C502.22222222222223,44.25,511.11111111111114,7.541666666666666,533.3333333333334,9C555.5555555555557,10.458333333333334,564.4444444444446,51.666666666666664,586.6666666666667,50C608.8888888888889,48.333333333333336,617.7777777777778,0.375,640,1C662.2222222222222,1.625,671.1111111111111,49.458333333333336,693.3333333333334,53C715.5555555555557,56.541666666666664,724.4444444444446,19.875,746.6666666666667,18C768.8888888888889,16.125,788.8888888888889,38.583333333333336,800,44" transform="matrix(1,0,0,1,0,2610)"></path><path d="M10,10C19.02777777777778,11.666666666666666,33.19444444444444,24.25,53.333333333333336,18C73.47222222222223,11.75,84.44444444444446,-21.458333333333332,106.66666666666667,-20C128.88888888888889,-18.541666666666668,137.77777777777777,22.708333333333332,160,25C182.22222222222223,27.291666666666668,191.11111111111111,-10.875,213.33333333333334,-9C235.55555555555557,-7.125,244.44444444444446,31.916666666666668,266.6666666666667,34C288.8888888888889,36.083333333333336,297.77777777777777,2.25,320,1C342.22222222222223,-0.25,351.11111111111114,27.583333333333332,373.33333333333337,28C395.5555555555556,28.416666666666668,404.44444444444446,-0.125,426.6666666666667,3C448.8888888888889,6.125,457.77777777777777,41.75,480,43C502.22222222222223,44.25,511.11111111111114,7.541666666666666,533.3333333333334,9C555.5555555555557,10.458333333333334,564.4444444444446,51.666666666666664,586.6666666666667,50C608.8888888888889,48.333333333333336,617.7777777777778,0.375,640,1C662.2222222222222,1.625,671.1111111111111,49.458333333333336,693.3333333333334,53C715.5555555555557,56.541666666666664,724.4444444444446,19.875,746.6666666666667,18C768.8888888888889,16.125,788.8888888888889,38.583333333333336,800,44" transform="matrix(1,0,0,1,0,2565)"></path><path d="M10,10C19.02777777777778,11.666666666666666,33.19444444444444,24.25,53.333333333333336,18C73.47222222222223,11.75,84.44444444444446,-21.458333333333332,106.66666666666667,-20C128.88888888888889,-18.541666666666668,137.77777777777777,22.708333333333332,160,25C182.22222222222223,27.291666666666668,191.11111111111111,-10.875,213.33333333333334,-9C235.55555555555557,-7.125,244.44444444444446,31.916666666666668,266.6666666666667,34C288.8888888888889,36.083333333333336,297.77777777777777,2.25,320,1C342.22222222222223,-0.25,351.11111111111114,27.583333333333332,373.33333333333337,28C395.5555555555556,28.416666666666668,404.44444444444446,-0.125,426.6666666666667,3C448.8888888888889,6.125,457.77777777777777,41.75,480,43C502.22222222222223,44.25,511.11111111111114,7.541666666666666,533.3333333333334,9C555.5555555555557,10.458333333333334,564.4444444444446,51.666666666666664,586.6666666666667,50C608.8888888888889,48.333333333333336,617.7777777777778,0.375,640,1C662.2222222222222,1.625,671.1111111111111,49.458333333333336,693.3333333333334,53C715.5555555555557,56.541666666666664,724.4444444444446,19.875,746.6666666666667,18C768.8888888888889,16.125,788.8888888888889,38.583333333333336,800,44" transform="matrix(1,0,0,1,0,2520)"></path><path d="M10,10C19.02777777777778,11.666666666666666,33.19444444444444,24.25,53.333333333333336,18C73.47222222222223,11.75,84.44444444444446,-21.458333333333332,106.66666666666667,-20C128.88888888888889,-18.541666666666668,137.77777777777777,22.708333333333332,160,25C182.22222222222223,27.291666666666668,191.11111111111111,-10.875,213.33333333333334,-9C235.55555555555557,-7.125,244.44444444444446,31.916666666666668,266.6666666666667,34C288.8888888888889,36.083333333333336,297.77777777777777,2.25,320,1C342.22222222222223,-0.25,351.11111111111114,27.583333333333332,373.33333333333337,28C395.5555555555556,28.416666666666668,404.44444444444446,-0.125,426.6666666666667,3C448.8888888888889,6.125,457.77777777777777,41.75,480,43C502.22222222222223,44.25,511.11111111111114,7.541666666666666,533.3333333333334,9C555.5555555555557,10.458333333333334,564.4444444444446,51.666666666666664,586.6666666666667,50C608.8888888888889,48.333333333333336,617.7777777777778,0.375,640,1C662.2222222222222,1.625,671.1111111111111,49.458333333333336,693.3333333333334,53C715.5555555555557,56.541666666666664,724.4444444444446,19.875,746.6666666666667,18C768.8888888888889,16.125,788.8888888888889,38.583333333333336,800,44" transform="matrix(1,0,0,1,0,2475)"></path><path d="M10,10C19.02777777777778,11.666666666666666,33.19444444444444,24.25,53.333333333333336,18C73.47222222222223,11.75,84.44444444444446,-21.458333333333332,106.66666666666667,-20C128.88888888888889,-18.541666666666668,137.77777777777777,22.708333333333332,160,25C182.22222222222223,27.291666666666668,191.11111111111111,-10.875,213.33333333333334,-9C235.55555555555557,-7.125,244.44444444444446,31.916666666666668,266.6666666666667,34C288.8888888888889,36.083333333333336,297.77777777777777,2.25,320,1C342.22222222222223,-0.25,351.11111111111114,27.583333333333332,373.33333333333337,28C395.5555555555556,28.416666666666668,404.44444444444446,-0.125,426.6666666666667,3C448.8888888888889,6.125,457.77777777777777,41.75,480,43C502.22222222222223,44.25,511.11111111111114,7.541666666666666,533.3333333333334,9C555.5555555555557,10.458333333333334,564.4444444444446,51.666666666666664,586.6666666666667,50C608.8888888888889,48.333333333333336,617.7777777777778,0.375,640,1C662.2222222222222,1.625,671.1111111111111,49.458333333333336,693.3333333333334,53C715.5555555555557,56.541666666666664,724.4444444444446,19.875,746.6666666666667,18C768.8888888888889,16.125,788.8888888888889,38.583333333333336,800,44" transform="matrix(1,0,0,1,0,2430)"></path><path d="M10,10C19.02777777777778,11.666666666666666,33.19444444444444,24.25,53.333333333333336,18C73.47222222222223,11.75,84.44444444444446,-21.458333333333332,106.66666666666667,-20C128.88888888888889,-18.541666666666668,137.77777777777777,22.708333333333332,160,25C182.22222222222223,27.291666666666668,191.11111111111111,-10.875,213.33333333333334,-9C235.55555555555557,-7.125,244.44444444444446,31.916666666666668,266.6666666666667,34C288.8888888888889,36.083333333333336,297.77777777777777,2.25,320,1C342.22222222222223,-0.25,351.11111111111114,27.583333333333332,373.33333333333337,28C395.5555555555556,28.416666666666668,404.44444444444446,-0.125,426.6666666666667,3C448.8888888888889,6.125,457.77777777777777,41.75,480,43C502.22222222222223,44.25,511.11111111111114,7.541666666666666,533.3333333333334,9C555.5555555555557,10.458333333333334,564.4444444444446,51.666666666666664,586.6666666666667,50C608.8888888888889,48.333333333333336,617.7777777777778,0.375,640,1C662.2222222222222,1.625,671.1111111111111,49.458333333333336,693.3333333333334,53C715.5555555555557,56.541666666666664,724.4444444444446,19.875,746.6666666666667,18C768.8888888888889,16.125,788.8888888888889,38.583333333333336,800,44" transform="matrix(1,0,0,1,0,2385)"></path><path d="M10,10C19.02777777777778,11.666666666666666,33.19444444444444,24.25,53.333333333333336,18C73.47222222222223,11.75,84.44444444444446,-21.458333333333332,106.66666666666667,-20C128.88888888888889,-18.541666666666668,137.77777777777777,22.708333333333332,160,25C182.22222222222223,27.291666666666668,191.11111111111111,-10.875,213.33333333333334,-9C235.55555555555557,-7.125,244.44444444444446,31.916666666666668,266.6666666666667,34C288.8888888888889,36.083333333333336,297.77777777777777,2.25,320,1C342.22222222222223,-0.25,351.11111111111114,27.583333333333332,373.33333333333337,28C395.5555555555556,28.416666666666668,404.44444444444446,-0.125,426.6666666666667,3C448.8888888888889,6.125,457.77777777777777,41.75,480,43C502.22222222222223,44.25,511.11111111111114,7.541666666666666,533.3333333333334,9C555.5555555555557,10.458333333333334,564.4444444444446,51.666666666666664,586.6666666666667,50C608.8888888888889,48.333333333333336,617.7777777777778,0.375,640,1C662.2222222222222,1.625,671.1111111111111,49.458333333333336,693.3333333333334,53C715.5555555555557,56.541666666666664,724.4444444444446,19.875,746.6666666666667,18C768.8888888888889,16.125,788.8888888888889,38.583333333333336,800,44" transform="matrix(1,0,0,1,0,2340)"></path><path d="M10,10C19.02777777777778,11.666666666666666,33.19444444444444,24.25,53.333333333333336,18C73.47222222222223,11.75,84.44444444444446,-21.458333333333332,106.66666666666667,-20C128.88888888888889,-18.541666666666668,137.77777777777777,22.708333333333332,160,25C182.22222222222223,27.291666666666668,191.11111111111111,-10.875,213.33333333333334,-9C235.55555555555557,-7.125,244.44444444444446,31.916666666666668,266.6666666666667,34C288.8888888888889,36.083333333333336,297.77777777777777,2.25,320,1C342.22222222222223,-0.25,351.11111111111114,27.583333333333332,373.33333333333337,28C395.5555555555556,28.416666666666668,404.44444444444446,-0.125,426.6666666666667,3C448.8888888888889,6.125,457.77777777777777,41.75,480,43C502.22222222222223,44.25,511.11111111111114,7.541666666666666,533.3333333333334,9C555.5555555555557,10.458333333333334,564.4444444444446,51.666666666666664,586.6666666666667,50C608.8888888888889,48.333333333333336,617.7777777777778,0.375,640,1C662.2222222222222,1.625,671.1111111111111,49.458333333333336,693.3333333333334,53C715.5555555555557,56.541666666666664,724.4444444444446,19.875,746.6666666666667,18C768.8888888888889,16.125,788.8888888888889,38.583333333333336,800,44" transform="matrix(1,0,0,1,0,2295)"></path><path d="M10,10C19.02777777777778,11.666666666666666,33.19444444444444,24.25,53.333333333333336,18C73.47222222222223,11.75,84.44444444444446,-21.458333333333332,106.66666666666667,-20C128.88888888888889,-18.541666666666668,137.77777777777777,22.708333333333332,160,25C182.22222222222223,27.291666666666668,191.11111111111111,-10.875,213.33333333333334,-9C235.55555555555557,-7.125,244.44444444444446,31.916666666666668,266.6666666666667,34C288.8888888888889,36.083333333333336,297.77777777777777,2.25,320,1C342.22222222222223,-0.25,351.11111111111114,27.583333333333332,373.33333333333337,28C395.5555555555556,28.416666666666668,404.44444444444446,-0.125,426.6666666666667,3C448.8888888888889,6.125,457.77777777777777,41.75,480,43C502.22222222222223,44.25,511.11111111111114,7.541666666666666,533.3333333333334,9C555.5555555555557,10.458333333333334,564.4444444444446,51.666666666666664,586.6666666666667,50C608.8888888888889,48.333333333333336,617.7777777777778,0.375,640,1C662.2222222222222,1.625,671.1111111111111,49.458333333333336,693.3333333333334,53C715.5555555555557,56.541666666666664,724.4444444444446,19.875,746.6666666666667,18C768.8888888888889,16.125,788.8888888888889,38.583333333333336,800,44" transform="matrix(1,0,0,1,0,2250)"></path><path d="M10,10C19.02777777777778,11.666666666666666,33.19444444444444,24.25,53.333333333333336,18C73.47222222222223,11.75,84.44444444444446,-21.458333333333332,106.66666666666667,-20C128.88888888888889,-18.541666666666668,137.77777777777777,22.708333333333332,160,25C182.22222222222223,27.291666666666668,191.11111111111111,-10.875,213.33333333333334,-9C235.55555555555557,-7.125,244.44444444444446,31.916666666666668,266.6666666666667,34C288.8888888888889,36.083333333333336,297.77777777777777,2.25,320,1C342.22222222222223,-0.25,351.11111111111114,27.583333333333332,373.33333333333337,28C395.5555555555556,28.416666666666668,404.44444444444446,-0.125,426.6666666666667,3C448.8888888888889,6.125,457.77777777777777,41.75,480,43C502.22222222222223,44.25,511.11111111111114,7.541666666666666,533.3333333333334,9C555.5555555555557,10.458333333333334,564.4444444444446,51.666666666666664,586.6666666666667,50C608.8888888888889,48.333333333333336,617.7777777777778,0.375,640,1C662.2222222222222,1.625,671.1111111111111,49.458333333333336,693.3333333333334,53C715.5555555555557,56.541666666666664,724.4444444444446,19.875,746.6666666666667,18C768.8888888888889,16.125,788.8888888888889,38.583333333333336,800,44" transform="matrix(1,0,0,1,0,2205)"></path><path d="M10,10C19.02777777777778,11.666666666666666,33.19444444444444,24.25,53.333333333333336,18C73.47222222222223,11.75,84.44444444444446,-21.458333333333332,106.66666666666667,-20C128.88888888888889,-18.541666666666668,137.77777777777777,22.708333333333332,160,25C182.22222222222223,27.291666666666668,191.11111111111111,-10.875,213.33333333333334,-9C235.55555555555557,-7.125,244.44444444444446,31.916666666666668,266.6666666666667,34C288.8888888888889,36.083333333333336,297.77777777777777,2.25,320,1C342.22222222222223,-0.25,351.11111111111114,27.583333333333332,373.33333333333337,28C395.5555555555556,28.416666666666668,404.44444444444446,-0.125,426.6666666666667,3C448.8888888888889,6.125,457.77777777777777,41.75,480,43C502.22222222222223,44.25,511.11111111111114,7.541666666666666,533.3333333333334,9C555.5555555555557,10.458333333333334,564.4444444444446,51.666666666666664,586.6666666666667,50C608.8888888888889,48.333333333333336,617.7777777777778,0.375,640,1C662.2222222222222,1.625,671.1111111111111,49.458333333333336,693.3333333333334,53C715.5555555555557,56.541666666666664,724.4444444444446,19.875,746.6666666666667,18C768.8888888888889,16.125,788.8888888888889,38.583333333333336,800,44" transform="matrix(1,0,0,1,0,2160)"></path><path d="M10,10C19.02777777777778,11.666666666666666,33.19444444444444,24.25,53.333333333333336,18C73.47222222222223,11.75,84.44444444444446,-21.458333333333332,106.66666666666667,-20C128.88888888888889,-18.541666666666668,137.77777777777777,22.708333333333332,160,25C182.22222222222223,27.291666666666668,191.11111111111111,-10.875,213.33333333333334,-9C235.55555555555557,-7.125,244.44444444444446,31.916666666666668,266.6666666666667,34C288.8888888888889,36.083333333333336,297.77777777777777,2.25,320,1C342.22222222222223,-0.25,351.11111111111114,27.583333333333332,373.33333333333337,28C395.5555555555556,28.416666666666668,404.44444444444446,-0.125,426.6666666666667,3C448.8888888888889,6.125,457.77777777777777,41.75,480,43C502.22222222222223,44.25,511.11111111111114,7.541666666666666,533.3333333333334,9C555.5555555555557,10.458333333333334,564.4444444444446,51.666666666666664,586.6666666666667,50C608.8888888888889,48.333333333333336,617.7777777777778,0.375,640,1C662.2222222222222,1.625,671.1111111111111,49.458333333333336,693.3333333333334,53C715.5555555555557,56.541666666666664,724.4444444444446,19.875,746.6666666666667,18C768.8888888888889,16.125,788.8888888888889,38.583333333333336,800,44" transform="matrix(1,0,0,1,0,2115)"></path><path d="M10,10C19.02777777777778,11.666666666666666,33.19444444444444,24.25,53.333333333333336,18C73.47222222222223,11.75,84.44444444444446,-21.458333333333332,106.66666666666667,-20C128.88888888888889,-18.541666666666668,137.77777777777777,22.708333333333332,160,25C182.22222222222223,27.291666666666668,191.11111111111111,-10.875,213.33333333333334,-9C235.55555555555557,-7.125,244.44444444444446,31.916666666666668,266.6666666666667,34C288.8888888888889,36.083333333333336,297.77777777777777,2.25,320,1C342.22222222222223,-0.25,351.11111111111114,27.583333333333332,373.33333333333337,28C395.5555555555556,28.416666666666668,404.44444444444446,-0.125,426.6666666666667,3C448.8888888888889,6.125,457.77777777777777,41.75,480,43C502.22222222222223,44.25,511.11111111111114,7.541666666666666,533.3333333333334,9C555.5555555555557,10.458333333333334,564.4444444444446,51.666666666666664,586.6666666666667,50C608.8888888888889,48.333333333333336,617.7777777777778,0.375,640,1C662.2222222222222,1.625,671.1111111111111,49.458333333333336,693.3333333333334,53C715.5555555555557,56.541666666666664,724.4444444444446,19.875,746.6666666666667,18C768.8888888888889,16.125,788.8888888888889,38.583333333333336,800,44" transform="matrix(1,0,0,1,0,2070)"></path><path d="M10,10C19.02777777777778,11.666666666666666,33.19444444444444,24.25,53.333333333333336,18C73.47222222222223,11.75,84.44444444444446,-21.458333333333332,106.66666666666667,-20C128.88888888888889,-18.541666666666668,137.77777777777777,22.708333333333332,160,25C182.22222222222223,27.291666666666668,191.11111111111111,-10.875,213.33333333333334,-9C235.55555555555557,-7.125,244.44444444444446,31.916666666666668,266.6666666666667,34C288.8888888888889,36.083333333333336,297.77777777777777,2.25,320,1C342.22222222222223,-0.25,351.11111111111114,27.583333333333332,373.33333333333337,28C395.5555555555556,28.416666666666668,404.44444444444446,-0.125,426.6666666666667,3C448.8888888888889,6.125,457.77777777777777,41.75,480,43C502.22222222222223,44.25,511.11111111111114,7.541666666666666,533.3333333333334,9C555.5555555555557,10.458333333333334,564.4444444444446,51.666666666666664,586.6666666666667,50C608.8888888888889,48.333333333333336,617.7777777777778,0.375,640,1C662.2222222222222,1.625,671.1111111111111,49.458333333333336,693.3333333333334,53C715.5555555555557,56.541666666666664,724.4444444444446,19.875,746.6666666666667,18C768.8888888888889,16.125,788.8888888888889,38.583333333333336,800,44" transform="matrix(1,0,0,1,0,2025)"></path><path d="M10,10C19.02777777777778,11.666666666666666,33.19444444444444,24.25,53.333333333333336,18C73.47222222222223,11.75,84.44444444444446,-21.458333333333332,106.66666666666667,-20C128.88888888888889,-18.541666666666668,137.77777777777777,22.708333333333332,160,25C182.22222222222223,27.291666666666668,191.11111111111111,-10.875,213.33333333333334,-9C235.55555555555557,-7.125,244.44444444444446,31.916666666666668,266.6666666666667,34C288.8888888888889,36.083333333333336,297.77777777777777,2.25,320,1C342.22222222222223,-0.25,351.11111111111114,27.583333333333332,373.33333333333337,28C395.5555555555556,28.416666666666668,404.44444444444446,-0.125,426.6666666666667,3C448.8888888888889,6.125,457.77777777777777,41.75,480,43C502.22222222222223,44.25,511.11111111111114,7.541666666666666,533.3333333333334,9C555.5555555555557,10.458333333333334,564.4444444444446,51.666666666666664,586.6666666666667,50C608.8888888888889,48.333333333333336,617.7777777777778,0.375,640,1C662.2222222222222,1.625,671.1111111111111,49.458333333333336,693.3333333333334,53C715.5555555555557,56.541666666666664,724.4444444444446,19.875,746.6666666666667,18C768.8888888888889,16.125,788.8888888888889,38.583333333333336,800,44" transform="matrix(1,0,0,1,0,1980)"></path><path d="M10,10C19.02777777777778,11.666666666666666,33.19444444444444,24.25,53.333333333333336,18C73.47222222222223,11.75,84.44444444444446,-21.458333333333332,106.66666666666667,-20C128.88888888888889,-18.541666666666668,137.77777777777777,22.708333333333332,160,25C182.22222222222223,27.291666666666668,191.11111111111111,-10.875,213.33333333333334,-9C235.55555555555557,-7.125,244.44444444444446,31.916666666666668,266.6666666666667,34C288.8888888888889,36.083333333333336,297.77777777777777,2.25,320,1C342.22222222222223,-0.25,351.11111111111114,27.583333333333332,373.33333333333337,28C395.5555555555556,28.416666666666668,404.44444444444446,-0.125,426.6666666666667,3C448.8888888888889,6.125,457.77777777777777,41.75,480,43C502.22222222222223,44.25,511.11111111111114,7.541666666666666,533.3333333333334,9C555.5555555555557,10.458333333333334,564.4444444444446,51.666666666666664,586.6666666666667,50C608.8888888888889,48.333333333333336,617.7777777777778,0.375,640,1C662.2222222222222,1.625,671.1111111111111,49.458333333333336,693.3333333333334,53C715.5555555555557,56.541666666666664,724.4444444444446,19.875,746.6666666666667,18C768.8888888888889,16.125,788.8888888888889,38.583333333333336,800,44" transform="matrix(1,0,0,1,0,1935)"></path><path d="M10,10C19.02777777777778,11.666666666666666,33.19444444444444,24.25,53.333333333333336,18C73.47222222222223,11.75,84.44444444444446,-21.458333333333332,106.66666666666667,-20C128.88888888888889,-18.541666666666668,137.77777777777777,22.708333333333332,160,25C182.22222222222223,27.291666666666668,191.11111111111111,-10.875,213.33333333333334,-9C235.55555555555557,-7.125,244.44444444444446,31.916666666666668,266.6666666666667,34C288.8888888888889,36.083333333333336,297.77777777777777,2.25,320,1C342.22222222222223,-0.25,351.11111111111114,27.583333333333332,373.33333333333337,28C395.5555555555556,28.416666666666668,404.44444444444446,-0.125,426.6666666666667,3C448.8888888888889,6.125,457.77777777777777,41.75,480,43C502.22222222222223,44.25,511.11111111111114,7.541666666666666,533.3333333333334,9C555.5555555555557,10.458333333333334,564.4444444444446,51.666666666666664,586.6666666666667,50C608.8888888888889,48.333333333333336,617.7777777777778,0.375,640,1C662.2222222222222,1.625,671.1111111111111,49.458333333333336,693.3333333333334,53C715.5555555555557,56.541666666666664,724.4444444444446,19.875,746.6666666666667,18C768.8888888888889,16.125,788.8888888888889,38.583333333333336,800,44" transform="matrix(1,0,0,1,0,1890)"></path><path d="M10,10C19.02777777777778,11.666666666666666,33.19444444444444,24.25,53.333333333333336,18C73.47222222222223,11.75,84.44444444444446,-21.458333333333332,106.66666666666667,-20C128.88888888888889,-18.541666666666668,137.77777777777777,22.708333333333332,160,25C182.22222222222223,27.291666666666668,191.11111111111111,-10.875,213.33333333333334,-9C235.55555555555557,-7.125,244.44444444444446,31.916666666666668,266.6666666666667,34C288.8888888888889,36.083333333333336,297.77777777777777,2.25,320,1C342.22222222222223,-0.25,351.11111111111114,27.583333333333332,373.33333333333337,28C395.5555555555556,28.416666666666668,404.44444444444446,-0.125,426.6666666666667,3C448.8888888888889,6.125,457.77777777777777,41.75,480,43C502.22222222222223,44.25,511.11111111111114,7.541666666666666,533.3333333333334,9C555.5555555555557,10.458333333333334,564.4444444444446,51.666666666666664,586.6666666666667,50C608.8888888888889,48.333333333333336,617.7777777777778,0.375,640,1C662.2222222222222,1.625,671.1111111111111,49.458333333333336,693.3333333333334,53C715.5555555555557,56.541666666666664,724.4444444444446,19.875,746.6666666666667,18C768.8888888888889,16.125,788.8888888888889,38.583333333333336,800,44" transform="matrix(1,0,0,1,0,1845)"></path><path d="M10,10C19.02777777777778,11.666666666666666,33.19444444444444,24.25,53.333333333333336,18C73.47222222222223,11.75,84.44444444444446,-21.458333333333332,106.66666666666667,-20C128.88888888888889,-18.541666666666668,137.77777777777777,22.708333333333332,160,25C182.22222222222223,27.291666666666668,191.11111111111111,-10.875,213.33333333333334,-9C235.55555555555557,-7.125,244.44444444444446,31.916666666666668,266.6666666666667,34C288.8888888888889,36.083333333333336,297.77777777777777,2.25,320,1C342.22222222222223,-0.25,351.11111111111114,27.583333333333332,373.33333333333337,28C395.5555555555556,28.416666666666668,404.44444444444446,-0.125,426.6666666666667,3C448.8888888888889,6.125,457.77777777777777,41.75,480,43C502.22222222222223,44.25,511.11111111111114,7.541666666666666,533.3333333333334,9C555.5555555555557,10.458333333333334,564.4444444444446,51.666666666666664,586.6666666666667,50C608.8888888888889,48.333333333333336,617.7777777777778,0.375,640,1C662.2222222222222,1.625,671.1111111111111,49.458333333333336,693.3333333333334,53C715.5555555555557,56.541666666666664,724.4444444444446,19.875,746.6666666666667,18C768.8888888888889,16.125,788.8888888888889,38.583333333333336,800,44" transform="matrix(1,0,0,1,0,1800)"></path><path d="M10,10C19.02777777777778,11.666666666666666,33.19444444444444,24.25,53.333333333333336,18C73.47222222222223,11.75,84.44444444444446,-21.458333333333332,106.66666666666667,-20C128.88888888888889,-18.541666666666668,137.77777777777777,22.708333333333332,160,25C182.22222222222223,27.291666666666668,191.11111111111111,-10.875,213.33333333333334,-9C235.55555555555557,-7.125,244.44444444444446,31.916666666666668,266.6666666666667,34C288.8888888888889,36.083333333333336,297.77777777777777,2.25,320,1C342.22222222222223,-0.25,351.11111111111114,27.583333333333332,373.33333333333337,28C395.5555555555556,28.416666666666668,404.44444444444446,-0.125,426.6666666666667,3C448.8888888888889,6.125,457.77777777777777,41.75,480,43C502.22222222222223,44.25,511.11111111111114,7.541666666666666,533.3333333333334,9C555.5555555555557,10.458333333333334,564.4444444444446,51.666666666666664,586.6666666666667,50C608.8888888888889,48.333333333333336,617.7777777777778,0.375,640,1C662.2222222222222,1.625,671.1111111111111,49.458333333333336,693.3333333333334,53C715.5555555555557,56.541666666666664,724.4444444444446,19.875,746.6666666666667,18C768.8888888888889,16.125,788.8888888888889,38.583333333333336,800,44" transform="matrix(1,0,0,1,0,1755)"></path><path d="M10,10C19.02777777777778,11.666666666666666,33.19444444444444,24.25,53.333333333333336,18C73.47222222222223,11.75,84.44444444444446,-21.458333333333332,106.66666666666667,-20C128.88888888888889,-18.541666666666668,137.77777777777777,22.708333333333332,160,25C182.22222222222223,27.291666666666668,191.11111111111111,-10.875,213.33333333333334,-9C235.55555555555557,-7.125,244.44444444444446,31.916666666666668,266.6666666666667,34C288.8888888888889,36.083333333333336,297.77777777777777,2.25,320,1C342.22222222222223,-0.25,351.11111111111114,27.583333333333332,373.33333333333337,28C395.5555555555556,28.416666666666668,404.44444444444446,-0.125,426.6666666666667,3C448.8888888888889,6.125,457.77777777777777,41.75,480,43C502.22222222222223,44.25,511.11111111111114,7.541666666666666,533.3333333333334,9C555.5555555555557,10.458333333333334,564.4444444444446,51.666666666666664,586.6666666666667,50C608.8888888888889,48.333333333333336,617.7777777777778,0.375,640,1C662.2222222222222,1.625,671.1111111111111,49.458333333333336,693.3333333333334,53C715.5555555555557,56.541666666666664,724.4444444444446,19.875,746.6666666666667,18C768.8888888888889,16.125,788.8888888888889,38.583333333333336,800,44" transform="matrix(1,0,0,1,0,1710)"></path><path d="M10,10C19.02777777777778,11.666666666666666,33.19444444444444,24.25,53.333333333333336,18C73.47222222222223,11.75,84.44444444444446,-21.458333333333332,106.66666666666667,-20C128.88888888888889,-18.541666666666668,137.77777777777777,22.708333333333332,160,25C182.22222222222223,27.291666666666668,191.11111111111111,-10.875,213.33333333333334,-9C235.55555555555557,-7.125,244.44444444444446,31.916666666666668,266.6666666666667,34C288.8888888888889,36.083333333333336,297.77777777777777,2.25,320,1C342.22222222222223,-0.25,351.11111111111114,27.583333333333332,373.33333333333337,28C395.5555555555556,28.416666666666668,404.44444444444446,-0.125,426.6666666666667,3C448.8888888888889,6.125,457.77777777777777,41.75,480,43C502.22222222222223,44.25,511.11111111111114,7.541666666666666,533.3333333333334,9C555.5555555555557,10.458333333333334,564.4444444444446,51.666666666666664,586.6666666666667,50C608.8888888888889,48.333333333333336,617.7777777777778,0.375,640,1C662.2222222222222,1.625,671.1111111111111,49.458333333333336,693.3333333333334,53C715.5555555555557,56.541666666666664,724.4444444444446,19.875,746.6666666666667,18C768.8888888888889,16.125,788.8888888888889,38.583333333333336,800,44" transform="matrix(1,0,0,1,0,1665)"></path><path d="M10,10C19.02777777777778,11.666666666666666,33.19444444444444,24.25,53.333333333333336,18C73.47222222222223,11.75,84.44444444444446,-21.458333333333332,106.66666666666667,-20C128.88888888888889,-18.541666666666668,137.77777777777777,22.708333333333332,160,25C182.22222222222223,27.291666666666668,191.11111111111111,-10.875,213.33333333333334,-9C235.55555555555557,-7.125,244.44444444444446,31.916666666666668,266.6666666666667,34C288.8888888888889,36.083333333333336,297.77777777777777,2.25,320,1C342.22222222222223,-0.25,351.11111111111114,27.583333333333332,373.33333333333337,28C395.5555555555556,28.416666666666668,404.44444444444446,-0.125,426.6666666666667,3C448.8888888888889,6.125,457.77777777777777,41.75,480,43C502.22222222222223,44.25,511.11111111111114,7.541666666666666,533.3333333333334,9C555.5555555555557,10.458333333333334,564.4444444444446,51.666666666666664,586.6666666666667,50C608.8888888888889,48.333333333333336,617.7777777777778,0.375,640,1C662.2222222222222,1.625,671.1111111111111,49.458333333333336,693.3333333333334,53C715.5555555555557,56.541666666666664,724.4444444444446,19.875,746.6666666666667,18C768.8888888888889,16.125,788.8888888888889,38.583333333333336,800,44" transform="matrix(1,0,0,1,0,1620)"></path><path d="M10,10C19.02777777777778,11.666666666666666,33.19444444444444,24.25,53.333333333333336,18C73.47222222222223,11.75,84.44444444444446,-21.458333333333332,106.66666666666667,-20C128.88888888888889,-18.541666666666668,137.77777777777777,22.708333333333332,160,25C182.22222222222223,27.291666666666668,191.11111111111111,-10.875,213.33333333333334,-9C235.55555555555557,-7.125,244.44444444444446,31.916666666666668,266.6666666666667,34C288.8888888888889,36.083333333333336,297.77777777777777,2.25,320,1C342.22222222222223,-0.25,351.11111111111114,27.583333333333332,373.33333333333337,28C395.5555555555556,28.416666666666668,404.44444444444446,-0.125,426.6666666666667,3C448.8888888888889,6.125,457.77777777777777,41.75,480,43C502.22222222222223,44.25,511.11111111111114,7.541666666666666,533.3333333333334,9C555.5555555555557,10.458333333333334,564.4444444444446,51.666666666666664,586.6666666666667,50C608.8888888888889,48.333333333333336,617.7777777777778,0.375,640,1C662.2222222222222,1.625,671.1111111111111,49.458333333333336,693.3333333333334,53C715.5555555555557,56.541666666666664,724.4444444444446,19.875,746.6666666666667,18C768.8888888888889,16.125,788.8888888888889,38.583333333333336,800,44" transform="matrix(1,0,0,1,0,1575)"></path><path d="M10,10C19.02777777777778,11.666666666666666,33.19444444444444,24.25,53.333333333333336,18C73.47222222222223,11.75,84.44444444444446,-21.458333333333332,106.66666666666667,-20C128.88888888888889,-18.541666666666668,137.77777777777777,22.708333333333332,160,25C182.22222222222223,27.291666666666668,191.11111111111111,-10.875,213.33333333333334,-9C235.55555555555557,-7.125,244.44444444444446,31.916666666666668,266.6666666666667,34C288.8888888888889,36.083333333333336,297.77777777777777,2.25,320,1C342.22222222222223,-0.25,351.11111111111114,27.583333333333332,373.33333333333337,28C395.5555555555556,28.416666666666668,404.44444444444446,-0.125,426.6666666666667,3C448.8888888888889,6.125,457.77777777777777,41.75,480,43C502.22222222222223,44.25,511.11111111111114,7.541666666666666,533.3333333333334,9C555.5555555555557,10.458333333333334,564.4444444444446,51.666666666666664,586.6666666666667,50C608.8888888888889,48.333333333333336,617.7777777777778,0.375,640,1C662.2222222222222,1.625,671.1111111111111,49.458333333333336,693.3333333333334,53C715.5555555555557,56.541666666666664,724.4444444444446,19.875,746.6666666666667,18C768.8888888888889,16.125,788.8888888888889,38.583333333333336,800,44" transform="matrix(1,0,0,1,0,1530)"></path><path d="M10,10C19.02777777777778,11.666666666666666,33.19444444444444,24.25,53.333333333333336,18C73.47222222222223,11.75,84.44444444444446,-21.458333333333332,106.66666666666667,-20C128.88888888888889,-18.541666666666668,137.77777777777777,22.708333333333332,160,25C182.22222222222223,27.291666666666668,191.11111111111111,-10.875,213.33333333333334,-9C235.55555555555557,-7.125,244.44444444444446,31.916666666666668,266.6666666666667,34C288.8888888888889,36.083333333333336,297.77777777777777,2.25,320,1C342.22222222222223,-0.25,351.11111111111114,27.583333333333332,373.33333333333337,28C395.5555555555556,28.416666666666668,404.44444444444446,-0.125,426.6666666666667,3C448.8888888888889,6.125,457.77777777777777,41.75,480,43C502.22222222222223,44.25,511.11111111111114,7.541666666666666,533.3333333333334,9C555.5555555555557,10.458333333333334,564.4444444444446,51.666666666666664,586.6666666666667,50C608.8888888888889,48.333333333333336,617.7777777777778,0.375,640,1C662.2222222222222,1.625,671.1111111111111,49.458333333333336,693.3333333333334,53C715.5555555555557,56.541666666666664,724.4444444444446,19.875,746.6666666666667,18C768.8888888888889,16.125,788.8888888888889,38.583333333333336,800,44" transform="matrix(1,0,0,1,0,1485)"></path><path d="M10,10C19.02777777777778,11.666666666666666,33.19444444444444,24.25,53.333333333333336,18C73.47222222222223,11.75,84.44444444444446,-21.458333333333332,106.66666666666667,-20C128.88888888888889,-18.541666666666668,137.77777777777777,22.708333333333332,160,25C182.22222222222223,27.291666666666668,191.11111111111111,-10.875,213.33333333333334,-9C235.55555555555557,-7.125,244.44444444444446,31.916666666666668,266.6666666666667,34C288.8888888888889,36.083333333333336,297.77777777777777,2.25,320,1C342.22222222222223,-0.25,351.11111111111114,27.583333333333332,373.33333333333337,28C395.5555555555556,28.416666666666668,404.44444444444446,-0.125,426.6666666666667,3C448.8888888888889,6.125,457.77777777777777,41.75,480,43C502.22222222222223,44.25,511.11111111111114,7.541666666666666,533.3333333333334,9C555.5555555555557,10.458333333333334,564.4444444444446,51.666666666666664,586.6666666666667,50C608.8888888888889,48.333333333333336,617.7777777777778,0.375,640,1C662.2222222222222,1.625,671.1111111111111,49.458333333333336,693.3333333333334,53C715.5555555555557,56.541666666666664,724.4444444444446,19.875,746.6666666666667,18C768.8888888888889,16.125,788.8888888888889,38.583333333333336,800,44" transform="matrix(1,0,0,1,0,1440)"></path><path d="M10,10C19.02777777777778,11.666666666666666,33.19444444444444,24.25,53.333333333333336,18C73.47222222222223,11.75,84.44444444444446,-21.458333333333332,106.66666666666667,-20C128.88888888888889,-18.541666666666668,137.77777777777777,22.708333333333332,160,25C182.22222222222223,27.291666666666668,191.11111111111111,-10.875,213.33333333333334,-9C235.55555555555557,-7.125,244.44444444444446,31.916666666666668,266.6666666666667,34C288.8888888888889,36.083333333333336,297.77777777777777,2.25,320,1C342.22222222222223,-0.25,351.11111111111114,27.583333333333332,373.33333333333337,28C395.5555555555556,28.416666666666668,404.44444444444446,-0.125,426.6666666666667,3C448.8888888888889,6.125,457.77777777777777,41.75,480,43C502.22222222222223,44.25,511.11111111111114,7.541666666666666,533.3333333333334,9C555.5555555555557,10.458333333333334,564.4444444444446,51.666666666666664,586.6666666666667,50C608.8888888888889,48.333333333333336,617.7777777777778,0.375,640,1C662.2222222222222,1.625,671.1111111111111,49.458333333333336,693.3333333333334,53C715.5555555555557,56.541666666666664,724.4444444444446,19.875,746.6666666666667,18C768.8888888888889,16.125,788.8888888888889,38.583333333333336,800,44" transform="matrix(1,0,0,1,0,1395)"></path><path d="M10,10C19.02777777777778,11.666666666666666,33.19444444444444,24.25,53.333333333333336,18C73.47222222222223,11.75,84.44444444444446,-21.458333333333332,106.66666666666667,-20C128.88888888888889,-18.541666666666668,137.77777777777777,22.708333333333332,160,25C182.22222222222223,27.291666666666668,191.11111111111111,-10.875,213.33333333333334,-9C235.55555555555557,-7.125,244.44444444444446,31.916666666666668,266.6666666666667,34C288.8888888888889,36.083333333333336,297.77777777777777,2.25,320,1C342.22222222222223,-0.25,351.11111111111114,27.583333333333332,373.33333333333337,28C395.5555555555556,28.416666666666668,404.44444444444446,-0.125,426.6666666666667,3C448.8888888888889,6.125,457.77777777777777,41.75,480,43C502.22222222222223,44.25,511.11111111111114,7.541666666666666,533.3333333333334,9C555.5555555555557,10.458333333333334,564.4444444444446,51.666666666666664,586.6666666666667,50C608.8888888888889,48.333333333333336,617.7777777777778,0.375,640,1C662.2222222222222,1.625,671.1111111111111,49.458333333333336,693.3333333333334,53C715.5555555555557,56.541666666666664,724.4444444444446,19.875,746.6666666666667,18C768.8888888888889,16.125,788.8888888888889,38.583333333333336,800,44" transform="matrix(1,0,0,1,0,1350)"></path><path d="M10,10C19.02777777777778,11.666666666666666,33.19444444444444,24.25,53.333333333333336,18C73.47222222222223,11.75,84.44444444444446,-21.458333333333332,106.66666666666667,-20C128.88888888888889,-18.541666666666668,137.77777777777777,22.708333333333332,160,25C182.22222222222223,27.291666666666668,191.11111111111111,-10.875,213.33333333333334,-9C235.55555555555557,-7.125,244.44444444444446,31.916666666666668,266.6666666666667,34C288.8888888888889,36.083333333333336,297.77777777777777,2.25,320,1C342.22222222222223,-0.25,351.11111111111114,27.583333333333332,373.33333333333337,28C395.5555555555556,28.416666666666668,404.44444444444446,-0.125,426.6666666666667,3C448.8888888888889,6.125,457.77777777777777,41.75,480,43C502.22222222222223,44.25,511.11111111111114,7.541666666666666,533.3333333333334,9C555.5555555555557,10.458333333333334,564.4444444444446,51.666666666666664,586.6666666666667,50C608.8888888888889,48.333333333333336,617.7777777777778,0.375,640,1C662.2222222222222,1.625,671.1111111111111,49.458333333333336,693.3333333333334,53C715.5555555555557,56.541666666666664,724.4444444444446,19.875,746.6666666666667,18C768.8888888888889,16.125,788.8888888888889,38.583333333333336,800,44" transform="matrix(1,0,0,1,0,1305)"></path><path d="M10,10C19.02777777777778,11.666666666666666,33.19444444444444,24.25,53.333333333333336,18C73.47222222222223,11.75,84.44444444444446,-21.458333333333332,106.66666666666667,-20C128.88888888888889,-18.541666666666668,137.77777777777777,22.708333333333332,160,25C182.22222222222223,27.291666666666668,191.11111111111111,-10.875,213.33333333333334,-9C235.55555555555557,-7.125,244.44444444444446,31.916666666666668,266.6666666666667,34C288.8888888888889,36.083333333333336,297.77777777777777,2.25,320,1C342.22222222222223,-0.25,351.11111111111114,27.583333333333332,373.33333333333337,28C395.5555555555556,28.416666666666668,404.44444444444446,-0.125,426.6666666666667,3C448.8888888888889,6.125,457.77777777777777,41.75,480,43C502.22222222222223,44.25,511.11111111111114,7.541666666666666,533.3333333333334,9C555.5555555555557,10.458333333333334,564.4444444444446,51.666666666666664,586.6666666666667,50C608.8888888888889,48.333333333333336,617.7777777777778,0.375,640,1C662.2222222222222,1.625,671.1111111111111,49.458333333333336,693.3333333333334,53C715.5555555555557,56.541666666666664,724.4444444444446,19.875,746.6666666666667,18C768.8888888888889,16.125,788.8888888888889,38.583333333333336,800,44" transform="matrix(1,0,0,1,0,1260)"></path><path d="M10,10C19.02777777777778,11.666666666666666,33.19444444444444,24.25,53.333333333333336,18C73.47222222222223,11.75,84.44444444444446,-21.458333333333332,106.66666666666667,-20C128.88888888888889,-18.541666666666668,137.77777777777777,22.708333333333332,160,25C182.22222222222223,27.291666666666668,191.11111111111111,-10.875,213.33333333333334,-9C235.55555555555557,-7.125,244.44444444444446,31.916666666666668,266.6666666666667,34C288.8888888888889,36.083333333333336,297.77777777777777,2.25,320,1C342.22222222222223,-0.25,351.11111111111114,27.583333333333332,373.33333333333337,28C395.5555555555556,28.416666666666668,404.44444444444446,-0.125,426.6666666666667,3C448.8888888888889,6.125,457.77777777777777,41.75,480,43C502.22222222222223,44.25,511.11111111111114,7.541666666666666,533.3333333333334,9C555.5555555555557,10.458333333333334,564.4444444444446,51.666666666666664,586.6666666666667,50C608.8888888888889,48.333333333333336,617.7777777777778,0.375,640,1C662.2222222222222,1.625,671.1111111111111,49.458333333333336,693.3333333333334,53C715.5555555555557,56.541666666666664,724.4444444444446,19.875,746.6666666666667,18C768.8888888888889,16.125,788.8888888888889,38.583333333333336,800,44" transform="matrix(1,0,0,1,0,1215)"></path><path d="M10,10C19.02777777777778,11.666666666666666,33.19444444444444,24.25,53.333333333333336,18C73.47222222222223,11.75,84.44444444444446,-21.458333333333332,106.66666666666667,-20C128.88888888888889,-18.541666666666668,137.77777777777777,22.708333333333332,160,25C182.22222222222223,27.291666666666668,191.11111111111111,-10.875,213.33333333333334,-9C235.55555555555557,-7.125,244.44444444444446,31.916666666666668,266.6666666666667,34C288.8888888888889,36.083333333333336,297.77777777777777,2.25,320,1C342.22222222222223,-0.25,351.11111111111114,27.583333333333332,373.33333333333337,28C395.5555555555556,28.416666666666668,404.44444444444446,-0.125,426.6666666666667,3C448.8888888888889,6.125,457.77777777777777,41.75,480,43C502.22222222222223,44.25,511.11111111111114,7.541666666666666,533.3333333333334,9C555.5555555555557,10.458333333333334,564.4444444444446,51.666666666666664,586.6666666666667,50C608.8888888888889,48.333333333333336,617.7777777777778,0.375,640,1C662.2222222222222,1.625,671.1111111111111,49.458333333333336,693.3333333333334,53C715.5555555555557,56.541666666666664,724.4444444444446,19.875,746.6666666666667,18C768.8888888888889,16.125,788.8888888888889,38.583333333333336,800,44" transform="matrix(1,0,0,1,0,1170)"></path><path d="M10,10C19.02777777777778,11.666666666666666,33.19444444444444,24.25,53.333333333333336,18C73.47222222222223,11.75,84.44444444444446,-21.458333333333332,106.66666666666667,-20C128.88888888888889,-18.541666666666668,137.77777777777777,22.708333333333332,160,25C182.22222222222223,27.291666666666668,191.11111111111111,-10.875,213.33333333333334,-9C235.55555555555557,-7.125,244.44444444444446,31.916666666666668,266.6666666666667,34C288.8888888888889,36.083333333333336,297.77777777777777,2.25,320,1C342.22222222222223,-0.25,351.11111111111114,27.583333333333332,373.33333333333337,28C395.5555555555556,28.416666666666668,404.44444444444446,-0.125,426.6666666666667,3C448.8888888888889,6.125,457.77777777777777,41.75,480,43C502.22222222222223,44.25,511.11111111111114,7.541666666666666,533.3333333333334,9C555.5555555555557,10.458333333333334,564.4444444444446,51.666666666666664,586.6666666666667,50C608.8888888888889,48.333333333333336,617.7777777777778,0.375,640,1C662.2222222222222,1.625,671.1111111111111,49.458333333333336,693.3333333333334,53C715.5555555555557,56.541666666666664,724.4444444444446,19.875,746.6666666666667,18C768.8888888888889,16.125,788.8888888888889,38.583333333333336,800,44" transform="matrix(1,0,0,1,0,1125)"></path><path d="M10,10C19.02777777777778,11.666666666666666,33.19444444444444,24.25,53.333333333333336,18C73.47222222222223,11.75,84.44444444444446,-21.458333333333332,106.66666666666667,-20C128.88888888888889,-18.541666666666668,137.77777777777777,22.708333333333332,160,25C182.22222222222223,27.291666666666668,191.11111111111111,-10.875,213.33333333333334,-9C235.55555555555557,-7.125,244.44444444444446,31.916666666666668,266.6666666666667,34C288.8888888888889,36.083333333333336,297.77777777777777,2.25,320,1C342.22222222222223,-0.25,351.11111111111114,27.583333333333332,373.33333333333337,28C395.5555555555556,28.416666666666668,404.44444444444446,-0.125,426.6666666666667,3C448.8888888888889,6.125,457.77777777777777,41.75,480,43C502.22222222222223,44.25,511.11111111111114,7.541666666666666,533.3333333333334,9C555.5555555555557,10.458333333333334,564.4444444444446,51.666666666666664,586.6666666666667,50C608.8888888888889,48.333333333333336,617.7777777777778,0.375,640,1C662.2222222222222,1.625,671.1111111111111,49.458333333333336,693.3333333333334,53C715.5555555555557,56.541666666666664,724.4444444444446,19.875,746.6666666666667,18C768.8888888888889,16.125,788.8888888888889,38.583333333333336,800,44" transform="matrix(1,0,0,1,0,1080)"></path><path d="M10,10C19.02777777777778,11.666666666666666,33.19444444444444,24.25,53.333333333333336,18C73.47222222222223,11.75,84.44444444444446,-21.458333333333332,106.66666666666667,-20C128.88888888888889,-18.541666666666668,137.77777777777777,22.708333333333332,160,25C182.22222222222223,27.291666666666668,191.11111111111111,-10.875,213.33333333333334,-9C235.55555555555557,-7.125,244.44444444444446,31.916666666666668,266.6666666666667,34C288.8888888888889,36.083333333333336,297.77777777777777,2.25,320,1C342.22222222222223,-0.25,351.11111111111114,27.583333333333332,373.33333333333337,28C395.5555555555556,28.416666666666668,404.44444444444446,-0.125,426.6666666666667,3C448.8888888888889,6.125,457.77777777777777,41.75,480,43C502.22222222222223,44.25,511.11111111111114,7.541666666666666,533.3333333333334,9C555.5555555555557,10.458333333333334,564.4444444444446,51.666666666666664,586.6666666666667,50C608.8888888888889,48.333333333333336,617.7777777777778,0.375,640,1C662.2222222222222,1.625,671.1111111111111,49.458333333333336,693.3333333333334,53C715.5555555555557,56.541666666666664,724.4444444444446,19.875,746.6666666666667,18C768.8888888888889,16.125,788.8888888888889,38.583333333333336,800,44" transform="matrix(1,0,0,1,0,1035)"></path><path d="M10,10C19.02777777777778,11.666666666666666,33.19444444444444,24.25,53.333333333333336,18C73.47222222222223,11.75,84.44444444444446,-21.458333333333332,106.66666666666667,-20C128.88888888888889,-18.541666666666668,137.77777777777777,22.708333333333332,160,25C182.22222222222223,27.291666666666668,191.11111111111111,-10.875,213.33333333333334,-9C235.55555555555557,-7.125,244.44444444444446,31.916666666666668,266.6666666666667,34C288.8888888888889,36.083333333333336,297.77777777777777,2.25,320,1C342.22222222222223,-0.25,351.11111111111114,27.583333333333332,373.33333333333337,28C395.5555555555556,28.416666666666668,404.44444444444446,-0.125,426.6666666666667,3C448.8888888888889,6.125,457.77777777777777,41.75,480,43C502.22222222222223,44.25,511.11111111111114,7.541666666666666,533.3333333333334,9C555.5555555555557,10.458333333333334,564.4444444444446,51.666666666666664,586.6666666666667,50C608.8888888888889,48.333333333333336,617.7777777777778,0.375,640,1C662.2222222222222,1.625,671.1111111111111,49.458333333333336,693.3333333333334,53C715.5555555555557,56.541666666666664,724.4444444444446,19.875,746.6666666666667,18C768.8888888888889,16.125,788.8888888888889,38.583333333333336,800,44" transform="matrix(1,0,0,1,0,990)"></path><path d="M10,10C19.02777777777778,11.666666666666666,33.19444444444444,24.25,53.333333333333336,18C73.47222222222223,11.75,84.44444444444446,-21.458333333333332,106.66666666666667,-20C128.88888888888889,-18.541666666666668,137.77777777777777,22.708333333333332,160,25C182.22222222222223,27.291666666666668,191.11111111111111,-10.875,213.33333333333334,-9C235.55555555555557,-7.125,244.44444444444446,31.916666666666668,266.6666666666667,34C288.8888888888889,36.083333333333336,297.77777777777777,2.25,320,1C342.22222222222223,-0.25,351.11111111111114,27.583333333333332,373.33333333333337,28C395.5555555555556,28.416666666666668,404.44444444444446,-0.125,426.6666666666667,3C448.8888888888889,6.125,457.77777777777777,41.75,480,43C502.22222222222223,44.25,511.11111111111114,7.541666666666666,533.3333333333334,9C555.5555555555557,10.458333333333334,564.4444444444446,51.666666666666664,586.6666666666667,50C608.8888888888889,48.333333333333336,617.7777777777778,0.375,640,1C662.2222222222222,1.625,671.1111111111111,49.458333333333336,693.3333333333334,53C715.5555555555557,56.541666666666664,724.4444444444446,19.875,746.6666666666667,18C768.8888888888889,16.125,788.8888888888889,38.583333333333336,800,44" transform="matrix(1,0,0,1,0,945)"></path><path d="M10,10C19.02777777777778,11.666666666666666,33.19444444444444,24.25,53.333333333333336,18C73.47222222222223,11.75,84.44444444444446,-21.458333333333332,106.66666666666667,-20C128.88888888888889,-18.541666666666668,137.77777777777777,22.708333333333332,160,25C182.22222222222223,27.291666666666668,191.11111111111111,-10.875,213.33333333333334,-9C235.55555555555557,-7.125,244.44444444444446,31.916666666666668,266.6666666666667,34C288.8888888888889,36.083333333333336,297.77777777777777,2.25,320,1C342.22222222222223,-0.25,351.11111111111114,27.583333333333332,373.33333333333337,28C395.5555555555556,28.416666666666668,404.44444444444446,-0.125,426.6666666666667,3C448.8888888888889,6.125,457.77777777777777,41.75,480,43C502.22222222222223,44.25,511.11111111111114,7.541666666666666,533.3333333333334,9C555.5555555555557,10.458333333333334,564.4444444444446,51.666666666666664,586.6666666666667,50C608.8888888888889,48.333333333333336,617.7777777777778,0.375,640,1C662.2222222222222,1.625,671.1111111111111,49.458333333333336,693.3333333333334,53C715.5555555555557,56.541666666666664,724.4444444444446,19.875,746.6666666666667,18C768.8888888888889,16.125,788.8888888888889,38.583333333333336,800,44" transform="matrix(1,0,0,1,0,900)"></path><path d="M10,10C19.02777777777778,11.666666666666666,33.19444444444444,24.25,53.333333333333336,18C73.47222222222223,11.75,84.44444444444446,-21.458333333333332,106.66666666666667,-20C128.88888888888889,-18.541666666666668,137.77777777777777,22.708333333333332,160,25C182.22222222222223,27.291666666666668,191.11111111111111,-10.875,213.33333333333334,-9C235.55555555555557,-7.125,244.44444444444446,31.916666666666668,266.6666666666667,34C288.8888888888889,36.083333333333336,297.77777777777777,2.25,320,1C342.22222222222223,-0.25,351.11111111111114,27.583333333333332,373.33333333333337,28C395.5555555555556,28.416666666666668,404.44444444444446,-0.125,426.6666666666667,3C448.8888888888889,6.125,457.77777777777777,41.75,480,43C502.22222222222223,44.25,511.11111111111114,7.541666666666666,533.3333333333334,9C555.5555555555557,10.458333333333334,564.4444444444446,51.666666666666664,586.6666666666667,50C608.8888888888889,48.333333333333336,617.7777777777778,0.375,640,1C662.2222222222222,1.625,671.1111111111111,49.458333333333336,693.3333333333334,53C715.5555555555557,56.541666666666664,724.4444444444446,19.875,746.6666666666667,18C768.8888888888889,16.125,788.8888888888889,38.583333333333336,800,44" transform="matrix(1,0,0,1,0,855)"></path><path d="M10,10C19.02777777777778,11.666666666666666,33.19444444444444,24.25,53.333333333333336,18C73.47222222222223,11.75,84.44444444444446,-21.458333333333332,106.66666666666667,-20C128.88888888888889,-18.541666666666668,137.77777777777777,22.708333333333332,160,25C182.22222222222223,27.291666666666668,191.11111111111111,-10.875,213.33333333333334,-9C235.55555555555557,-7.125,244.44444444444446,31.916666666666668,266.6666666666667,34C288.8888888888889,36.083333333333336,297.77777777777777,2.25,320,1C342.22222222222223,-0.25,351.11111111111114,27.583333333333332,373.33333333333337,28C395.5555555555556,28.416666666666668,404.44444444444446,-0.125,426.6666666666667,3C448.8888888888889,6.125,457.77777777777777,41.75,480,43C502.22222222222223,44.25,511.11111111111114,7.541666666666666,533.3333333333334,9C555.5555555555557,10.458333333333334,564.4444444444446,51.666666666666664,586.6666666666667,50C608.8888888888889,48.333333333333336,617.7777777777778,0.375,640,1C662.2222222222222,1.625,671.1111111111111,49.458333333333336,693.3333333333334,53C715.5555555555557,56.541666666666664,724.4444444444446,19.875,746.6666666666667,18C768.8888888888889,16.125,788.8888888888889,38.583333333333336,800,44" transform="matrix(1,0,0,1,0,810)"></path><path d="M10,10C19.02777777777778,11.666666666666666,33.19444444444444,24.25,53.333333333333336,18C73.47222222222223,11.75,84.44444444444446,-21.458333333333332,106.66666666666667,-20C128.88888888888889,-18.541666666666668,137.77777777777777,22.708333333333332,160,25C182.22222222222223,27.291666666666668,191.11111111111111,-10.875,213.33333333333334,-9C235.55555555555557,-7.125,244.44444444444446,31.916666666666668,266.6666666666667,34C288.8888888888889,36.083333333333336,297.77777777777777,2.25,320,1C342.22222222222223,-0.25,351.11111111111114,27.583333333333332,373.33333333333337,28C395.5555555555556,28.416666666666668,404.44444444444446,-0.125,426.6666666666667,3C448.8888888888889,6.125,457.77777777777777,41.75,480,43C502.22222222222223,44.25,511.11111111111114,7.541666666666666,533.3333333333334,9C555.5555555555557,10.458333333333334,564.4444444444446,51.666666666666664,586.6666666666667,50C608.8888888888889,48.333333333333336,617.7777777777778,0.375,640,1C662.2222222222222,1.625,671.1111111111111,49.458333333333336,693.3333333333334,53C715.5555555555557,56.541666666666664,724.4444444444446,19.875,746.6666666666667,18C768.8888888888889,16.125,788.8888888888889,38.583333333333336,800,44" transform="matrix(1,0,0,1,0,765)"></path><path d="M10,10C19.02777777777778,11.666666666666666,33.19444444444444,24.25,53.333333333333336,18C73.47222222222223,11.75,84.44444444444446,-21.458333333333332,106.66666666666667,-20C128.88888888888889,-18.541666666666668,137.77777777777777,22.708333333333332,160,25C182.22222222222223,27.291666666666668,191.11111111111111,-10.875,213.33333333333334,-9C235.55555555555557,-7.125,244.44444444444446,31.916666666666668,266.6666666666667,34C288.8888888888889,36.083333333333336,297.77777777777777,2.25,320,1C342.22222222222223,-0.25,351.11111111111114,27.583333333333332,373.33333333333337,28C395.5555555555556,28.416666666666668,404.44444444444446,-0.125,426.6666666666667,3C448.8888888888889,6.125,457.77777777777777,41.75,480,43C502.22222222222223,44.25,511.11111111111114,7.541666666666666,533.3333333333334,9C555.5555555555557,10.458333333333334,564.4444444444446,51.666666666666664,586.6666666666667,50C608.8888888888889,48.333333333333336,617.7777777777778,0.375,640,1C662.2222222222222,1.625,671.1111111111111,49.458333333333336,693.3333333333334,53C715.5555555555557,56.541666666666664,724.4444444444446,19.875,746.6666666666667,18C768.8888888888889,16.125,788.8888888888889,38.583333333333336,800,44" transform="matrix(1,0,0,1,0,720)"></path><path d="M10,10C19.02777777777778,11.666666666666666,33.19444444444444,24.25,53.333333333333336,18C73.47222222222223,11.75,84.44444444444446,-21.458333333333332,106.66666666666667,-20C128.88888888888889,-18.541666666666668,137.77777777777777,22.708333333333332,160,25C182.22222222222223,27.291666666666668,191.11111111111111,-10.875,213.33333333333334,-9C235.55555555555557,-7.125,244.44444444444446,31.916666666666668,266.6666666666667,34C288.8888888888889,36.083333333333336,297.77777777777777,2.25,320,1C342.22222222222223,-0.25,351.11111111111114,27.583333333333332,373.33333333333337,28C395.5555555555556,28.416666666666668,404.44444444444446,-0.125,426.6666666666667,3C448.8888888888889,6.125,457.77777777777777,41.75,480,43C502.22222222222223,44.25,511.11111111111114,7.541666666666666,533.3333333333334,9C555.5555555555557,10.458333333333334,564.4444444444446,51.666666666666664,586.6666666666667,50C608.8888888888889,48.333333333333336,617.7777777777778,0.375,640,1C662.2222222222222,1.625,671.1111111111111,49.458333333333336,693.3333333333334,53C715.5555555555557,56.541666666666664,724.4444444444446,19.875,746.6666666666667,18C768.8888888888889,16.125,788.8888888888889,38.583333333333336,800,44" transform="matrix(1,0,0,1,0,675)"></path><path d="M10,10C19.02777777777778,11.666666666666666,33.19444444444444,24.25,53.333333333333336,18C73.47222222222223,11.75,84.44444444444446,-21.458333333333332,106.66666666666667,-20C128.88888888888889,-18.541666666666668,137.77777777777777,22.708333333333332,160,25C182.22222222222223,27.291666666666668,191.11111111111111,-10.875,213.33333333333334,-9C235.55555555555557,-7.125,244.44444444444446,31.916666666666668,266.6666666666667,34C288.8888888888889,36.083333333333336,297.77777777777777,2.25,320,1C342.22222222222223,-0.25,351.11111111111114,27.583333333333332,373.33333333333337,28C395.5555555555556,28.416666666666668,404.44444444444446,-0.125,426.6666666666667,3C448.8888888888889,6.125,457.77777777777777,41.75,480,43C502.22222222222223,44.25,511.11111111111114,7.541666666666666,533.3333333333334,9C555.5555555555557,10.458333333333334,564.4444444444446,51.666666666666664,586.6666666666667,50C608.8888888888889,48.333333333333336,617.7777777777778,0.375,640,1C662.2222222222222,1.625,671.1111111111111,49.458333333333336,693.3333333333334,53C715.5555555555557,56.541666666666664,724.4444444444446,19.875,746.6666666666667,18C768.8888888888889,16.125,788.8888888888889,38.583333333333336,800,44" transform="matrix(1,0,0,1,0,630)"></path><path d="M10,10C19.02777777777778,11.666666666666666,33.19444444444444,24.25,53.333333333333336,18C73.47222222222223,11.75,84.44444444444446,-21.458333333333332,106.66666666666667,-20C128.88888888888889,-18.541666666666668,137.77777777777777,22.708333333333332,160,25C182.22222222222223,27.291666666666668,191.11111111111111,-10.875,213.33333333333334,-9C235.55555555555557,-7.125,244.44444444444446,31.916666666666668,266.6666666666667,34C288.8888888888889,36.083333333333336,297.77777777777777,2.25,320,1C342.22222222222223,-0.25,351.11111111111114,27.583333333333332,373.33333333333337,28C395.5555555555556,28.416666666666668,404.44444444444446,-0.125,426.6666666666667,3C448.8888888888889,6.125,457.77777777777777,41.75,480,43C502.22222222222223,44.25,511.11111111111114,7.541666666666666,533.3333333333334,9C555.5555555555557,10.458333333333334,564.4444444444446,51.666666666666664,586.6666666666667,50C608.8888888888889,48.333333333333336,617.7777777777778,0.375,640,1C662.2222222222222,1.625,671.1111111111111,49.458333333333336,693.3333333333334,53C715.5555555555557,56.541666666666664,724.4444444444446,19.875,746.6666666666667,18C768.8888888888889,16.125,788.8888888888889,38.583333333333336,800,44" transform="matrix(1,0,0,1,0,585)"></path><path d="M10,10C19.02777777777778,11.666666666666666,33.19444444444444,24.25,53.333333333333336,18C73.47222222222223,11.75,84.44444444444446,-21.458333333333332,106.66666666666667,-20C128.88888888888889,-18.541666666666668,137.77777777777777,22.708333333333332,160,25C182.22222222222223,27.291666666666668,191.11111111111111,-10.875,213.33333333333334,-9C235.55555555555557,-7.125,244.44444444444446,31.916666666666668,266.6666666666667,34C288.8888888888889,36.083333333333336,297.77777777777777,2.25,320,1C342.22222222222223,-0.25,351.11111111111114,27.583333333333332,373.33333333333337,28C395.5555555555556,28.416666666666668,404.44444444444446,-0.125,426.6666666666667,3C448.8888888888889,6.125,457.77777777777777,41.75,480,43C502.22222222222223,44.25,511.11111111111114,7.541666666666666,533.3333333333334,9C555.5555555555557,10.458333333333334,564.4444444444446,51.666666666666664,586.6666666666667,50C608.8888888888889,48.333333333333336,617.7777777777778,0.375,640,1C662.2222222222222,1.625,671.1111111111111,49.458333333333336,693.3333333333334,53C715.5555555555557,56.541666666666664,724.4444444444446,19.875,746.6666666666667,18C768.8888888888889,16.125,788.8888888888889,38.583333333333336,800,44" transform="matrix(1,0,0,1,0,540)"></path><path d="M10,10C19.02777777777778,11.666666666666666,33.19444444444444,24.25,53.333333333333336,18C73.47222222222223,11.75,84.44444444444446,-21.458333333333332,106.66666666666667,-20C128.88888888888889,-18.541666666666668,137.77777777777777,22.708333333333332,160,25C182.22222222222223,27.291666666666668,191.11111111111111,-10.875,213.33333333333334,-9C235.55555555555557,-7.125,244.44444444444446,31.916666666666668,266.6666666666667,34C288.8888888888889,36.083333333333336,297.77777777777777,2.25,320,1C342.22222222222223,-0.25,351.11111111111114,27.583333333333332,373.33333333333337,28C395.5555555555556,28.416666666666668,404.44444444444446,-0.125,426.6666666666667,3C448.8888888888889,6.125,457.77777777777777,41.75,480,43C502.22222222222223,44.25,511.11111111111114,7.541666666666666,533.3333333333334,9C555.5555555555557,10.458333333333334,564.4444444444446,51.666666666666664,586.6666666666667,50C608.8888888888889,48.333333333333336,617.7777777777778,0.375,640,1C662.2222222222222,1.625,671.1111111111111,49.458333333333336,693.3333333333334,53C715.5555555555557,56.541666666666664,724.4444444444446,19.875,746.6666666666667,18C768.8888888888889,16.125,788.8888888888889,38.583333333333336,800,44" transform="matrix(1,0,0,1,0,495)"></path><path d="M10,10C19.02777777777778,11.666666666666666,33.19444444444444,24.25,53.333333333333336,18C73.47222222222223,11.75,84.44444444444446,-21.458333333333332,106.66666666666667,-20C128.88888888888889,-18.541666666666668,137.77777777777777,22.708333333333332,160,25C182.22222222222223,27.291666666666668,191.11111111111111,-10.875,213.33333333333334,-9C235.55555555555557,-7.125,244.44444444444446,31.916666666666668,266.6666666666667,34C288.8888888888889,36.083333333333336,297.77777777777777,2.25,320,1C342.22222222222223,-0.25,351.11111111111114,27.583333333333332,373.33333333333337,28C395.5555555555556,28.416666666666668,404.44444444444446,-0.125,426.6666666666667,3C448.8888888888889,6.125,457.77777777777777,41.75,480,43C502.22222222222223,44.25,511.11111111111114,7.541666666666666,533.3333333333334,9C555.5555555555557,10.458333333333334,564.4444444444446,51.666666666666664,586.6666666666667,50C608.8888888888889,48.333333333333336,617.7777777777778,0.375,640,1C662.2222222222222,1.625,671.1111111111111,49.458333333333336,693.3333333333334,53C715.5555555555557,56.541666666666664,724.4444444444446,19.875,746.6666666666667,18C768.8888888888889,16.125,788.8888888888889,38.583333333333336,800,44" transform="matrix(1,0,0,1,0,450)"></path><path d="M10,10C19.02777777777778,11.666666666666666,33.19444444444444,24.25,53.333333333333336,18C73.47222222222223,11.75,84.44444444444446,-21.458333333333332,106.66666666666667,-20C128.88888888888889,-18.541666666666668,137.77777777777777,22.708333333333332,160,25C182.22222222222223,27.291666666666668,191.11111111111111,-10.875,213.33333333333334,-9C235.55555555555557,-7.125,244.44444444444446,31.916666666666668,266.6666666666667,34C288.8888888888889,36.083333333333336,297.77777777777777,2.25,320,1C342.22222222222223,-0.25,351.11111111111114,27.583333333333332,373.33333333333337,28C395.5555555555556,28.416666666666668,404.44444444444446,-0.125,426.6666666666667,3C448.8888888888889,6.125,457.77777777777777,41.75,480,43C502.22222222222223,44.25,511.11111111111114,7.541666666666666,533.3333333333334,9C555.5555555555557,10.458333333333334,564.4444444444446,51.666666666666664,586.6666666666667,50C608.8888888888889,48.333333333333336,617.7777777777778,0.375,640,1C662.2222222222222,1.625,671.1111111111111,49.458333333333336,693.3333333333334,53C715.5555555555557,56.541666666666664,724.4444444444446,19.875,746.6666666666667,18C768.8888888888889,16.125,788.8888888888889,38.583333333333336,800,44" transform="matrix(1,0,0,1,0,405)"></path><path d="M10,10C19.02777777777778,11.666666666666666,33.19444444444444,24.25,53.333333333333336,18C73.47222222222223,11.75,84.44444444444446,-21.458333333333332,106.66666666666667,-20C128.88888888888889,-18.541666666666668,137.77777777777777,22.708333333333332,160,25C182.22222222222223,27.291666666666668,191.11111111111111,-10.875,213.33333333333334,-9C235.55555555555557,-7.125,244.44444444444446,31.916666666666668,266.6666666666667,34C288.8888888888889,36.083333333333336,297.77777777777777,2.25,320,1C342.22222222222223,-0.25,351.11111111111114,27.583333333333332,373.33333333333337,28C395.5555555555556,28.416666666666668,404.44444444444446,-0.125,426.6666666666667,3C448.8888888888889,6.125,457.77777777777777,41.75,480,43C502.22222222222223,44.25,511.11111111111114,7.541666666666666,533.3333333333334,9C555.5555555555557,10.458333333333334,564.4444444444446,51.666666666666664,586.6666666666667,50C608.8888888888889,48.333333333333336,617.7777777777778,0.375,640,1C662.2222222222222,1.625,671.1111111111111,49.458333333333336,693.3333333333334,53C715.5555555555557,56.541666666666664,724.4444444444446,19.875,746.6666666666667,18C768.8888888888889,16.125,788.8888888888889,38.583333333333336,800,44" transform="matrix(1,0,0,1,0,360)"></path><path d="M10,10C19.02777777777778,11.666666666666666,33.19444444444444,24.25,53.333333333333336,18C73.47222222222223,11.75,84.44444444444446,-21.458333333333332,106.66666666666667,-20C128.88888888888889,-18.541666666666668,137.77777777777777,22.708333333333332,160,25C182.22222222222223,27.291666666666668,191.11111111111111,-10.875,213.33333333333334,-9C235.55555555555557,-7.125,244.44444444444446,31.916666666666668,266.6666666666667,34C288.8888888888889,36.083333333333336,297.77777777777777,2.25,320,1C342.22222222222223,-0.25,351.11111111111114,27.583333333333332,373.33333333333337,28C395.5555555555556,28.416666666666668,404.44444444444446,-0.125,426.6666666666667,3C448.8888888888889,6.125,457.77777777777777,41.75,480,43C502.22222222222223,44.25,511.11111111111114,7.541666666666666,533.3333333333334,9C555.5555555555557,10.458333333333334,564.4444444444446,51.666666666666664,586.6666666666667,50C608.8888888888889,48.333333333333336,617.7777777777778,0.375,640,1C662.2222222222222,1.625,671.1111111111111,49.458333333333336,693.3333333333334,53C715.5555555555557,56.541666666666664,724.4444444444446,19.875,746.6666666666667,18C768.8888888888889,16.125,788.8888888888889,38.583333333333336,800,44" transform="matrix(1,0,0,1,0,315)"></path><path d="M10,10C19.02777777777778,11.666666666666666,33.19444444444444,24.25,53.333333333333336,18C73.47222222222223,11.75,84.44444444444446,-21.458333333333332,106.66666666666667,-20C128.88888888888889,-18.541666666666668,137.77777777777777,22.708333333333332,160,25C182.22222222222223,27.291666666666668,191.11111111111111,-10.875,213.33333333333334,-9C235.55555555555557,-7.125,244.44444444444446,31.916666666666668,266.6666666666667,34C288.8888888888889,36.083333333333336,297.77777777777777,2.25,320,1C342.22222222222223,-0.25,351.11111111111114,27.583333333333332,373.33333333333337,28C395.5555555555556,28.416666666666668,404.44444444444446,-0.125,426.6666666666667,3C448.8888888888889,6.125,457.77777777777777,41.75,480,43C502.22222222222223,44.25,511.11111111111114,7.541666666666666,533.3333333333334,9C555.5555555555557,10.458333333333334,564.4444444444446,51.666666666666664,586.6666666666667,50C608.8888888888889,48.333333333333336,617.7777777777778,0.375,640,1C662.2222222222222,1.625,671.1111111111111,49.458333333333336,693.3333333333334,53C715.5555555555557,56.541666666666664,724.4444444444446,19.875,746.6666666666667,18C768.8888888888889,16.125,788.8888888888889,38.583333333333336,800,44" transform="matrix(1,0,0,1,0,270)"></path><path d="M10,10C19.02777777777778,11.666666666666666,33.19444444444444,24.25,53.333333333333336,18C73.47222222222223,11.75,84.44444444444446,-21.458333333333332,106.66666666666667,-20C128.88888888888889,-18.541666666666668,137.77777777777777,22.708333333333332,160,25C182.22222222222223,27.291666666666668,191.11111111111111,-10.875,213.33333333333334,-9C235.55555555555557,-7.125,244.44444444444446,31.916666666666668,266.6666666666667,34C288.8888888888889,36.083333333333336,297.77777777777777,2.25,320,1C342.22222222222223,-0.25,351.11111111111114,27.583333333333332,373.33333333333337,28C395.5555555555556,28.416666666666668,404.44444444444446,-0.125,426.6666666666667,3C448.8888888888889,6.125,457.77777777777777,41.75,480,43C502.22222222222223,44.25,511.11111111111114,7.541666666666666,533.3333333333334,9C555.5555555555557,10.458333333333334,564.4444444444446,51.666666666666664,586.6666666666667,50C608.8888888888889,48.333333333333336,617.7777777777778,0.375,640,1C662.2222222222222,1.625,671.1111111111111,49.458333333333336,693.3333333333334,53C715.5555555555557,56.541666666666664,724.4444444444446,19.875,746.6666666666667,18C768.8888888888889,16.125,788.8888888888889,38.583333333333336,800,44" transform="matrix(1,0,0,1,0,225)"></path><path d="M10,10C19.02777777777778,11.666666666666666,33.19444444444444,24.25,53.333333333333336,18C73.47222222222223,11.75,84.44444444444446,-21.458333333333332,106.66666666666667,-20C128.88888888888889,-18.541666666666668,137.77777777777777,22.708333333333332,160,25C182.22222222222223,27.291666666666668,191.11111111111111,-10.875,213.33333333333334,-9C235.55555555555557,-7.125,244.44444444444446,31.916666666666668,266.6666666666667,34C288.8888888888889,36.083333333333336,297.77777777777777,2.25,320,1C342.22222222222223,-0.25,351.11111111111114,27.583333333333332,373.33333333333337,28C395.5555555555556,28.416666666666668,404.44444444444446,-0.125,426.6666666666667,3C448.8888888888889,6.125,457.77777777777777,41.75,480,43C502.22222222222223,44.25,511.11111111111114,7.541666666666666,533.3333333333334,9C555.5555555555557,10.458333333333334,564.4444444444446,51.666666666666664,586.6666666666667,50C608.8888888888889,48.333333333333336,617.7777777777778,0.375,640,1C662.2222222222222,1.625,671.1111111111111,49.458333333333336,693.3333333333334,53C715.5555555555557,56.541666666666664,724.4444444444446,19.875,746.6666666666667,18C768.8888888888889,16.125,788.8888888888889,38.583333333333336,800,44" transform="matrix(1,0,0,1,0,180)"></path><path d="M10,10C19.02777777777778,11.666666666666666,33.19444444444444,24.25,53.333333333333336,18C73.47222222222223,11.75,84.44444444444446,-21.458333333333332,106.66666666666667,-20C128.88888888888889,-18.541666666666668,137.77777777777777,22.708333333333332,160,25C182.22222222222223,27.291666666666668,191.11111111111111,-10.875,213.33333333333334,-9C235.55555555555557,-7.125,244.44444444444446,31.916666666666668,266.6666666666667,34C288.8888888888889,36.083333333333336,297.77777777777777,2.25,320,1C342.22222222222223,-0.25,351.11111111111114,27.583333333333332,373.33333333333337,28C395.5555555555556,28.416666666666668,404.44444444444446,-0.125,426.6666666666667,3C448.8888888888889,6.125,457.77777777777777,41.75,480,43C502.22222222222223,44.25,511.11111111111114,7.541666666666666,533.3333333333334,9C555.5555555555557,10.458333333333334,564.4444444444446,51.666666666666664,586.6666666666667,50C608.8888888888889,48.333333333333336,617.7777777777778,0.375,640,1C662.2222222222222,1.625,671.1111111111111,49.458333333333336,693.3333333333334,53C715.5555555555557,56.541666666666664,724.4444444444446,19.875,746.6666666666667,18C768.8888888888889,16.125,788.8888888888889,38.583333333333336,800,44" transform="matrix(1,0,0,1,0,135)"></path><path d="M10,10C19.02777777777778,11.666666666666666,33.19444444444444,24.25,53.333333333333336,18C73.47222222222223,11.75,84.44444444444446,-21.458333333333332,106.66666666666667,-20C128.88888888888889,-18.541666666666668,137.77777777777777,22.708333333333332,160,25C182.22222222222223,27.291666666666668,191.11111111111111,-10.875,213.33333333333334,-9C235.55555555555557,-7.125,244.44444444444446,31.916666666666668,266.6666666666667,34C288.8888888888889,36.083333333333336,297.77777777777777,2.25,320,1C342.22222222222223,-0.25,351.11111111111114,27.583333333333332,373.33333333333337,28C395.5555555555556,28.416666666666668,404.44444444444446,-0.125,426.6666666666667,3C448.8888888888889,6.125,457.77777777777777,41.75,480,43C502.22222222222223,44.25,511.11111111111114,7.541666666666666,533.3333333333334,9C555.5555555555557,10.458333333333334,564.4444444444446,51.666666666666664,586.6666666666667,50C608.8888888888889,48.333333333333336,617.7777777777778,0.375,640,1C662.2222222222222,1.625,671.1111111111111,49.458333333333336,693.3333333333334,53C715.5555555555557,56.541666666666664,724.4444444444446,19.875,746.6666666666667,18C768.8888888888889,16.125,788.8888888888889,38.583333333333336,800,44" transform="matrix(1,0,0,1,0,90)"></path><path d="M10,10C19.02777777777778,11.666666666666666,33.19444444444444,24.25,53.333333333333336,18C73.47222222222223,11.75,84.44444444444446,-21.458333333333332,106.66666666666667,-20C128.88888888888889,-18.541666666666668,137.77777777777777,22.708333333333332,160,25C182.22222222222223,27.291666666666668,191.11111111111111,-10.875,213.33333333333334,-9C235.55555555555557,-7.125,244.44444444444446,31.916666666666668,266.6666666666667,34C288.8888888888889,36.083333333333336,297.77777777777777,2.25,320,1C342.22222222222223,-0.25,351.11111111111114,27.583333333333332,373.33333333333337,28C395.5555555555556,28.416666666666668,404.44444444444446,-0.125,426.6666666666667,3C448.8888888888889,6.125,457.77777777777777,41.75,480,43C502.22222222222223,44.25,511.11111111111114,7.541666666666666,533.3333333333334,9C555.5555555555557,10.458333333333334,564.4444444444446,51.666666666666664,586.6666666666667,50C608.8888888888889,48.333333333333336,617.7777777777778,0.375,640,1C662.2222222222222,1.625,671.1111111111111,49.458333333333336,693.3333333333334,53C715.5555555555557,56.541666666666664,724.4444444444446,19.875,746.6666666666667,18C768.8888888888889,16.125,788.8888888888889,38.583333333333336,800,44" transform="matrix(1,0,0,1,0,45)"></path></g></svg>