<?xml version="1.0" encoding="utf-8"?>
<!-- Generator: Adobe Illustrator 24.0.0, SVG Export Plug-In . SVG Version: 6.00 Build 0)  -->
<svg version="1.1" id="Capa_1" xmlns:svgjs="http://svgjs.dev/svgjs"
	 xmlns="http://www.w3.org/2000/svg" xmlns:xlink="http://www.w3.org/1999/xlink" x="0px" y="0px" viewBox="0 0 800 2219.4"
	 style="enable-background:new 0 0 800 2219.4;" xml:space="preserve">
<style type="text/css">
	.st0{fill:none;stroke:#00C874;stroke-width:2;stroke-linecap:round;}
</style>
<g transform="matrix(1,0,0,1,-5,-1326.5970764160156)">
	<path class="st0" d="M-29.6,1125.1c10,1.7,25.6,14.3,47.9,8s34.4-39.5,59-38s34.4,42.7,59,45s34.4-35.9,59-34s34.4,40.9,59,43
		s34.4-31.8,59-33c24.6-1.3,34.4,26.6,59,27s34.4-28.1,59-25c24.6,3.1,34.4,38.8,59,40s34.4-35.5,59-34c24.6,1.5,34.4,42.7,59,41
		s34.4-49.6,59-49s34.4,48.5,59,52c24.6,3.5,34.4-33.1,59-35c24.6-1.9,46.7,20.6,59,26"/>
	<path class="st0" d="M-29.6,4545.1c10,1.7,25.6,14.3,47.9,8s34.4-39.5,59-38c24.6,1.5,34.4,42.7,59,45c24.6,2.3,34.4-35.9,59-34
		s34.4,40.9,59,43c24.6,2.1,34.4-31.8,59-33c24.6-1.3,34.4,26.6,59,27c24.6,0.4,34.4-28.1,59-25c24.6,3.1,34.4,38.8,59,40
		s34.4-35.5,59-34c24.6,1.5,34.4,42.7,59,41c24.6-1.7,34.4-49.6,59-49s34.4,48.5,59,52c24.6,3.5,34.4-33.1,59-35
		c24.6-1.9,46.7,20.6,59,26"/>
	<path class="st0" d="M-29.6,4500.1c10,1.7,25.6,14.3,47.9,8s34.4-39.5,59-38c24.6,1.5,34.4,42.7,59,45c24.6,2.3,34.4-35.9,59-34
		s34.4,40.9,59,43c24.6,2.1,34.4-31.8,59-33c24.6-1.3,34.4,26.6,59,27c24.6,0.4,34.4-28.1,59-25c24.6,3.1,34.4,38.8,59,40
		s34.4-35.5,59-34c24.6,1.5,34.4,42.7,59,41c24.6-1.7,34.4-49.6,59-49s34.4,48.5,59,52c24.6,3.5,34.4-33.1,59-35
		c24.6-1.9,46.7,20.6,59,26"/>
	<path class="st0" d="M-29.6,4455.1c10,1.7,25.6,14.3,47.9,8s34.4-39.5,59-38c24.6,1.5,34.4,42.7,59,45c24.6,2.3,34.4-35.9,59-34
		s34.4,40.9,59,43c24.6,2.1,34.4-31.8,59-33c24.6-1.3,34.4,26.6,59,27c24.6,0.4,34.4-28.1,59-25c24.6,3.1,34.4,38.8,59,40
		s34.4-35.5,59-34c24.6,1.5,34.4,42.7,59,41c24.6-1.7,34.4-49.6,59-49s34.4,48.5,59,52c24.6,3.5,34.4-33.1,59-35
		c24.6-1.9,46.7,20.6,59,26"/>
	<path class="st0" d="M-29.6,4410.1c10,1.7,25.6,14.3,47.9,8s34.4-39.5,59-38c24.6,1.5,34.4,42.7,59,45c24.6,2.3,34.4-35.9,59-34
		s34.4,40.9,59,43c24.6,2.1,34.4-31.8,59-33c24.6-1.3,34.4,26.6,59,27c24.6,0.4,34.4-28.1,59-25c24.6,3.1,34.4,38.8,59,40
		s34.4-35.5,59-34c24.6,1.5,34.4,42.7,59,41c24.6-1.7,34.4-49.6,59-49s34.4,48.5,59,52c24.6,3.5,34.4-33.1,59-35
		c24.6-1.9,46.7,20.6,59,26"/>
	<path class="st0" d="M-29.6,4365.1c10,1.7,25.6,14.3,47.9,8s34.4-39.5,59-38c24.6,1.5,34.4,42.7,59,45c24.6,2.3,34.4-35.9,59-34
		s34.4,40.9,59,43c24.6,2.1,34.4-31.8,59-33c24.6-1.3,34.4,26.6,59,27c24.6,0.4,34.4-28.1,59-25c24.6,3.1,34.4,38.8,59,40
		s34.4-35.5,59-34c24.6,1.5,34.4,42.7,59,41c24.6-1.7,34.4-49.6,59-49s34.4,48.5,59,52c24.6,3.5,34.4-33.1,59-35
		c24.6-1.9,46.7,20.6,59,26"/>
	<path class="st0" d="M-29.6,4320.1c10,1.7,25.6,14.3,47.9,8s34.4-39.5,59-38c24.6,1.5,34.4,42.7,59,45c24.6,2.3,34.4-35.9,59-34
		s34.4,40.9,59,43c24.6,2.1,34.4-31.8,59-33c24.6-1.3,34.4,26.6,59,27c24.6,0.4,34.4-28.1,59-25c24.6,3.1,34.4,38.8,59,40
		s34.4-35.5,59-34c24.6,1.5,34.4,42.7,59,41c24.6-1.7,34.4-49.6,59-49s34.4,48.5,59,52c24.6,3.5,34.4-33.1,59-35
		c24.6-1.9,46.7,20.6,59,26"/>
	<path class="st0" d="M-29.6,4275.1c10,1.7,25.6,14.3,47.9,8s34.4-39.5,59-38c24.6,1.5,34.4,42.7,59,45c24.6,2.3,34.4-35.9,59-34
		s34.4,40.9,59,43c24.6,2.1,34.4-31.8,59-33c24.6-1.3,34.4,26.6,59,27c24.6,0.4,34.4-28.1,59-25c24.6,3.1,34.4,38.8,59,40
		s34.4-35.5,59-34c24.6,1.5,34.4,42.7,59,41c24.6-1.7,34.4-49.6,59-49s34.4,48.5,59,52c24.6,3.5,34.4-33.1,59-35
		c24.6-1.9,46.7,20.6,59,26"/>
	<path class="st0" d="M-29.6,4230.1c10,1.7,25.6,14.3,47.9,8s34.4-39.5,59-38c24.6,1.5,34.4,42.7,59,45c24.6,2.3,34.4-35.9,59-34
		s34.4,40.9,59,43c24.6,2.1,34.4-31.8,59-33c24.6-1.3,34.4,26.6,59,27c24.6,0.4,34.4-28.1,59-25c24.6,3.1,34.4,38.8,59,40
		s34.4-35.5,59-34c24.6,1.5,34.4,42.7,59,41c24.6-1.7,34.4-49.6,59-49s34.4,48.5,59,52c24.6,3.5,34.4-33.1,59-35
		c24.6-1.9,46.7,20.6,59,26"/>
	<path class="st0" d="M-29.6,4185.1c10,1.7,25.6,14.3,47.9,8s34.4-39.5,59-38c24.6,1.5,34.4,42.7,59,45c24.6,2.3,34.4-35.9,59-34
		s34.4,40.9,59,43c24.6,2.1,34.4-31.8,59-33c24.6-1.3,34.4,26.6,59,27c24.6,0.4,34.4-28.1,59-25c24.6,3.1,34.4,38.8,59,40
		s34.4-35.5,59-34c24.6,1.5,34.4,42.7,59,41c24.6-1.7,34.4-49.6,59-49s34.4,48.5,59,52c24.6,3.5,34.4-33.1,59-35
		c24.6-1.9,46.7,20.6,59,26"/>
	<path class="st0" d="M-29.6,4140.1c10,1.7,25.6,14.3,47.9,8s34.4-39.5,59-38c24.6,1.5,34.4,42.7,59,45c24.6,2.3,34.4-35.9,59-34
		s34.4,40.9,59,43c24.6,2.1,34.4-31.8,59-33c24.6-1.3,34.4,26.6,59,27c24.6,0.4,34.4-28.1,59-25c24.6,3.1,34.4,38.8,59,40
		s34.4-35.5,59-34c24.6,1.5,34.4,42.7,59,41c24.6-1.7,34.4-49.6,59-49s34.4,48.5,59,52c24.6,3.5,34.4-33.1,59-35
		c24.6-1.9,46.7,20.6,59,26"/>
	<path class="st0" d="M-29.6,4095.1c10,1.7,25.6,14.2,47.9,8s34.4-39.5,59-38c24.6,1.5,34.4,42.7,59,45c24.6,2.3,34.4-35.9,59-34
		s34.4,40.9,59,43c24.6,2.1,34.4-31.7,59-33c24.6-1.3,34.4,26.6,59,27c24.6,0.4,34.4-28.1,59-25c24.6,3.1,34.4,38.7,59,40
		s34.4-35.5,59-34c24.6,1.5,34.4,42.7,59,41c24.6-1.7,34.4-49.6,59-49s34.4,48.5,59,52c24.6,3.5,34.4-33.1,59-35
		c24.6-1.9,46.7,20.6,59,26"/>
	<path class="st0" d="M-29.6,4050.1c10,1.7,25.6,14.3,47.9,8s34.4-39.5,59-38c24.6,1.5,34.4,42.7,59,45c24.6,2.3,34.4-35.9,59-34
		s34.4,40.9,59,43c24.6,2.1,34.4-31.8,59-33c24.6-1.3,34.4,26.6,59,27c24.6,0.4,34.4-28.1,59-25c24.6,3.1,34.4,38.8,59,40
		s34.4-35.5,59-34c24.6,1.5,34.4,42.7,59,41c24.6-1.7,34.4-49.6,59-49s34.4,48.5,59,52c24.6,3.5,34.4-33.1,59-35
		c24.6-1.9,46.7,20.6,59,26"/>
	<path class="st0" d="M-29.6,4005.1c10,1.7,25.6,14.3,47.9,8s34.4-39.5,59-38c24.6,1.5,34.4,42.7,59,45c24.6,2.3,34.4-35.9,59-34
		s34.4,40.9,59,43c24.6,2.1,34.4-31.8,59-33c24.6-1.3,34.4,26.6,59,27c24.6,0.4,34.4-28.1,59-25c24.6,3.1,34.4,38.8,59,40
		s34.4-35.5,59-34c24.6,1.5,34.4,42.7,59,41c24.6-1.7,34.4-49.6,59-49s34.4,48.5,59,52c24.6,3.5,34.4-33.1,59-35
		c24.6-1.9,46.7,20.6,59,26"/>
	<path class="st0" d="M-29.6,3960.1c10,1.7,25.6,14.3,47.9,8s34.4-39.5,59-38c24.6,1.5,34.4,42.7,59,45c24.6,2.3,34.4-35.9,59-34
		s34.4,40.9,59,43c24.6,2.1,34.4-31.8,59-33c24.6-1.3,34.4,26.6,59,27c24.6,0.4,34.4-28.1,59-25c24.6,3.1,34.4,38.8,59,40
		s34.4-35.5,59-34c24.6,1.5,34.4,42.7,59,41c24.6-1.7,34.4-49.6,59-49s34.4,48.5,59,52c24.6,3.5,34.4-33.1,59-35
		c24.6-1.9,46.7,20.6,59,26"/>
	<path class="st0" d="M-29.6,3915.1c10,1.7,25.6,14.3,47.9,8s34.4-39.5,59-38c24.6,1.5,34.4,42.7,59,45c24.6,2.3,34.4-35.9,59-34
		s34.4,40.9,59,43c24.6,2.1,34.4-31.8,59-33c24.6-1.3,34.4,26.6,59,27c24.6,0.4,34.4-28.1,59-25c24.6,3.1,34.4,38.8,59,40
		s34.4-35.5,59-34c24.6,1.5,34.4,42.7,59,41c24.6-1.7,34.4-49.6,59-49s34.4,48.5,59,52c24.6,3.5,34.4-33.1,59-35
		c24.6-1.9,46.7,20.6,59,26"/>
	<path class="st0" d="M-29.6,3870.1c10,1.7,25.6,14.3,47.9,8s34.4-39.5,59-38c24.6,1.5,34.4,42.7,59,45c24.6,2.3,34.4-35.9,59-34
		s34.4,40.9,59,43c24.6,2.1,34.4-31.8,59-33c24.6-1.3,34.4,26.6,59,27c24.6,0.4,34.4-28.1,59-25c24.6,3.1,34.4,38.8,59,40
		s34.4-35.5,59-34c24.6,1.5,34.4,42.7,59,41c24.6-1.7,34.4-49.6,59-49s34.4,48.5,59,52c24.6,3.5,34.4-33.1,59-35
		c24.6-1.9,46.7,20.6,59,26"/>
	<path class="st0" d="M-29.6,3825.1c10,1.7,25.6,14.3,47.9,8s34.4-39.5,59-38c24.6,1.5,34.4,42.7,59,45c24.6,2.3,34.4-35.9,59-34
		s34.4,40.9,59,43c24.6,2.1,34.4-31.8,59-33c24.6-1.3,34.4,26.6,59,27c24.6,0.4,34.4-28.1,59-25c24.6,3.1,34.4,38.8,59,40
		s34.4-35.5,59-34c24.6,1.5,34.4,42.7,59,41c24.6-1.7,34.4-49.6,59-49s34.4,48.5,59,52c24.6,3.5,34.4-33.1,59-35
		c24.6-1.9,46.7,20.6,59,26"/>
	<path class="st0" d="M-29.6,3780.1c10,1.7,25.6,14.3,47.9,8s34.4-39.5,59-38c24.6,1.5,34.4,42.7,59,45c24.6,2.3,34.4-35.9,59-34
		s34.4,40.9,59,43c24.6,2.1,34.4-31.8,59-33c24.6-1.3,34.4,26.6,59,27c24.6,0.4,34.4-28.1,59-25c24.6,3.1,34.4,38.8,59,40
		s34.4-35.5,59-34c24.6,1.5,34.4,42.7,59,41c24.6-1.7,34.4-49.6,59-49s34.4,48.5,59,52c24.6,3.5,34.4-33.1,59-35
		c24.6-1.9,46.7,20.6,59,26"/>
	<path class="st0" d="M-29.6,3735.1c10,1.7,25.6,14.3,47.9,8s34.4-39.5,59-38c24.6,1.5,34.4,42.7,59,45c24.6,2.3,34.4-35.9,59-34
		s34.4,40.9,59,43c24.6,2.1,34.4-31.8,59-33c24.6-1.3,34.4,26.6,59,27c24.6,0.4,34.4-28.1,59-25c24.6,3.1,34.4,38.8,59,40
		s34.4-35.5,59-34c24.6,1.5,34.4,42.7,59,41c24.6-1.7,34.4-49.6,59-49s34.4,48.5,59,52c24.6,3.5,34.4-33.1,59-35
		c24.6-1.9,46.7,20.6,59,26"/>
	<path class="st0" d="M-29.6,3690.1c10,1.7,25.6,14.3,47.9,8s34.4-39.5,59-38c24.6,1.5,34.4,42.7,59,45c24.6,2.3,34.4-35.9,59-34
		s34.4,40.9,59,43c24.6,2.1,34.4-31.8,59-33c24.6-1.3,34.4,26.6,59,27c24.6,0.4,34.4-28.1,59-25c24.6,3.1,34.4,38.8,59,40
		s34.4-35.5,59-34c24.6,1.5,34.4,42.7,59,41c24.6-1.7,34.4-49.6,59-49s34.4,48.5,59,52c24.6,3.5,34.4-33.1,59-35
		c24.6-1.9,46.7,20.6,59,26"/>
	<path class="st0" d="M-29.6,3645.1c10,1.7,25.6,14.3,47.9,8s34.4-39.5,59-38c24.6,1.5,34.4,42.7,59,45c24.6,2.3,34.4-35.9,59-34
		s34.4,40.9,59,43c24.6,2.1,34.4-31.8,59-33c24.6-1.3,34.4,26.6,59,27c24.6,0.4,34.4-28.1,59-25c24.6,3.1,34.4,38.8,59,40
		s34.4-35.5,59-34c24.6,1.5,34.4,42.7,59,41c24.6-1.7,34.4-49.6,59-49s34.4,48.5,59,52c24.6,3.5,34.4-33.1,59-35
		c24.6-1.9,46.7,20.6,59,26"/>
	<path class="st0" d="M-29.6,3600.1c10,1.7,25.6,14.3,47.9,8s34.4-39.5,59-38c24.6,1.5,34.4,42.7,59,45c24.6,2.3,34.4-35.9,59-34
		s34.4,40.9,59,43c24.6,2.1,34.4-31.8,59-33c24.6-1.3,34.4,26.6,59,27c24.6,0.4,34.4-28.1,59-25c24.6,3.1,34.4,38.8,59,40
		s34.4-35.5,59-34c24.6,1.5,34.4,42.7,59,41c24.6-1.7,34.4-49.6,59-49s34.4,48.5,59,52c24.6,3.5,34.4-33.1,59-35
		c24.6-1.9,46.7,20.6,59,26"/>
	<path class="st0" d="M-29.6,3555.1c10,1.7,25.6,14.3,47.9,8s34.4-39.5,59-38c24.6,1.5,34.4,42.7,59,45c24.6,2.3,34.4-35.9,59-34
		s34.4,40.9,59,43c24.6,2.1,34.4-31.8,59-33c24.6-1.3,34.4,26.6,59,27c24.6,0.4,34.4-28.1,59-25c24.6,3.1,34.4,38.8,59,40
		s34.4-35.5,59-34c24.6,1.5,34.4,42.7,59,41c24.6-1.7,34.4-49.6,59-49s34.4,48.5,59,52c24.6,3.5,34.4-33.1,59-35
		c24.6-1.9,46.7,20.6,59,26"/>
	<path class="st0" d="M-29.6,3510.1c10,1.7,25.6,14.3,47.9,8s34.4-39.5,59-38c24.6,1.5,34.4,42.7,59,45c24.6,2.3,34.4-35.9,59-34
		s34.4,40.9,59,43c24.6,2.1,34.4-31.8,59-33c24.6-1.3,34.4,26.6,59,27c24.6,0.4,34.4-28.1,59-25c24.6,3.1,34.4,38.8,59,40
		s34.4-35.5,59-34c24.6,1.5,34.4,42.7,59,41c24.6-1.7,34.4-49.6,59-49s34.4,48.5,59,52c24.6,3.5,34.4-33.1,59-35
		c24.6-1.9,46.7,20.6,59,26"/>
	<path class="st0" d="M-29.6,3465.1c10,1.7,25.6,14.3,47.9,8s34.4-39.5,59-38c24.6,1.5,34.4,42.7,59,45c24.6,2.3,34.4-35.9,59-34
		s34.4,40.9,59,43c24.6,2.1,34.4-31.8,59-33c24.6-1.3,34.4,26.6,59,27c24.6,0.4,34.4-28.1,59-25c24.6,3.1,34.4,38.8,59,40
		s34.4-35.5,59-34c24.6,1.5,34.4,42.7,59,41c24.6-1.7,34.4-49.6,59-49s34.4,48.5,59,52c24.6,3.5,34.4-33.1,59-35
		c24.6-1.9,46.7,20.6,59,26"/>
	<path class="st0" d="M-29.6,3420.1c10,1.7,25.6,14.3,47.9,8s34.4-39.5,59-38c24.6,1.5,34.4,42.7,59,45c24.6,2.3,34.4-35.9,59-34
		s34.4,40.9,59,43c24.6,2.1,34.4-31.8,59-33c24.6-1.3,34.4,26.6,59,27c24.6,0.4,34.4-28.1,59-25c24.6,3.1,34.4,38.8,59,40
		s34.4-35.5,59-34c24.6,1.5,34.4,42.7,59,41c24.6-1.7,34.4-49.6,59-49s34.4,48.5,59,52c24.6,3.5,34.4-33.1,59-35
		c24.6-1.9,46.7,20.6,59,26"/>
	<path class="st0" d="M-29.6,3375.1c10,1.7,25.6,14.3,47.9,8s34.4-39.5,59-38c24.6,1.5,34.4,42.7,59,45c24.6,2.3,34.4-35.9,59-34
		s34.4,40.9,59,43c24.6,2.1,34.4-31.8,59-33c24.6-1.3,34.4,26.6,59,27c24.6,0.4,34.4-28.1,59-25c24.6,3.1,34.4,38.8,59,40
		s34.4-35.5,59-34c24.6,1.5,34.4,42.7,59,41c24.6-1.7,34.4-49.6,59-49s34.4,48.5,59,52c24.6,3.5,34.4-33.1,59-35
		c24.6-1.9,46.7,20.6,59,26"/>
	<path class="st0" d="M-29.6,3330.1c10,1.7,25.6,14.3,47.9,8s34.4-39.5,59-38c24.6,1.5,34.4,42.7,59,45c24.6,2.3,34.4-35.9,59-34
		s34.4,40.9,59,43c24.6,2.1,34.4-31.8,59-33c24.6-1.3,34.4,26.6,59,27c24.6,0.4,34.4-28.1,59-25c24.6,3.1,34.4,38.8,59,40
		s34.4-35.5,59-34c24.6,1.5,34.4,42.7,59,41c24.6-1.7,34.4-49.6,59-49s34.4,48.5,59,52c24.6,3.5,34.4-33.1,59-35
		c24.6-1.9,46.7,20.6,59,26"/>
	<path class="st0" d="M-29.6,3285.1c10,1.7,25.6,14.3,47.9,8s34.4-39.5,59-38c24.6,1.5,34.4,42.7,59,45c24.6,2.3,34.4-35.9,59-34
		s34.4,40.9,59,43c24.6,2.1,34.4-31.8,59-33c24.6-1.3,34.4,26.6,59,27c24.6,0.4,34.4-28.1,59-25c24.6,3.1,34.4,38.8,59,40
		s34.4-35.5,59-34c24.6,1.5,34.4,42.7,59,41c24.6-1.7,34.4-49.6,59-49s34.4,48.5,59,52c24.6,3.5,34.4-33.1,59-35
		c24.6-1.9,46.7,20.6,59,26"/>
	<path class="st0" d="M-29.6,3240.1c10,1.7,25.6,14.3,47.9,8s34.4-39.5,59-38c24.6,1.5,34.4,42.7,59,45c24.6,2.3,34.4-35.9,59-34
		s34.4,40.9,59,43c24.6,2.1,34.4-31.8,59-33c24.6-1.3,34.4,26.6,59,27c24.6,0.4,34.4-28.1,59-25c24.6,3.1,34.4,38.8,59,40
		s34.4-35.5,59-34c24.6,1.5,34.4,42.7,59,41c24.6-1.7,34.4-49.6,59-49s34.4,48.5,59,52c24.6,3.5,34.4-33.1,59-35
		c24.6-1.9,46.7,20.6,59,26"/>
	<path class="st0" d="M-29.6,3195.1c10,1.7,25.6,14.3,47.9,8s34.4-39.5,59-38c24.6,1.5,34.4,42.7,59,45c24.6,2.3,34.4-35.9,59-34
		s34.4,40.9,59,43c24.6,2.1,34.4-31.8,59-33c24.6-1.3,34.4,26.6,59,27c24.6,0.4,34.4-28.1,59-25c24.6,3.1,34.4,38.8,59,40
		s34.4-35.5,59-34c24.6,1.5,34.4,42.7,59,41c24.6-1.7,34.4-49.6,59-49s34.4,48.5,59,52c24.6,3.5,34.4-33.1,59-35
		c24.6-1.9,46.7,20.6,59,26"/>
	<path class="st0" d="M-29.6,3150.1c10,1.7,25.6,14.3,47.9,8s34.4-39.5,59-38c24.6,1.5,34.4,42.7,59,45c24.6,2.3,34.4-35.9,59-34
		s34.4,40.9,59,43c24.6,2.1,34.4-31.8,59-33c24.6-1.3,34.4,26.6,59,27c24.6,0.4,34.4-28.1,59-25c24.6,3.1,34.4,38.8,59,40
		s34.4-35.5,59-34c24.6,1.5,34.4,42.7,59,41c24.6-1.7,34.4-49.6,59-49s34.4,48.5,59,52c24.6,3.5,34.4-33.1,59-35
		c24.6-1.9,46.7,20.6,59,26"/>
	<path class="st0" d="M-29.6,3105.1c10,1.7,25.6,14.3,47.9,8s34.4-39.5,59-38c24.6,1.5,34.4,42.7,59,45c24.6,2.3,34.4-35.9,59-34
		s34.4,40.9,59,43c24.6,2.1,34.4-31.8,59-33c24.6-1.3,34.4,26.6,59,27c24.6,0.4,34.4-28.1,59-25c24.6,3.1,34.4,38.8,59,40
		s34.4-35.5,59-34c24.6,1.5,34.4,42.7,59,41c24.6-1.7,34.4-49.6,59-49s34.4,48.5,59,52c24.6,3.5,34.4-33.1,59-35
		c24.6-1.9,46.7,20.6,59,26"/>
	<path class="st0" d="M-29.6,3060.1c10,1.7,25.6,14.3,47.9,8s34.4-39.5,59-38c24.6,1.5,34.4,42.7,59,45c24.6,2.3,34.4-35.9,59-34
		s34.4,40.9,59,43c24.6,2.1,34.4-31.8,59-33c24.6-1.3,34.4,26.6,59,27c24.6,0.4,34.4-28.1,59-25c24.6,3.1,34.4,38.8,59,40
		s34.4-35.5,59-34c24.6,1.5,34.4,42.7,59,41c24.6-1.7,34.4-49.6,59-49s34.4,48.5,59,52c24.6,3.5,34.4-33.1,59-35
		c24.6-1.9,46.7,20.6,59,26"/>
	<path class="st0" d="M-29.6,3015.1c10,1.7,25.6,14.3,47.9,8s34.4-39.5,59-38c24.6,1.5,34.4,42.7,59,45c24.6,2.3,34.4-35.9,59-34
		s34.4,40.9,59,43c24.6,2.1,34.4-31.8,59-33c24.6-1.3,34.4,26.6,59,27c24.6,0.4,34.4-28.1,59-25c24.6,3.1,34.4,38.8,59,40
		s34.4-35.5,59-34c24.6,1.5,34.4,42.7,59,41c24.6-1.7,34.4-49.6,59-49s34.4,48.5,59,52c24.6,3.5,34.4-33.1,59-35
		c24.6-1.9,46.7,20.6,59,26"/>
	<path class="st0" d="M-29.6,2970.1c10,1.7,25.6,14.3,47.9,8s34.4-39.5,59-38c24.6,1.5,34.4,42.7,59,45c24.6,2.3,34.4-35.9,59-34
		s34.4,40.9,59,43c24.6,2.1,34.4-31.8,59-33c24.6-1.3,34.4,26.6,59,27c24.6,0.4,34.4-28.1,59-25c24.6,3.1,34.4,38.8,59,40
		s34.4-35.5,59-34c24.6,1.5,34.4,42.7,59,41c24.6-1.7,34.4-49.6,59-49s34.4,48.5,59,52c24.6,3.5,34.4-33.1,59-35
		c24.6-1.9,46.7,20.6,59,26"/>
	<path class="st0" d="M-29.6,2925.1c10,1.7,25.6,14.3,47.9,8s34.4-39.5,59-38c24.6,1.5,34.4,42.7,59,45c24.6,2.3,34.4-35.9,59-34
		s34.4,40.9,59,43c24.6,2.1,34.4-31.8,59-33c24.6-1.3,34.4,26.6,59,27c24.6,0.4,34.4-28.1,59-25c24.6,3.1,34.4,38.8,59,40
		s34.4-35.5,59-34c24.6,1.5,34.4,42.7,59,41c24.6-1.7,34.4-49.6,59-49s34.4,48.5,59,52c24.6,3.5,34.4-33.1,59-35
		c24.6-1.9,46.7,20.6,59,26"/>
	<path class="st0" d="M-29.6,2880.1c10,1.7,25.6,14.3,47.9,8s34.4-39.5,59-38c24.6,1.5,34.4,42.7,59,45c24.6,2.3,34.4-35.9,59-34
		s34.4,40.9,59,43c24.6,2.1,34.4-31.8,59-33c24.6-1.3,34.4,26.6,59,27c24.6,0.4,34.4-28.1,59-25c24.6,3.1,34.4,38.8,59,40
		s34.4-35.5,59-34c24.6,1.5,34.4,42.7,59,41c24.6-1.7,34.4-49.6,59-49s34.4,48.5,59,52c24.6,3.5,34.4-33.1,59-35
		c24.6-1.9,46.7,20.6,59,26"/>
	<path class="st0" d="M-29.6,2835.1c10,1.7,25.6,14.3,47.9,8s34.4-39.5,59-38c24.6,1.5,34.4,42.7,59,45c24.6,2.3,34.4-35.9,59-34
		s34.4,40.9,59,43c24.6,2.1,34.4-31.8,59-33c24.6-1.3,34.4,26.6,59,27c24.6,0.4,34.4-28.1,59-25c24.6,3.1,34.4,38.8,59,40
		s34.4-35.5,59-34c24.6,1.5,34.4,42.7,59,41c24.6-1.7,34.4-49.6,59-49s34.4,48.5,59,52c24.6,3.5,34.4-33.1,59-35
		c24.6-1.9,46.7,20.6,59,26"/>
	<path class="st0" d="M-29.6,2790.1c10,1.7,25.6,14.3,47.9,8s34.4-39.5,59-38c24.6,1.5,34.4,42.7,59,45c24.6,2.3,34.4-35.9,59-34
		s34.4,40.9,59,43c24.6,2.1,34.4-31.8,59-33c24.6-1.3,34.4,26.6,59,27c24.6,0.4,34.4-28.1,59-25c24.6,3.1,34.4,38.8,59,40
		s34.4-35.5,59-34c24.6,1.5,34.4,42.7,59,41c24.6-1.7,34.4-49.6,59-49s34.4,48.5,59,52c24.6,3.5,34.4-33.1,59-35
		c24.6-1.9,46.7,20.6,59,26"/>
	<path class="st0" d="M-29.6,2745.1c10,1.7,25.6,14.3,47.9,8s34.4-39.5,59-38c24.6,1.5,34.4,42.7,59,45c24.6,2.3,34.4-35.9,59-34
		s34.4,40.9,59,43c24.6,2.1,34.4-31.8,59-33c24.6-1.3,34.4,26.6,59,27c24.6,0.4,34.4-28.1,59-25c24.6,3.1,34.4,38.8,59,40
		s34.4-35.5,59-34c24.6,1.5,34.4,42.7,59,41c24.6-1.7,34.4-49.6,59-49s34.4,48.5,59,52c24.6,3.5,34.4-33.1,59-35
		c24.6-1.9,46.7,20.6,59,26"/>
	<path class="st0" d="M-29.6,2700.1c10,1.7,25.6,14.3,47.9,8s34.4-39.5,59-38c24.6,1.5,34.4,42.7,59,45c24.6,2.3,34.4-35.9,59-34
		s34.4,40.9,59,43c24.6,2.1,34.4-31.8,59-33c24.6-1.3,34.4,26.6,59,27c24.6,0.4,34.4-28.1,59-25c24.6,3.1,34.4,38.8,59,40
		s34.4-35.5,59-34c24.6,1.5,34.4,42.7,59,41c24.6-1.7,34.4-49.6,59-49s34.4,48.5,59,52c24.6,3.5,34.4-33.1,59-35
		c24.6-1.9,46.7,20.6,59,26"/>
	<path class="st0" d="M-29.6,2655.1c10,1.7,25.6,14.3,47.9,8s34.4-39.5,59-38c24.6,1.5,34.4,42.7,59,45c24.6,2.3,34.4-35.9,59-34
		s34.4,40.9,59,43c24.6,2.1,34.4-31.8,59-33c24.6-1.3,34.4,26.6,59,27c24.6,0.4,34.4-28.1,59-25c24.6,3.1,34.4,38.8,59,40
		s34.4-35.5,59-34c24.6,1.5,34.4,42.7,59,41c24.6-1.7,34.4-49.6,59-49s34.4,48.5,59,52c24.6,3.5,34.4-33.1,59-35
		c24.6-1.9,46.7,20.6,59,26"/>
	<path class="st0" d="M-29.6,2610.1c10,1.7,25.6,14.3,47.9,8s34.4-39.5,59-38c24.6,1.5,34.4,42.7,59,45c24.6,2.3,34.4-35.9,59-34
		s34.4,40.9,59,43c24.6,2.1,34.4-31.8,59-33c24.6-1.3,34.4,26.6,59,27c24.6,0.4,34.4-28.1,59-25c24.6,3.1,34.4,38.8,59,40
		s34.4-35.5,59-34c24.6,1.5,34.4,42.7,59,41c24.6-1.7,34.4-49.6,59-49s34.4,48.5,59,52c24.6,3.5,34.4-33.1,59-35
		c24.6-1.9,46.7,20.6,59,26"/>
	<path class="st0" d="M-29.6,2565.1c10,1.7,25.6,14.3,47.9,8s34.4-39.5,59-38c24.6,1.5,34.4,42.7,59,45c24.6,2.3,34.4-35.9,59-34
		s34.4,40.9,59,43c24.6,2.1,34.4-31.8,59-33c24.6-1.3,34.4,26.6,59,27c24.6,0.4,34.4-28.1,59-25c24.6,3.1,34.4,38.8,59,40
		s34.4-35.5,59-34c24.6,1.5,34.4,42.7,59,41c24.6-1.7,34.4-49.6,59-49s34.4,48.5,59,52c24.6,3.5,34.4-33.1,59-35
		c24.6-1.9,46.7,20.6,59,26"/>
	<path class="st0" d="M-29.6,2520.1c10,1.7,25.6,14.3,47.9,8s34.4-39.5,59-38c24.6,1.5,34.4,42.7,59,45c24.6,2.3,34.4-35.9,59-34
		s34.4,40.9,59,43c24.6,2.1,34.4-31.8,59-33c24.6-1.3,34.4,26.6,59,27c24.6,0.4,34.4-28.1,59-25c24.6,3.1,34.4,38.8,59,40
		s34.4-35.5,59-34c24.6,1.5,34.4,42.7,59,41c24.6-1.7,34.4-49.6,59-49s34.4,48.5,59,52c24.6,3.5,34.4-33.1,59-35
		c24.6-1.9,46.7,20.6,59,26"/>
	<path class="st0" d="M-29.6,2475.1c10,1.7,25.6,14.3,47.9,8s34.4-39.5,59-38c24.6,1.5,34.4,42.7,59,45c24.6,2.3,34.4-35.9,59-34
		s34.4,40.9,59,43c24.6,2.1,34.4-31.8,59-33c24.6-1.3,34.4,26.6,59,27c24.6,0.4,34.4-28.1,59-25c24.6,3.1,34.4,38.8,59,40
		s34.4-35.5,59-34c24.6,1.5,34.4,42.7,59,41c24.6-1.7,34.4-49.6,59-49s34.4,48.5,59,52c24.6,3.5,34.4-33.1,59-35
		c24.6-1.9,46.7,20.6,59,26"/>
	<path class="st0" d="M-29.6,2430.1c10,1.7,25.6,14.3,47.9,8s34.4-39.5,59-38c24.6,1.5,34.4,42.7,59,45c24.6,2.3,34.4-35.9,59-34
		s34.4,40.9,59,43c24.6,2.1,34.4-31.8,59-33c24.6-1.3,34.4,26.6,59,27c24.6,0.4,34.4-28.1,59-25c24.6,3.1,34.4,38.8,59,40
		s34.4-35.5,59-34c24.6,1.5,34.4,42.7,59,41c24.6-1.7,34.4-49.6,59-49s34.4,48.5,59,52c24.6,3.5,34.4-33.1,59-35
		c24.6-1.9,46.7,20.6,59,26"/>
	<path class="st0" d="M-29.6,2385.1c10,1.7,25.6,14.3,47.9,8s34.4-39.5,59-38c24.6,1.5,34.4,42.7,59,45c24.6,2.3,34.4-35.9,59-34
		s34.4,40.9,59,43c24.6,2.1,34.4-31.8,59-33c24.6-1.3,34.4,26.6,59,27c24.6,0.4,34.4-28.1,59-25c24.6,3.1,34.4,38.8,59,40
		s34.4-35.5,59-34c24.6,1.5,34.4,42.7,59,41c24.6-1.7,34.4-49.6,59-49s34.4,48.5,59,52c24.6,3.5,34.4-33.1,59-35
		c24.6-1.9,46.7,20.6,59,26"/>
	<path class="st0" d="M-29.6,2340.1c10,1.7,25.6,14.3,47.9,8s34.4-39.5,59-38c24.6,1.5,34.4,42.7,59,45c24.6,2.3,34.4-35.9,59-34
		s34.4,40.9,59,43c24.6,2.1,34.4-31.8,59-33c24.6-1.3,34.4,26.6,59,27c24.6,0.4,34.4-28.1,59-25c24.6,3.1,34.4,38.8,59,40
		s34.4-35.5,59-34c24.6,1.5,34.4,42.7,59,41c24.6-1.7,34.4-49.6,59-49s34.4,48.5,59,52c24.6,3.5,34.4-33.1,59-35
		c24.6-1.9,46.7,20.6,59,26"/>
	<path class="st0" d="M-29.6,2295.1c10,1.7,25.6,14.3,47.9,8s34.4-39.5,59-38c24.6,1.5,34.4,42.7,59,45c24.6,2.3,34.4-35.9,59-34
		s34.4,40.9,59,43c24.6,2.1,34.4-31.8,59-33c24.6-1.3,34.4,26.6,59,27c24.6,0.4,34.4-28.1,59-25c24.6,3.1,34.4,38.8,59,40
		s34.4-35.5,59-34c24.6,1.5,34.4,42.7,59,41c24.6-1.7,34.4-49.6,59-49s34.4,48.5,59,52c24.6,3.5,34.4-33.1,59-35
		c24.6-1.9,46.7,20.6,59,26"/>
	<path class="st0" d="M-29.6,2250.1c10,1.7,25.6,14.3,47.9,8s34.4-39.5,59-38c24.6,1.5,34.4,42.7,59,45c24.6,2.3,34.4-35.9,59-34
		s34.4,40.9,59,43c24.6,2.1,34.4-31.8,59-33c24.6-1.3,34.4,26.6,59,27c24.6,0.4,34.4-28.1,59-25c24.6,3.1,34.4,38.8,59,40
		s34.4-35.5,59-34c24.6,1.5,34.4,42.7,59,41c24.6-1.7,34.4-49.6,59-49s34.4,48.5,59,52c24.6,3.5,34.4-33.1,59-35
		c24.6-1.9,46.7,20.6,59,26"/>
	<path class="st0" d="M-29.6,2205.1c10,1.7,25.6,14.3,47.9,8s34.4-39.5,59-38c24.6,1.5,34.4,42.7,59,45c24.6,2.3,34.4-35.9,59-34
		s34.4,40.9,59,43c24.6,2.1,34.4-31.8,59-33c24.6-1.3,34.4,26.6,59,27c24.6,0.4,34.4-28.1,59-25c24.6,3.1,34.4,38.8,59,40
		s34.4-35.5,59-34c24.6,1.5,34.4,42.7,59,41c24.6-1.7,34.4-49.6,59-49s34.4,48.5,59,52c24.6,3.5,34.4-33.1,59-35
		c24.6-1.9,46.7,20.6,59,26"/>
	<path class="st0" d="M-29.6,2160.1c10,1.7,25.6,14.3,47.9,8s34.4-39.5,59-38c24.6,1.5,34.4,42.7,59,45c24.6,2.3,34.4-35.9,59-34
		s34.4,40.9,59,43c24.6,2.1,34.4-31.8,59-33c24.6-1.3,34.4,26.6,59,27c24.6,0.4,34.4-28.1,59-25c24.6,3.1,34.4,38.8,59,40
		s34.4-35.5,59-34c24.6,1.5,34.4,42.7,59,41c24.6-1.7,34.4-49.6,59-49s34.4,48.5,59,52c24.6,3.5,34.4-33.1,59-35
		c24.6-1.9,46.7,20.6,59,26"/>
	<path class="st0" d="M-29.6,2115.1c10,1.7,25.6,14.3,47.9,8s34.4-39.5,59-38c24.6,1.5,34.4,42.7,59,45c24.6,2.3,34.4-35.9,59-34
		s34.4,40.9,59,43c24.6,2.1,34.4-31.8,59-33c24.6-1.3,34.4,26.6,59,27c24.6,0.4,34.4-28.1,59-25c24.6,3.1,34.4,38.8,59,40
		s34.4-35.5,59-34c24.6,1.5,34.4,42.7,59,41c24.6-1.7,34.4-49.6,59-49s34.4,48.5,59,52c24.6,3.5,34.4-33.1,59-35
		c24.6-1.9,46.7,20.6,59,26"/>
	<path class="st0" d="M-29.6,2070.1c10,1.7,25.6,14.3,47.9,8s34.4-39.5,59-38s34.4,42.7,59,45c24.6,2.3,34.4-35.9,59-34
		s34.4,40.9,59,43c24.6,2.1,34.4-31.8,59-33c24.6-1.3,34.4,26.6,59,27c24.6,0.4,34.4-28.1,59-25c24.6,3.1,34.4,38.8,59,40
		s34.4-35.5,59-34c24.6,1.5,34.4,42.7,59,41c24.6-1.7,34.4-49.6,59-49s34.4,48.5,59,52c24.6,3.5,34.4-33.1,59-35
		c24.6-1.9,46.7,20.6,59,26"/>
	<path class="st0" d="M-29.6,2025.1c10,1.7,25.6,14.3,47.9,8s34.4-39.5,59-38s34.4,42.7,59,45s34.4-35.9,59-34s34.4,40.9,59,43
		c24.6,2.1,34.4-31.8,59-33c24.6-1.3,34.4,26.6,59,27s34.4-28.1,59-25c24.6,3.1,34.4,38.8,59,40s34.4-35.5,59-34
		c24.6,1.5,34.4,42.7,59,41c24.6-1.7,34.4-49.6,59-49s34.4,48.5,59,52c24.6,3.5,34.4-33.1,59-35c24.6-1.9,46.7,20.6,59,26"/>
	<path class="st0" d="M-29.6,1980.1c10,1.7,25.6,14.3,47.9,8s34.4-39.5,59-38s34.4,42.7,59,45s34.4-35.9,59-34s34.4,40.9,59,43
		s34.4-31.8,59-33c24.6-1.3,34.4,26.6,59,27s34.4-28.1,59-25c24.6,3.1,34.4,38.8,59,40s34.4-35.5,59-34c24.6,1.5,34.4,42.7,59,41
		s34.4-49.6,59-49s34.4,48.5,59,52c24.6,3.5,34.4-33.1,59-35c24.6-1.9,46.7,20.6,59,26"/>
	<path class="st0" d="M-29.6,1935.1c10,1.7,25.6,14.3,47.9,8s34.4-39.5,59-38s34.4,42.7,59,45s34.4-35.9,59-34s34.4,40.9,59,43
		s34.4-31.8,59-33c24.6-1.3,34.4,26.6,59,27s34.4-28.1,59-25c24.6,3.1,34.4,38.8,59,40s34.4-35.5,59-34c24.6,1.5,34.4,42.7,59,41
		s34.4-49.6,59-49s34.4,48.5,59,52c24.6,3.5,34.4-33.1,59-35c24.6-1.9,46.7,20.6,59,26"/>
	<path class="st0" d="M-29.6,1890.1c10,1.7,25.6,14.3,47.9,8s34.4-39.5,59-38s34.4,42.7,59,45s34.4-35.9,59-34s34.4,40.9,59,43
		s34.4-31.8,59-33c24.6-1.3,34.4,26.6,59,27s34.4-28.1,59-25c24.6,3.1,34.4,38.8,59,40s34.4-35.5,59-34c24.6,1.5,34.4,42.7,59,41
		s34.4-49.6,59-49s34.4,48.5,59,52c24.6,3.5,34.4-33.1,59-35c24.6-1.9,46.7,20.6,59,26"/>
	<path class="st0" d="M-29.6,1845.1c10,1.7,25.6,14.3,47.9,8s34.4-39.5,59-38s34.4,42.7,59,45s34.4-35.9,59-34s34.4,40.9,59,43
		s34.4-31.8,59-33c24.6-1.3,34.4,26.6,59,27s34.4-28.1,59-25c24.6,3.1,34.4,38.8,59,40s34.4-35.5,59-34c24.6,1.5,34.4,42.7,59,41
		s34.4-49.6,59-49s34.4,48.5,59,52c24.6,3.5,34.4-33.1,59-35c24.6-1.9,46.7,20.6,59,26"/>
	<path class="st0" d="M-29.6,1800.1c10,1.7,25.6,14.3,47.9,8s34.4-39.5,59-38s34.4,42.7,59,45s34.4-35.9,59-34s34.4,40.9,59,43
		s34.4-31.8,59-33c24.6-1.3,34.4,26.6,59,27s34.4-28.1,59-25c24.6,3.1,34.4,38.8,59,40s34.4-35.5,59-34c24.6,1.5,34.4,42.7,59,41
		s34.4-49.6,59-49s34.4,48.5,59,52c24.6,3.5,34.4-33.1,59-35c24.6-1.9,46.7,20.6,59,26"/>
	<path class="st0" d="M-29.6,1755.1c10,1.7,25.6,14.3,47.9,8s34.4-39.5,59-38s34.4,42.7,59,45s34.4-35.9,59-34s34.4,40.9,59,43
		s34.4-31.8,59-33c24.6-1.3,34.4,26.6,59,27s34.4-28.1,59-25c24.6,3.1,34.4,38.8,59,40s34.4-35.5,59-34c24.6,1.5,34.4,42.7,59,41
		s34.4-49.6,59-49s34.4,48.5,59,52c24.6,3.5,34.4-33.1,59-35c24.6-1.9,46.7,20.6,59,26"/>
	<path class="st0" d="M-29.6,1710.1c10,1.7,25.6,14.3,47.9,8s34.4-39.5,59-38s34.4,42.7,59,45s34.4-35.9,59-34s34.4,40.9,59,43
		s34.4-31.8,59-33c24.6-1.3,34.4,26.6,59,27s34.4-28.1,59-25c24.6,3.1,34.4,38.8,59,40s34.4-35.5,59-34c24.6,1.5,34.4,42.7,59,41
		s34.4-49.6,59-49s34.4,48.5,59,52c24.6,3.5,34.4-33.1,59-35c24.6-1.9,46.7,20.6,59,26"/>
	<path class="st0" d="M-29.6,1665.1c10,1.7,25.6,14.3,47.9,8s34.4-39.5,59-38s34.4,42.7,59,45s34.4-35.9,59-34s34.4,40.9,59,43
		s34.4-31.8,59-33c24.6-1.3,34.4,26.6,59,27s34.4-28.1,59-25c24.6,3.1,34.4,38.8,59,40s34.4-35.5,59-34c24.6,1.5,34.4,42.7,59,41
		s34.4-49.6,59-49s34.4,48.5,59,52c24.6,3.5,34.4-33.1,59-35c24.6-1.9,46.7,20.6,59,26"/>
	<path class="st0" d="M-29.6,1620.1c10,1.7,25.6,14.3,47.9,8s34.4-39.5,59-38s34.4,42.7,59,45s34.4-35.9,59-34s34.4,40.9,59,43
		s34.4-31.8,59-33c24.6-1.3,34.4,26.6,59,27s34.4-28.1,59-25c24.6,3.1,34.4,38.8,59,40s34.4-35.5,59-34c24.6,1.5,34.4,42.7,59,41
		s34.4-49.6,59-49s34.4,48.5,59,52c24.6,3.5,34.4-33.1,59-35c24.6-1.9,46.7,20.6,59,26"/>
	<path class="st0" d="M-29.6,1575.1c10,1.7,25.6,14.3,47.9,8s34.4-39.5,59-38s34.4,42.7,59,45s34.4-35.9,59-34s34.4,40.9,59,43
		s34.4-31.8,59-33c24.6-1.3,34.4,26.6,59,27s34.4-28.1,59-25c24.6,3.1,34.4,38.8,59,40s34.4-35.5,59-34c24.6,1.5,34.4,42.7,59,41
		s34.4-49.6,59-49s34.4,48.5,59,52c24.6,3.5,34.4-33.1,59-35c24.6-1.9,46.7,20.6,59,26"/>
	<path class="st0" d="M-29.6,1530.1c10,1.7,25.6,14.3,47.9,8s34.4-39.5,59-38s34.4,42.7,59,45s34.4-35.9,59-34s34.4,40.9,59,43
		s34.4-31.8,59-33c24.6-1.3,34.4,26.6,59,27s34.4-28.1,59-25c24.6,3.1,34.4,38.8,59,40s34.4-35.5,59-34c24.6,1.5,34.4,42.7,59,41
		s34.4-49.6,59-49s34.4,48.5,59,52c24.6,3.5,34.4-33.1,59-35c24.6-1.9,46.7,20.6,59,26"/>
	<path class="st0" d="M-29.6,1485.1c10,1.7,25.6,14.3,47.9,8s34.4-39.5,59-38s34.4,42.7,59,45s34.4-35.9,59-34s34.4,40.9,59,43
		s34.4-31.8,59-33c24.6-1.3,34.4,26.6,59,27s34.4-28.1,59-25c24.6,3.1,34.4,38.8,59,40s34.4-35.5,59-34c24.6,1.5,34.4,42.7,59,41
		s34.4-49.6,59-49s34.4,48.5,59,52c24.6,3.5,34.4-33.1,59-35c24.6-1.9,46.7,20.6,59,26"/>
	<path class="st0" d="M-29.6,1440.1c10,1.7,25.6,14.3,47.9,8s34.4-39.5,59-38s34.4,42.7,59,45s34.4-35.9,59-34s34.4,40.9,59,43
		s34.4-31.8,59-33c24.6-1.3,34.4,26.6,59,27s34.4-28.1,59-25c24.6,3.1,34.4,38.8,59,40s34.4-35.5,59-34c24.6,1.5,34.4,42.7,59,41
		s34.4-49.6,59-49s34.4,48.5,59,52c24.6,3.5,34.4-33.1,59-35c24.6-1.9,46.7,20.6,59,26"/>
	<path class="st0" d="M-29.6,1395.1c10,1.7,25.6,14.3,47.9,8s34.4-39.5,59-38s34.4,42.7,59,45s34.4-35.9,59-34s34.4,40.9,59,43
		s34.4-31.8,59-33c24.6-1.3,34.4,26.6,59,27s34.4-28.1,59-25c24.6,3.1,34.4,38.8,59,40s34.4-35.5,59-34c24.6,1.5,34.4,42.7,59,41
		s34.4-49.6,59-49s34.4,48.5,59,52c24.6,3.5,34.4-33.1,59-35c24.6-1.9,46.7,20.6,59,26"/>
	<path class="st0" d="M-29.6,1350.1c10,1.7,25.6,14.3,47.9,8s34.4-39.5,59-38s34.4,42.7,59,45s34.4-35.9,59-34s34.4,40.9,59,43
		s34.4-31.8,59-33c24.6-1.3,34.4,26.6,59,27s34.4-28.1,59-25c24.6,3.1,34.4,38.8,59,40s34.4-35.5,59-34c24.6,1.5,34.4,42.7,59,41
		s34.4-49.6,59-49s34.4,48.5,59,52c24.6,3.5,34.4-33.1,59-35c24.6-1.9,46.7,20.6,59,26"/>
	<path class="st0" d="M-29.6,1305.1c10,1.7,25.6,14.3,47.9,8s34.4-39.5,59-38s34.4,42.7,59,45s34.4-35.9,59-34s34.4,40.9,59,43
		s34.4-31.8,59-33c24.6-1.3,34.4,26.6,59,27s34.4-28.1,59-25c24.6,3.1,34.4,38.8,59,40s34.4-35.5,59-34c24.6,1.5,34.4,42.7,59,41
		s34.4-49.6,59-49s34.4,48.5,59,52c24.6,3.5,34.4-33.1,59-35c24.6-1.9,46.7,20.6,59,26"/>
	<path class="st0" d="M-29.6,1260.1c10,1.7,25.6,14.3,47.9,8s34.4-39.5,59-38s34.4,42.7,59,45s34.4-35.9,59-34s34.4,40.9,59,43
		s34.4-31.8,59-33c24.6-1.3,34.4,26.6,59,27s34.4-28.1,59-25c24.6,3.1,34.4,38.8,59,40s34.4-35.5,59-34c24.6,1.5,34.4,42.7,59,41
		s34.4-49.6,59-49s34.4,48.5,59,52c24.6,3.5,34.4-33.1,59-35c24.6-1.9,46.7,20.6,59,26"/>
	<path class="st0" d="M-29.6,1215.1c10,1.7,25.6,14.3,47.9,8s34.4-39.5,59-38s34.4,42.7,59,45s34.4-35.9,59-34s34.4,40.9,59,43
		s34.4-31.8,59-33c24.6-1.3,34.4,26.6,59,27s34.4-28.1,59-25c24.6,3.1,34.4,38.8,59,40s34.4-35.5,59-34c24.6,1.5,34.4,42.7,59,41
		s34.4-49.6,59-49s34.4,48.5,59,52c24.6,3.5,34.4-33.1,59-35c24.6-1.9,46.7,20.6,59,26"/>
	<path class="st0" d="M-29.6,1170.1c10,1.7,25.6,14.3,47.9,8s34.4-39.5,59-38s34.4,42.7,59,45s34.4-35.9,59-34s34.4,40.9,59,43
		s34.4-31.8,59-33c24.6-1.3,34.4,26.6,59,27s34.4-28.1,59-25c24.6,3.1,34.4,38.8,59,40s34.4-35.5,59-34c24.6,1.5,34.4,42.7,59,41
		s34.4-49.6,59-49s34.4,48.5,59,52c24.6,3.5,34.4-33.1,59-35c24.6-1.9,46.7,20.6,59,26"/>
</g>
<g transform="matrix(1,0,0,1,-5,-1326.5970764160156)">
	<path class="st0" d="M10,4902.3c9,1.7,23.2,14.3,43.3,8s31.1-39.5,53.3-38s31.1,42.7,53.3,45s31.1-35.9,53.3-34s31.1,40.9,53.3,43
		s31.1-31.8,53.3-33s31.1,26.6,53.3,27c22.2,0.4,31.1-28.1,53.3-25c22.2,3.1,31.1,38.8,53.3,40s31.1-35.5,53.3-34
		c22.2,1.5,31.1,42.7,53.3,41s31.1-49.6,53.3-49s31.1,48.5,53.3,52s31.1-33.1,53.3-35s42.2,20.6,53.3,26"/>
	<path class="st0" d="M10,8322.3c9,1.7,23.2,14.3,43.3,8s31.1-39.5,53.3-38c22.2,1.5,31.1,42.7,53.3,45c22.2,2.3,31.1-35.9,53.3-34
		s31.1,40.9,53.3,43c22.2,2.1,31.1-31.8,53.3-33s31.1,26.6,53.3,27c22.2,0.4,31.1-28.1,53.3-25c22.2,3.1,31.1,38.8,53.3,40
		s31.1-35.5,53.3-34c22.2,1.5,31.1,42.7,53.3,41c22.2-1.7,31.1-49.6,53.3-49s31.1,48.5,53.3,52c22.2,3.5,31.1-33.1,53.3-35
		s42.2,20.6,53.3,26"/>
	<path class="st0" d="M10,8277.3c9,1.7,23.2,14.3,43.3,8s31.1-39.5,53.3-38c22.2,1.5,31.1,42.7,53.3,45c22.2,2.3,31.1-35.9,53.3-34
		s31.1,40.9,53.3,43c22.2,2.1,31.1-31.8,53.3-33s31.1,26.6,53.3,27c22.2,0.4,31.1-28.1,53.3-25c22.2,3.1,31.1,38.8,53.3,40
		s31.1-35.5,53.3-34c22.2,1.5,31.1,42.7,53.3,41c22.2-1.7,31.1-49.6,53.3-49s31.1,48.5,53.3,52c22.2,3.5,31.1-33.1,53.3-35
		s42.2,20.6,53.3,26"/>
	<path class="st0" d="M10,8232.3c9,1.7,23.2,14.3,43.3,8s31.1-39.5,53.3-38c22.2,1.5,31.1,42.7,53.3,45c22.2,2.3,31.1-35.9,53.3-34
		s31.1,40.9,53.3,43c22.2,2.1,31.1-31.8,53.3-33s31.1,26.6,53.3,27c22.2,0.4,31.1-28.1,53.3-25c22.2,3.1,31.1,38.8,53.3,40
		s31.1-35.5,53.3-34c22.2,1.5,31.1,42.7,53.3,41c22.2-1.7,31.1-49.6,53.3-49s31.1,48.5,53.3,52c22.2,3.5,31.1-33.1,53.3-35
		s42.2,20.6,53.3,26"/>
	<path class="st0" d="M10,8187.3c9,1.7,23.2,14.2,43.3,8c20.1-6.2,31.1-39.5,53.3-38s31.1,42.7,53.3,45c22.2,2.3,31.1-35.9,53.3-34
		s31.1,40.9,53.3,43c22.2,2.1,31.1-31.7,53.3-33s31.1,26.6,53.3,27c22.2,0.4,31.1-28.1,53.3-25c22.2,3.1,31.1,38.7,53.3,40
		s31.1-35.5,53.3-34c22.2,1.5,31.1,42.7,53.3,41c22.2-1.7,31.1-49.6,53.3-49s31.1,48.5,53.3,52c22.2,3.5,31.1-33.1,53.3-35
		s42.2,20.6,53.3,26"/>
	<path class="st0" d="M10,8142.3c9,1.7,23.2,14.3,43.3,8s31.1-39.5,53.3-38s31.1,42.7,53.3,45s31.1-35.9,53.3-34s31.1,40.9,53.3,43
		s31.1-31.8,53.3-33s31.1,26.6,53.3,27c22.2,0.4,31.1-28.1,53.3-25c22.2,3.1,31.1,38.8,53.3,40s31.1-35.5,53.3-34
		c22.2,1.5,31.1,42.7,53.3,41s31.1-49.6,53.3-49s31.1,48.5,53.3,52s31.1-33.1,53.3-35s42.2,20.6,53.3,26"/>
	<path class="st0" d="M10,8097.3c9,1.7,23.2,14.3,43.3,8s31.1-39.5,53.3-38s31.1,42.7,53.3,45s31.1-35.9,53.3-34s31.1,40.9,53.3,43
		s31.1-31.8,53.3-33s31.1,26.6,53.3,27c22.2,0.4,31.1-28.1,53.3-25c22.2,3.1,31.1,38.8,53.3,40s31.1-35.5,53.3-34
		c22.2,1.5,31.1,42.7,53.3,41s31.1-49.6,53.3-49s31.1,48.5,53.3,52s31.1-33.1,53.3-35s42.2,20.6,53.3,26"/>
	<path class="st0" d="M10,8052.3c9,1.7,23.2,14.3,43.3,8s31.1-39.5,53.3-38s31.1,42.7,53.3,45s31.1-35.9,53.3-34s31.1,40.9,53.3,43
		s31.1-31.8,53.3-33s31.1,26.6,53.3,27c22.2,0.4,31.1-28.1,53.3-25c22.2,3.1,31.1,38.8,53.3,40s31.1-35.5,53.3-34
		c22.2,1.5,31.1,42.7,53.3,41s31.1-49.6,53.3-49s31.1,48.5,53.3,52s31.1-33.1,53.3-35s42.2,20.6,53.3,26"/>
	<path class="st0" d="M10,8007.3c9,1.7,23.2,14.3,43.3,8s31.1-39.5,53.3-38s31.1,42.7,53.3,45s31.1-35.9,53.3-34s31.1,40.9,53.3,43
		s31.1-31.8,53.3-33s31.1,26.6,53.3,27c22.2,0.4,31.1-28.1,53.3-25c22.2,3.1,31.1,38.8,53.3,40s31.1-35.5,53.3-34
		c22.2,1.5,31.1,42.7,53.3,41s31.1-49.6,53.3-49s31.1,48.5,53.3,52s31.1-33.1,53.3-35s42.2,20.6,53.3,26"/>
	<path class="st0" d="M10,7962.3c9,1.7,23.2,14.3,43.3,8s31.1-39.5,53.3-38s31.1,42.7,53.3,45s31.1-35.9,53.3-34s31.1,40.9,53.3,43
		s31.1-31.8,53.3-33s31.1,26.6,53.3,27c22.2,0.4,31.1-28.1,53.3-25c22.2,3.1,31.1,38.8,53.3,40s31.1-35.5,53.3-34
		c22.2,1.5,31.1,42.7,53.3,41s31.1-49.6,53.3-49s31.1,48.5,53.3,52s31.1-33.1,53.3-35s42.2,20.6,53.3,26"/>
	<path class="st0" d="M10,7917.3c9,1.7,23.2,14.3,43.3,8s31.1-39.5,53.3-38s31.1,42.7,53.3,45s31.1-35.9,53.3-34s31.1,40.9,53.3,43
		s31.1-31.8,53.3-33s31.1,26.6,53.3,27c22.2,0.4,31.1-28.1,53.3-25c22.2,3.1,31.1,38.8,53.3,40s31.1-35.5,53.3-34
		c22.2,1.5,31.1,42.7,53.3,41s31.1-49.6,53.3-49s31.1,48.5,53.3,52s31.1-33.1,53.3-35s42.2,20.6,53.3,26"/>
	<path class="st0" d="M10,7872.3c9,1.7,23.2,14.3,43.3,8s31.1-39.5,53.3-38s31.1,42.7,53.3,45s31.1-35.9,53.3-34s31.1,40.9,53.3,43
		s31.1-31.8,53.3-33s31.1,26.6,53.3,27c22.2,0.4,31.1-28.1,53.3-25c22.2,3.1,31.1,38.8,53.3,40s31.1-35.5,53.3-34
		c22.2,1.5,31.1,42.7,53.3,41s31.1-49.6,53.3-49s31.1,48.5,53.3,52s31.1-33.1,53.3-35s42.2,20.6,53.3,26"/>
	<path class="st0" d="M10,7827.3c9,1.7,23.2,14.3,43.3,8s31.1-39.5,53.3-38s31.1,42.7,53.3,45s31.1-35.9,53.3-34s31.1,40.9,53.3,43
		s31.1-31.8,53.3-33s31.1,26.6,53.3,27c22.2,0.4,31.1-28.1,53.3-25c22.2,3.1,31.1,38.8,53.3,40s31.1-35.5,53.3-34
		c22.2,1.5,31.1,42.7,53.3,41s31.1-49.6,53.3-49s31.1,48.5,53.3,52s31.1-33.1,53.3-35s42.2,20.6,53.3,26"/>
	<path class="st0" d="M10,7782.3c9,1.7,23.2,14.3,43.3,8s31.1-39.5,53.3-38s31.1,42.7,53.3,45s31.1-35.9,53.3-34s31.1,40.9,53.3,43
		s31.1-31.8,53.3-33s31.1,26.6,53.3,27c22.2,0.4,31.1-28.1,53.3-25c22.2,3.1,31.1,38.8,53.3,40s31.1-35.5,53.3-34
		c22.2,1.5,31.1,42.7,53.3,41s31.1-49.6,53.3-49s31.1,48.5,53.3,52s31.1-33.1,53.3-35s42.2,20.6,53.3,26"/>
	<path class="st0" d="M10,7737.3c9,1.7,23.2,14.3,43.3,8s31.1-39.5,53.3-38s31.1,42.7,53.3,45s31.1-35.9,53.3-34s31.1,40.9,53.3,43
		s31.1-31.8,53.3-33s31.1,26.6,53.3,27c22.2,0.4,31.1-28.1,53.3-25c22.2,3.1,31.1,38.8,53.3,40s31.1-35.5,53.3-34
		c22.2,1.5,31.1,42.7,53.3,41s31.1-49.6,53.3-49s31.1,48.5,53.3,52s31.1-33.1,53.3-35s42.2,20.6,53.3,26"/>
	<path class="st0" d="M10,7692.3c9,1.7,23.2,14.3,43.3,8s31.1-39.5,53.3-38s31.1,42.7,53.3,45s31.1-35.9,53.3-34s31.1,40.9,53.3,43
		s31.1-31.8,53.3-33s31.1,26.6,53.3,27c22.2,0.4,31.1-28.1,53.3-25c22.2,3.1,31.1,38.8,53.3,40s31.1-35.5,53.3-34
		c22.2,1.5,31.1,42.7,53.3,41s31.1-49.6,53.3-49s31.1,48.5,53.3,52s31.1-33.1,53.3-35s42.2,20.6,53.3,26"/>
	<path class="st0" d="M10,7647.3c9,1.7,23.2,14.3,43.3,8s31.1-39.5,53.3-38s31.1,42.7,53.3,45s31.1-35.9,53.3-34s31.1,40.9,53.3,43
		s31.1-31.8,53.3-33s31.1,26.6,53.3,27c22.2,0.4,31.1-28.1,53.3-25c22.2,3.1,31.1,38.8,53.3,40s31.1-35.5,53.3-34
		c22.2,1.5,31.1,42.7,53.3,41s31.1-49.6,53.3-49s31.1,48.5,53.3,52s31.1-33.1,53.3-35s42.2,20.6,53.3,26"/>
	<path class="st0" d="M10,7602.3c9,1.7,23.2,14.3,43.3,8s31.1-39.5,53.3-38s31.1,42.7,53.3,45s31.1-35.9,53.3-34s31.1,40.9,53.3,43
		s31.1-31.8,53.3-33s31.1,26.6,53.3,27c22.2,0.4,31.1-28.1,53.3-25c22.2,3.1,31.1,38.8,53.3,40s31.1-35.5,53.3-34
		c22.2,1.5,31.1,42.7,53.3,41s31.1-49.6,53.3-49s31.1,48.5,53.3,52s31.1-33.1,53.3-35s42.2,20.6,53.3,26"/>
	<path class="st0" d="M10,7557.3c9,1.7,23.2,14.3,43.3,8s31.1-39.5,53.3-38s31.1,42.7,53.3,45s31.1-35.9,53.3-34s31.1,40.9,53.3,43
		s31.1-31.8,53.3-33s31.1,26.6,53.3,27c22.2,0.4,31.1-28.1,53.3-25c22.2,3.1,31.1,38.8,53.3,40s31.1-35.5,53.3-34
		c22.2,1.5,31.1,42.7,53.3,41s31.1-49.6,53.3-49s31.1,48.5,53.3,52s31.1-33.1,53.3-35s42.2,20.6,53.3,26"/>
	<path class="st0" d="M10,7512.3c9,1.7,23.2,14.3,43.3,8s31.1-39.5,53.3-38s31.1,42.7,53.3,45s31.1-35.9,53.3-34s31.1,40.9,53.3,43
		s31.1-31.8,53.3-33s31.1,26.6,53.3,27c22.2,0.4,31.1-28.1,53.3-25c22.2,3.1,31.1,38.8,53.3,40s31.1-35.5,53.3-34
		c22.2,1.5,31.1,42.7,53.3,41s31.1-49.6,53.3-49s31.1,48.5,53.3,52s31.1-33.1,53.3-35s42.2,20.6,53.3,26"/>
	<path class="st0" d="M10,7467.3c9,1.7,23.2,14.3,43.3,8s31.1-39.5,53.3-38s31.1,42.7,53.3,45s31.1-35.9,53.3-34s31.1,40.9,53.3,43
		s31.1-31.8,53.3-33s31.1,26.6,53.3,27c22.2,0.4,31.1-28.1,53.3-25c22.2,3.1,31.1,38.8,53.3,40s31.1-35.5,53.3-34
		c22.2,1.5,31.1,42.7,53.3,41s31.1-49.6,53.3-49s31.1,48.5,53.3,52s31.1-33.1,53.3-35s42.2,20.6,53.3,26"/>
	<path class="st0" d="M10,7422.3c9,1.7,23.2,14.3,43.3,8s31.1-39.5,53.3-38s31.1,42.7,53.3,45s31.1-35.9,53.3-34s31.1,40.9,53.3,43
		s31.1-31.8,53.3-33s31.1,26.6,53.3,27c22.2,0.4,31.1-28.1,53.3-25c22.2,3.1,31.1,38.8,53.3,40s31.1-35.5,53.3-34
		c22.2,1.5,31.1,42.7,53.3,41s31.1-49.6,53.3-49s31.1,48.5,53.3,52s31.1-33.1,53.3-35s42.2,20.6,53.3,26"/>
	<path class="st0" d="M10,7377.3c9,1.7,23.2,14.3,43.3,8s31.1-39.5,53.3-38s31.1,42.7,53.3,45s31.1-35.9,53.3-34s31.1,40.9,53.3,43
		s31.1-31.8,53.3-33s31.1,26.6,53.3,27c22.2,0.4,31.1-28.1,53.3-25c22.2,3.1,31.1,38.8,53.3,40s31.1-35.5,53.3-34
		c22.2,1.5,31.1,42.7,53.3,41s31.1-49.6,53.3-49s31.1,48.5,53.3,52s31.1-33.1,53.3-35s42.2,20.6,53.3,26"/>
	<path class="st0" d="M10,7332.3c9,1.7,23.2,14.3,43.3,8s31.1-39.5,53.3-38s31.1,42.7,53.3,45s31.1-35.9,53.3-34s31.1,40.9,53.3,43
		s31.1-31.8,53.3-33s31.1,26.6,53.3,27c22.2,0.4,31.1-28.1,53.3-25c22.2,3.1,31.1,38.8,53.3,40s31.1-35.5,53.3-34
		c22.2,1.5,31.1,42.7,53.3,41s31.1-49.6,53.3-49s31.1,48.5,53.3,52s31.1-33.1,53.3-35s42.2,20.6,53.3,26"/>
	<path class="st0" d="M10,7287.3c9,1.7,23.2,14.3,43.3,8s31.1-39.5,53.3-38s31.1,42.7,53.3,45s31.1-35.9,53.3-34s31.1,40.9,53.3,43
		s31.1-31.8,53.3-33s31.1,26.6,53.3,27c22.2,0.4,31.1-28.1,53.3-25c22.2,3.1,31.1,38.8,53.3,40s31.1-35.5,53.3-34
		c22.2,1.5,31.1,42.7,53.3,41s31.1-49.6,53.3-49s31.1,48.5,53.3,52s31.1-33.1,53.3-35s42.2,20.6,53.3,26"/>
	<path class="st0" d="M10,7242.3c9,1.7,23.2,14.3,43.3,8s31.1-39.5,53.3-38s31.1,42.7,53.3,45s31.1-35.9,53.3-34s31.1,40.9,53.3,43
		s31.1-31.8,53.3-33s31.1,26.6,53.3,27c22.2,0.4,31.1-28.1,53.3-25c22.2,3.1,31.1,38.8,53.3,40s31.1-35.5,53.3-34
		c22.2,1.5,31.1,42.7,53.3,41s31.1-49.6,53.3-49s31.1,48.5,53.3,52s31.1-33.1,53.3-35s42.2,20.6,53.3,26"/>
	<path class="st0" d="M10,7197.3c9,1.7,23.2,14.3,43.3,8s31.1-39.5,53.3-38s31.1,42.7,53.3,45s31.1-35.9,53.3-34s31.1,40.9,53.3,43
		s31.1-31.8,53.3-33s31.1,26.6,53.3,27c22.2,0.4,31.1-28.1,53.3-25c22.2,3.1,31.1,38.8,53.3,40s31.1-35.5,53.3-34
		c22.2,1.5,31.1,42.7,53.3,41s31.1-49.6,53.3-49s31.1,48.5,53.3,52s31.1-33.1,53.3-35s42.2,20.6,53.3,26"/>
	<path class="st0" d="M10,7152.3c9,1.7,23.2,14.3,43.3,8s31.1-39.5,53.3-38s31.1,42.7,53.3,45s31.1-35.9,53.3-34s31.1,40.9,53.3,43
		s31.1-31.8,53.3-33s31.1,26.6,53.3,27c22.2,0.4,31.1-28.1,53.3-25c22.2,3.1,31.1,38.8,53.3,40s31.1-35.5,53.3-34
		c22.2,1.5,31.1,42.7,53.3,41s31.1-49.6,53.3-49s31.1,48.5,53.3,52s31.1-33.1,53.3-35s42.2,20.6,53.3,26"/>
	<path class="st0" d="M10,7107.3c9,1.7,23.2,14.3,43.3,8s31.1-39.5,53.3-38s31.1,42.7,53.3,45s31.1-35.9,53.3-34s31.1,40.9,53.3,43
		s31.1-31.8,53.3-33s31.1,26.6,53.3,27c22.2,0.4,31.1-28.1,53.3-25c22.2,3.1,31.1,38.8,53.3,40s31.1-35.5,53.3-34
		c22.2,1.5,31.1,42.7,53.3,41s31.1-49.6,53.3-49s31.1,48.5,53.3,52s31.1-33.1,53.3-35s42.2,20.6,53.3,26"/>
	<path class="st0" d="M10,7062.3c9,1.7,23.2,14.3,43.3,8s31.1-39.5,53.3-38s31.1,42.7,53.3,45s31.1-35.9,53.3-34s31.1,40.9,53.3,43
		s31.1-31.8,53.3-33s31.1,26.6,53.3,27c22.2,0.4,31.1-28.1,53.3-25c22.2,3.1,31.1,38.8,53.3,40s31.1-35.5,53.3-34
		c22.2,1.5,31.1,42.7,53.3,41s31.1-49.6,53.3-49s31.1,48.5,53.3,52s31.1-33.1,53.3-35s42.2,20.6,53.3,26"/>
	<path class="st0" d="M10,7017.3c9,1.7,23.2,14.3,43.3,8s31.1-39.5,53.3-38s31.1,42.7,53.3,45s31.1-35.9,53.3-34s31.1,40.9,53.3,43
		s31.1-31.8,53.3-33s31.1,26.6,53.3,27c22.2,0.4,31.1-28.1,53.3-25c22.2,3.1,31.1,38.8,53.3,40s31.1-35.5,53.3-34
		c22.2,1.5,31.1,42.7,53.3,41s31.1-49.6,53.3-49s31.1,48.5,53.3,52s31.1-33.1,53.3-35s42.2,20.6,53.3,26"/>
	<path class="st0" d="M10,6972.3c9,1.7,23.2,14.3,43.3,8s31.1-39.5,53.3-38s31.1,42.7,53.3,45s31.1-35.9,53.3-34s31.1,40.9,53.3,43
		s31.1-31.8,53.3-33s31.1,26.6,53.3,27c22.2,0.4,31.1-28.1,53.3-25c22.2,3.1,31.1,38.8,53.3,40s31.1-35.5,53.3-34
		c22.2,1.5,31.1,42.7,53.3,41s31.1-49.6,53.3-49s31.1,48.5,53.3,52s31.1-33.1,53.3-35s42.2,20.6,53.3,26"/>
	<path class="st0" d="M10,6927.3c9,1.7,23.2,14.3,43.3,8s31.1-39.5,53.3-38s31.1,42.7,53.3,45s31.1-35.9,53.3-34s31.1,40.9,53.3,43
		s31.1-31.8,53.3-33s31.1,26.6,53.3,27c22.2,0.4,31.1-28.1,53.3-25c22.2,3.1,31.1,38.8,53.3,40s31.1-35.5,53.3-34
		c22.2,1.5,31.1,42.7,53.3,41s31.1-49.6,53.3-49s31.1,48.5,53.3,52s31.1-33.1,53.3-35s42.2,20.6,53.3,26"/>
	<path class="st0" d="M10,6882.3c9,1.7,23.2,14.3,43.3,8s31.1-39.5,53.3-38s31.1,42.7,53.3,45s31.1-35.9,53.3-34s31.1,40.9,53.3,43
		s31.1-31.8,53.3-33s31.1,26.6,53.3,27c22.2,0.4,31.1-28.1,53.3-25c22.2,3.1,31.1,38.8,53.3,40s31.1-35.5,53.3-34
		c22.2,1.5,31.1,42.7,53.3,41s31.1-49.6,53.3-49s31.1,48.5,53.3,52s31.1-33.1,53.3-35s42.2,20.6,53.3,26"/>
	<path class="st0" d="M10,6837.3c9,1.7,23.2,14.3,43.3,8s31.1-39.5,53.3-38s31.1,42.7,53.3,45s31.1-35.9,53.3-34s31.1,40.9,53.3,43
		s31.1-31.8,53.3-33s31.1,26.6,53.3,27c22.2,0.4,31.1-28.1,53.3-25c22.2,3.1,31.1,38.8,53.3,40s31.1-35.5,53.3-34
		c22.2,1.5,31.1,42.7,53.3,41s31.1-49.6,53.3-49s31.1,48.5,53.3,52s31.1-33.1,53.3-35s42.2,20.6,53.3,26"/>
	<path class="st0" d="M10,6792.3c9,1.7,23.2,14.3,43.3,8s31.1-39.5,53.3-38s31.1,42.7,53.3,45s31.1-35.9,53.3-34s31.1,40.9,53.3,43
		s31.1-31.8,53.3-33s31.1,26.6,53.3,27c22.2,0.4,31.1-28.1,53.3-25c22.2,3.1,31.1,38.8,53.3,40s31.1-35.5,53.3-34
		c22.2,1.5,31.1,42.7,53.3,41s31.1-49.6,53.3-49s31.1,48.5,53.3,52s31.1-33.1,53.3-35s42.2,20.6,53.3,26"/>
	<path class="st0" d="M10,6747.3c9,1.7,23.2,14.3,43.3,8s31.1-39.5,53.3-38s31.1,42.7,53.3,45s31.1-35.9,53.3-34s31.1,40.9,53.3,43
		s31.1-31.8,53.3-33s31.1,26.6,53.3,27c22.2,0.4,31.1-28.1,53.3-25c22.2,3.1,31.1,38.8,53.3,40s31.1-35.5,53.3-34
		c22.2,1.5,31.1,42.7,53.3,41s31.1-49.6,53.3-49s31.1,48.5,53.3,52s31.1-33.1,53.3-35s42.2,20.6,53.3,26"/>
	<path class="st0" d="M10,6702.3c9,1.7,23.2,14.3,43.3,8s31.1-39.5,53.3-38s31.1,42.7,53.3,45s31.1-35.9,53.3-34s31.1,40.9,53.3,43
		s31.1-31.8,53.3-33s31.1,26.6,53.3,27c22.2,0.4,31.1-28.1,53.3-25c22.2,3.1,31.1,38.8,53.3,40s31.1-35.5,53.3-34
		c22.2,1.5,31.1,42.7,53.3,41s31.1-49.6,53.3-49s31.1,48.5,53.3,52s31.1-33.1,53.3-35s42.2,20.6,53.3,26"/>
	<path class="st0" d="M10,6657.3c9,1.7,23.2,14.3,43.3,8s31.1-39.5,53.3-38s31.1,42.7,53.3,45s31.1-35.9,53.3-34s31.1,40.9,53.3,43
		s31.1-31.8,53.3-33s31.1,26.6,53.3,27c22.2,0.4,31.1-28.1,53.3-25c22.2,3.1,31.1,38.8,53.3,40s31.1-35.5,53.3-34
		c22.2,1.5,31.1,42.7,53.3,41s31.1-49.6,53.3-49s31.1,48.5,53.3,52s31.1-33.1,53.3-35s42.2,20.6,53.3,26"/>
	<path class="st0" d="M10,6612.3c9,1.7,23.2,14.3,43.3,8s31.1-39.5,53.3-38s31.1,42.7,53.3,45s31.1-35.9,53.3-34s31.1,40.9,53.3,43
		s31.1-31.8,53.3-33s31.1,26.6,53.3,27c22.2,0.4,31.1-28.1,53.3-25c22.2,3.1,31.1,38.8,53.3,40s31.1-35.5,53.3-34
		c22.2,1.5,31.1,42.7,53.3,41s31.1-49.6,53.3-49s31.1,48.5,53.3,52s31.1-33.1,53.3-35s42.2,20.6,53.3,26"/>
	<path class="st0" d="M10,6567.3c9,1.7,23.2,14.3,43.3,8s31.1-39.5,53.3-38s31.1,42.7,53.3,45s31.1-35.9,53.3-34s31.1,40.9,53.3,43
		s31.1-31.8,53.3-33s31.1,26.6,53.3,27c22.2,0.4,31.1-28.1,53.3-25c22.2,3.1,31.1,38.8,53.3,40s31.1-35.5,53.3-34
		c22.2,1.5,31.1,42.7,53.3,41s31.1-49.6,53.3-49s31.1,48.5,53.3,52s31.1-33.1,53.3-35s42.2,20.6,53.3,26"/>
	<path class="st0" d="M10,6522.3c9,1.7,23.2,14.3,43.3,8s31.1-39.5,53.3-38s31.1,42.7,53.3,45s31.1-35.9,53.3-34s31.1,40.9,53.3,43
		s31.1-31.8,53.3-33s31.1,26.6,53.3,27c22.2,0.4,31.1-28.1,53.3-25c22.2,3.1,31.1,38.8,53.3,40s31.1-35.5,53.3-34
		c22.2,1.5,31.1,42.7,53.3,41s31.1-49.6,53.3-49s31.1,48.5,53.3,52s31.1-33.1,53.3-35s42.2,20.6,53.3,26"/>
	<path class="st0" d="M10,6477.3c9,1.7,23.2,14.3,43.3,8s31.1-39.5,53.3-38s31.1,42.7,53.3,45s31.1-35.9,53.3-34s31.1,40.9,53.3,43
		s31.1-31.8,53.3-33s31.1,26.6,53.3,27c22.2,0.4,31.1-28.1,53.3-25c22.2,3.1,31.1,38.8,53.3,40s31.1-35.5,53.3-34
		c22.2,1.5,31.1,42.7,53.3,41s31.1-49.6,53.3-49s31.1,48.5,53.3,52s31.1-33.1,53.3-35s42.2,20.6,53.3,26"/>
	<path class="st0" d="M10,6432.3c9,1.7,23.2,14.3,43.3,8s31.1-39.5,53.3-38s31.1,42.7,53.3,45s31.1-35.9,53.3-34s31.1,40.9,53.3,43
		s31.1-31.8,53.3-33s31.1,26.6,53.3,27c22.2,0.4,31.1-28.1,53.3-25c22.2,3.1,31.1,38.8,53.3,40s31.1-35.5,53.3-34
		c22.2,1.5,31.1,42.7,53.3,41s31.1-49.6,53.3-49s31.1,48.5,53.3,52s31.1-33.1,53.3-35s42.2,20.6,53.3,26"/>
	<path class="st0" d="M10,6387.3c9,1.7,23.2,14.3,43.3,8s31.1-39.5,53.3-38s31.1,42.7,53.3,45s31.1-35.9,53.3-34s31.1,40.9,53.3,43
		s31.1-31.8,53.3-33s31.1,26.6,53.3,27c22.2,0.4,31.1-28.1,53.3-25c22.2,3.1,31.1,38.8,53.3,40s31.1-35.5,53.3-34
		c22.2,1.5,31.1,42.7,53.3,41s31.1-49.6,53.3-49s31.1,48.5,53.3,52s31.1-33.1,53.3-35s42.2,20.6,53.3,26"/>
	<path class="st0" d="M10,6342.3c9,1.7,23.2,14.3,43.3,8s31.1-39.5,53.3-38s31.1,42.7,53.3,45s31.1-35.9,53.3-34s31.1,40.9,53.3,43
		s31.1-31.8,53.3-33s31.1,26.6,53.3,27c22.2,0.4,31.1-28.1,53.3-25c22.2,3.1,31.1,38.8,53.3,40s31.1-35.5,53.3-34
		c22.2,1.5,31.1,42.7,53.3,41s31.1-49.6,53.3-49s31.1,48.5,53.3,52s31.1-33.1,53.3-35s42.2,20.6,53.3,26"/>
	<path class="st0" d="M10,6297.3c9,1.7,23.2,14.3,43.3,8s31.1-39.5,53.3-38s31.1,42.7,53.3,45s31.1-35.9,53.3-34s31.1,40.9,53.3,43
		s31.1-31.8,53.3-33s31.1,26.6,53.3,27c22.2,0.4,31.1-28.1,53.3-25c22.2,3.1,31.1,38.8,53.3,40s31.1-35.5,53.3-34
		c22.2,1.5,31.1,42.7,53.3,41s31.1-49.6,53.3-49s31.1,48.5,53.3,52s31.1-33.1,53.3-35s42.2,20.6,53.3,26"/>
	<path class="st0" d="M10,6252.3c9,1.7,23.2,14.3,43.3,8s31.1-39.5,53.3-38s31.1,42.7,53.3,45s31.1-35.9,53.3-34s31.1,40.9,53.3,43
		s31.1-31.8,53.3-33s31.1,26.6,53.3,27c22.2,0.4,31.1-28.1,53.3-25c22.2,3.1,31.1,38.8,53.3,40s31.1-35.5,53.3-34
		c22.2,1.5,31.1,42.7,53.3,41s31.1-49.6,53.3-49s31.1,48.5,53.3,52s31.1-33.1,53.3-35s42.2,20.6,53.3,26"/>
	<path class="st0" d="M10,6207.3c9,1.7,23.2,14.3,43.3,8s31.1-39.5,53.3-38s31.1,42.7,53.3,45s31.1-35.9,53.3-34s31.1,40.9,53.3,43
		s31.1-31.8,53.3-33s31.1,26.6,53.3,27c22.2,0.4,31.1-28.1,53.3-25c22.2,3.1,31.1,38.8,53.3,40s31.1-35.5,53.3-34
		c22.2,1.5,31.1,42.7,53.3,41s31.1-49.6,53.3-49s31.1,48.5,53.3,52s31.1-33.1,53.3-35s42.2,20.6,53.3,26"/>
	<path class="st0" d="M10,6162.3c9,1.7,23.2,14.3,43.3,8s31.1-39.5,53.3-38s31.1,42.7,53.3,45s31.1-35.9,53.3-34s31.1,40.9,53.3,43
		s31.1-31.8,53.3-33s31.1,26.6,53.3,27c22.2,0.4,31.1-28.1,53.3-25c22.2,3.1,31.1,38.8,53.3,40s31.1-35.5,53.3-34
		c22.2,1.5,31.1,42.7,53.3,41s31.1-49.6,53.3-49s31.1,48.5,53.3,52s31.1-33.1,53.3-35s42.2,20.6,53.3,26"/>
	<path class="st0" d="M10,6117.3c9,1.7,23.2,14.3,43.3,8s31.1-39.5,53.3-38s31.1,42.7,53.3,45s31.1-35.9,53.3-34s31.1,40.9,53.3,43
		s31.1-31.8,53.3-33s31.1,26.6,53.3,27c22.2,0.4,31.1-28.1,53.3-25c22.2,3.1,31.1,38.8,53.3,40s31.1-35.5,53.3-34
		c22.2,1.5,31.1,42.7,53.3,41s31.1-49.6,53.3-49s31.1,48.5,53.3,52s31.1-33.1,53.3-35s42.2,20.6,53.3,26"/>
	<path class="st0" d="M10,6072.3c9,1.7,23.2,14.3,43.3,8s31.1-39.5,53.3-38s31.1,42.7,53.3,45s31.1-35.9,53.3-34s31.1,40.9,53.3,43
		s31.1-31.8,53.3-33s31.1,26.6,53.3,27c22.2,0.4,31.1-28.1,53.3-25c22.2,3.1,31.1,38.8,53.3,40s31.1-35.5,53.3-34
		c22.2,1.5,31.1,42.7,53.3,41s31.1-49.6,53.3-49s31.1,48.5,53.3,52s31.1-33.1,53.3-35s42.2,20.6,53.3,26"/>
	<path class="st0" d="M10,6027.3c9,1.7,23.2,14.3,43.3,8s31.1-39.5,53.3-38s31.1,42.7,53.3,45s31.1-35.9,53.3-34s31.1,40.9,53.3,43
		s31.1-31.8,53.3-33s31.1,26.6,53.3,27c22.2,0.4,31.1-28.1,53.3-25c22.2,3.1,31.1,38.8,53.3,40s31.1-35.5,53.3-34
		c22.2,1.5,31.1,42.7,53.3,41s31.1-49.6,53.3-49s31.1,48.5,53.3,52s31.1-33.1,53.3-35s42.2,20.6,53.3,26"/>
	<path class="st0" d="M10,5982.3c9,1.7,23.2,14.3,43.3,8s31.1-39.5,53.3-38s31.1,42.7,53.3,45s31.1-35.9,53.3-34s31.1,40.9,53.3,43
		s31.1-31.8,53.3-33s31.1,26.6,53.3,27c22.2,0.4,31.1-28.1,53.3-25c22.2,3.1,31.1,38.8,53.3,40s31.1-35.5,53.3-34
		c22.2,1.5,31.1,42.7,53.3,41s31.1-49.6,53.3-49s31.1,48.5,53.3,52s31.1-33.1,53.3-35s42.2,20.6,53.3,26"/>
	<path class="st0" d="M10,5937.3c9,1.7,23.2,14.3,43.3,8s31.1-39.5,53.3-38s31.1,42.7,53.3,45s31.1-35.9,53.3-34s31.1,40.9,53.3,43
		s31.1-31.8,53.3-33s31.1,26.6,53.3,27c22.2,0.4,31.1-28.1,53.3-25c22.2,3.1,31.1,38.8,53.3,40s31.1-35.5,53.3-34
		c22.2,1.5,31.1,42.7,53.3,41s31.1-49.6,53.3-49s31.1,48.5,53.3,52s31.1-33.1,53.3-35s42.2,20.6,53.3,26"/>
	<path class="st0" d="M10,5892.3c9,1.7,23.2,14.3,43.3,8s31.1-39.5,53.3-38s31.1,42.7,53.3,45s31.1-35.9,53.3-34s31.1,40.9,53.3,43
		s31.1-31.8,53.3-33s31.1,26.6,53.3,27c22.2,0.4,31.1-28.1,53.3-25c22.2,3.1,31.1,38.8,53.3,40s31.1-35.5,53.3-34
		c22.2,1.5,31.1,42.7,53.3,41s31.1-49.6,53.3-49s31.1,48.5,53.3,52s31.1-33.1,53.3-35s42.2,20.6,53.3,26"/>
	<path class="st0" d="M10,5847.3c9,1.7,23.2,14.3,43.3,8s31.1-39.5,53.3-38s31.1,42.7,53.3,45s31.1-35.9,53.3-34s31.1,40.9,53.3,43
		s31.1-31.8,53.3-33s31.1,26.6,53.3,27c22.2,0.4,31.1-28.1,53.3-25c22.2,3.1,31.1,38.8,53.3,40s31.1-35.5,53.3-34
		c22.2,1.5,31.1,42.7,53.3,41s31.1-49.6,53.3-49s31.1,48.5,53.3,52s31.1-33.1,53.3-35s42.2,20.6,53.3,26"/>
	<path class="st0" d="M10,5802.3c9,1.7,23.2,14.3,43.3,8s31.1-39.5,53.3-38s31.1,42.7,53.3,45s31.1-35.9,53.3-34s31.1,40.9,53.3,43
		s31.1-31.8,53.3-33s31.1,26.6,53.3,27c22.2,0.4,31.1-28.1,53.3-25c22.2,3.1,31.1,38.8,53.3,40s31.1-35.5,53.3-34
		c22.2,1.5,31.1,42.7,53.3,41s31.1-49.6,53.3-49s31.1,48.5,53.3,52s31.1-33.1,53.3-35s42.2,20.6,53.3,26"/>
	<path class="st0" d="M10,5757.3c9,1.7,23.2,14.3,43.3,8s31.1-39.5,53.3-38s31.1,42.7,53.3,45s31.1-35.9,53.3-34s31.1,40.9,53.3,43
		s31.1-31.8,53.3-33s31.1,26.6,53.3,27c22.2,0.4,31.1-28.1,53.3-25c22.2,3.1,31.1,38.8,53.3,40s31.1-35.5,53.3-34
		c22.2,1.5,31.1,42.7,53.3,41s31.1-49.6,53.3-49s31.1,48.5,53.3,52s31.1-33.1,53.3-35s42.2,20.6,53.3,26"/>
	<path class="st0" d="M10,5712.3c9,1.7,23.2,14.3,43.3,8s31.1-39.5,53.3-38s31.1,42.7,53.3,45s31.1-35.9,53.3-34s31.1,40.9,53.3,43
		s31.1-31.8,53.3-33s31.1,26.6,53.3,27c22.2,0.4,31.1-28.1,53.3-25c22.2,3.1,31.1,38.8,53.3,40s31.1-35.5,53.3-34
		c22.2,1.5,31.1,42.7,53.3,41s31.1-49.6,53.3-49s31.1,48.5,53.3,52s31.1-33.1,53.3-35s42.2,20.6,53.3,26"/>
	<path class="st0" d="M10,5667.3c9,1.7,23.2,14.3,43.3,8s31.1-39.5,53.3-38s31.1,42.7,53.3,45s31.1-35.9,53.3-34s31.1,40.9,53.3,43
		s31.1-31.8,53.3-33s31.1,26.6,53.3,27c22.2,0.4,31.1-28.1,53.3-25c22.2,3.1,31.1,38.8,53.3,40s31.1-35.5,53.3-34
		c22.2,1.5,31.1,42.7,53.3,41s31.1-49.6,53.3-49s31.1,48.5,53.3,52s31.1-33.1,53.3-35s42.2,20.6,53.3,26"/>
	<path class="st0" d="M10,5622.3c9,1.7,23.2,14.3,43.3,8s31.1-39.5,53.3-38s31.1,42.7,53.3,45s31.1-35.9,53.3-34s31.1,40.9,53.3,43
		s31.1-31.8,53.3-33s31.1,26.6,53.3,27c22.2,0.4,31.1-28.1,53.3-25c22.2,3.1,31.1,38.8,53.3,40s31.1-35.5,53.3-34
		c22.2,1.5,31.1,42.7,53.3,41s31.1-49.6,53.3-49s31.1,48.5,53.3,52s31.1-33.1,53.3-35s42.2,20.6,53.3,26"/>
	<path class="st0" d="M10,5577.3c9,1.7,23.2,14.3,43.3,8s31.1-39.5,53.3-38s31.1,42.7,53.3,45s31.1-35.9,53.3-34s31.1,40.9,53.3,43
		s31.1-31.8,53.3-33s31.1,26.6,53.3,27c22.2,0.4,31.1-28.1,53.3-25c22.2,3.1,31.1,38.8,53.3,40s31.1-35.5,53.3-34
		c22.2,1.5,31.1,42.7,53.3,41s31.1-49.6,53.3-49s31.1,48.5,53.3,52s31.1-33.1,53.3-35s42.2,20.6,53.3,26"/>
	<path class="st0" d="M10,5532.3c9,1.7,23.2,14.3,43.3,8s31.1-39.5,53.3-38s31.1,42.7,53.3,45s31.1-35.9,53.3-34s31.1,40.9,53.3,43
		s31.1-31.8,53.3-33s31.1,26.6,53.3,27c22.2,0.4,31.1-28.1,53.3-25c22.2,3.1,31.1,38.8,53.3,40s31.1-35.5,53.3-34
		c22.2,1.5,31.1,42.7,53.3,41s31.1-49.6,53.3-49s31.1,48.5,53.3,52s31.1-33.1,53.3-35s42.2,20.6,53.3,26"/>
	<path class="st0" d="M10,5487.3c9,1.7,23.2,14.3,43.3,8s31.1-39.5,53.3-38s31.1,42.7,53.3,45s31.1-35.9,53.3-34s31.1,40.9,53.3,43
		s31.1-31.8,53.3-33s31.1,26.6,53.3,27c22.2,0.4,31.1-28.1,53.3-25c22.2,3.1,31.1,38.8,53.3,40s31.1-35.5,53.3-34
		c22.2,1.5,31.1,42.7,53.3,41s31.1-49.6,53.3-49s31.1,48.5,53.3,52s31.1-33.1,53.3-35s42.2,20.6,53.3,26"/>
	<path class="st0" d="M10,5442.3c9,1.7,23.2,14.3,43.3,8s31.1-39.5,53.3-38s31.1,42.7,53.3,45s31.1-35.9,53.3-34s31.1,40.9,53.3,43
		s31.1-31.8,53.3-33s31.1,26.6,53.3,27c22.2,0.4,31.1-28.1,53.3-25c22.2,3.1,31.1,38.8,53.3,40s31.1-35.5,53.3-34
		c22.2,1.5,31.1,42.7,53.3,41s31.1-49.6,53.3-49s31.1,48.5,53.3,52s31.1-33.1,53.3-35s42.2,20.6,53.3,26"/>
	<path class="st0" d="M10,5397.3c9,1.7,23.2,14.3,43.3,8s31.1-39.5,53.3-38s31.1,42.7,53.3,45s31.1-35.9,53.3-34s31.1,40.9,53.3,43
		s31.1-31.8,53.3-33s31.1,26.6,53.3,27c22.2,0.4,31.1-28.1,53.3-25c22.2,3.1,31.1,38.8,53.3,40s31.1-35.5,53.3-34
		c22.2,1.5,31.1,42.7,53.3,41s31.1-49.6,53.3-49s31.1,48.5,53.3,52s31.1-33.1,53.3-35s42.2,20.6,53.3,26"/>
	<path class="st0" d="M10,5352.3c9,1.7,23.2,14.3,43.3,8s31.1-39.5,53.3-38s31.1,42.7,53.3,45s31.1-35.9,53.3-34s31.1,40.9,53.3,43
		s31.1-31.8,53.3-33s31.1,26.6,53.3,27c22.2,0.4,31.1-28.1,53.3-25c22.2,3.1,31.1,38.8,53.3,40s31.1-35.5,53.3-34
		c22.2,1.5,31.1,42.7,53.3,41s31.1-49.6,53.3-49s31.1,48.5,53.3,52s31.1-33.1,53.3-35s42.2,20.6,53.3,26"/>
	<path class="st0" d="M10,5307.3c9,1.7,23.2,14.3,43.3,8s31.1-39.5,53.3-38s31.1,42.7,53.3,45s31.1-35.9,53.3-34s31.1,40.9,53.3,43
		s31.1-31.8,53.3-33s31.1,26.6,53.3,27c22.2,0.4,31.1-28.1,53.3-25c22.2,3.1,31.1,38.8,53.3,40s31.1-35.5,53.3-34
		c22.2,1.5,31.1,42.7,53.3,41s31.1-49.6,53.3-49s31.1,48.5,53.3,52s31.1-33.1,53.3-35s42.2,20.6,53.3,26"/>
	<path class="st0" d="M10,5262.3c9,1.7,23.2,14.3,43.3,8s31.1-39.5,53.3-38s31.1,42.7,53.3,45s31.1-35.9,53.3-34s31.1,40.9,53.3,43
		s31.1-31.8,53.3-33s31.1,26.6,53.3,27c22.2,0.4,31.1-28.1,53.3-25c22.2,3.1,31.1,38.8,53.3,40s31.1-35.5,53.3-34
		c22.2,1.5,31.1,42.7,53.3,41s31.1-49.6,53.3-49s31.1,48.5,53.3,52s31.1-33.1,53.3-35s42.2,20.6,53.3,26"/>
	<path class="st0" d="M10,5217.3c9,1.7,23.2,14.3,43.3,8s31.1-39.5,53.3-38s31.1,42.7,53.3,45s31.1-35.9,53.3-34s31.1,40.9,53.3,43
		s31.1-31.8,53.3-33s31.1,26.6,53.3,27c22.2,0.4,31.1-28.1,53.3-25c22.2,3.1,31.1,38.8,53.3,40s31.1-35.5,53.3-34
		c22.2,1.5,31.1,42.7,53.3,41s31.1-49.6,53.3-49s31.1,48.5,53.3,52s31.1-33.1,53.3-35s42.2,20.6,53.3,26"/>
	<path class="st0" d="M10,5172.3c9,1.7,23.2,14.3,43.3,8s31.1-39.5,53.3-38s31.1,42.7,53.3,45s31.1-35.9,53.3-34s31.1,40.9,53.3,43
		s31.1-31.8,53.3-33s31.1,26.6,53.3,27c22.2,0.4,31.1-28.1,53.3-25c22.2,3.1,31.1,38.8,53.3,40s31.1-35.5,53.3-34
		c22.2,1.5,31.1,42.7,53.3,41s31.1-49.6,53.3-49s31.1,48.5,53.3,52s31.1-33.1,53.3-35s42.2,20.6,53.3,26"/>
	<path class="st0" d="M10,5127.3c9,1.7,23.2,14.3,43.3,8s31.1-39.5,53.3-38s31.1,42.7,53.3,45s31.1-35.9,53.3-34s31.1,40.9,53.3,43
		s31.1-31.8,53.3-33s31.1,26.6,53.3,27c22.2,0.4,31.1-28.1,53.3-25c22.2,3.1,31.1,38.8,53.3,40s31.1-35.5,53.3-34
		c22.2,1.5,31.1,42.7,53.3,41s31.1-49.6,53.3-49s31.1,48.5,53.3,52s31.1-33.1,53.3-35s42.2,20.6,53.3,26"/>
	<path class="st0" d="M10,5082.3c9,1.7,23.2,14.3,43.3,8s31.1-39.5,53.3-38s31.1,42.7,53.3,45s31.1-35.9,53.3-34s31.1,40.9,53.3,43
		s31.1-31.8,53.3-33s31.1,26.6,53.3,27c22.2,0.4,31.1-28.1,53.3-25c22.2,3.1,31.1,38.8,53.3,40s31.1-35.5,53.3-34
		c22.2,1.5,31.1,42.7,53.3,41s31.1-49.6,53.3-49s31.1,48.5,53.3,52s31.1-33.1,53.3-35s42.2,20.6,53.3,26"/>
	<path class="st0" d="M10,5037.3c9,1.7,23.2,14.3,43.3,8s31.1-39.5,53.3-38s31.1,42.7,53.3,45s31.1-35.9,53.3-34s31.1,40.9,53.3,43
		s31.1-31.8,53.3-33s31.1,26.6,53.3,27c22.2,0.4,31.1-28.1,53.3-25c22.2,3.1,31.1,38.8,53.3,40s31.1-35.5,53.3-34
		c22.2,1.5,31.1,42.7,53.3,41s31.1-49.6,53.3-49s31.1,48.5,53.3,52s31.1-33.1,53.3-35s42.2,20.6,53.3,26"/>
	<path class="st0" d="M10,4992.3c9,1.7,23.2,14.3,43.3,8s31.1-39.5,53.3-38s31.1,42.7,53.3,45s31.1-35.9,53.3-34s31.1,40.9,53.3,43
		s31.1-31.8,53.3-33s31.1,26.6,53.3,27c22.2,0.4,31.1-28.1,53.3-25c22.2,3.1,31.1,38.8,53.3,40s31.1-35.5,53.3-34
		c22.2,1.5,31.1,42.7,53.3,41s31.1-49.6,53.3-49s31.1,48.5,53.3,52s31.1-33.1,53.3-35s42.2,20.6,53.3,26"/>
	<path class="st0" d="M10,4947.3c9,1.7,23.2,14.3,43.3,8s31.1-39.5,53.3-38s31.1,42.7,53.3,45s31.1-35.9,53.3-34s31.1,40.9,53.3,43
		s31.1-31.8,53.3-33s31.1,26.6,53.3,27c22.2,0.4,31.1-28.1,53.3-25c22.2,3.1,31.1,38.8,53.3,40s31.1-35.5,53.3-34
		c22.2,1.5,31.1,42.7,53.3,41s31.1-49.6,53.3-49s31.1,48.5,53.3,52s31.1-33.1,53.3-35s42.2,20.6,53.3,26"/>
</g>
</svg>
